<svg width="60" height="60" viewBox="0 0 60 60" fill="none" xmlns="http://www.w3.org/2000/svg">
<rect width="60" height="60" fill="#020408"/>
<g style="mix-blend-mode:color-dodge">
<path d="M35.503 10.8223C35.753 10.8502 36.002 10.9265 36.25 10.9619C36.366 10.9786 36.502 10.9191 36.62 10.9498C36.987 11.0214 37.365 11.1581 37.73 11.2251C37.906 11.2819 38.067 11.2763 38.128 11.4502C38.226 11.4744 38.272 11.4949 38.363 11.533C38.528 11.6121 38.693 11.6949 38.83 11.814C39.83 12.5581 40.574 13.3256 41.004 14.4772C41.031 14.5516 41.059 14.6167 41.076 14.694C41.187 15.0242 41.285 15.6428 41.321 15.9963C41.387 16.6474 41.151 17.32 40.971 17.9377C40.917 18.12 40.739 18.6884 40.722 18.8353L40.702 18.8809C40.474 19.5628 40.318 20.3498 40.076 21.0186C40.028 21.1609 39.986 21.3135 39.879 21.426C39.795 21.5656 39.709 21.7116 39.621 21.8502C39.391 22.2149 39.209 22.7879 38.945 23.1088L38.917 23.187C38.693 23.5916 38.453 24.0056 38.262 24.426C38.208 24.533 38.194 24.5805 38.093 24.6577C38.046 24.7721 37.976 24.9293 37.938 25.0437C39.166 25.3637 40.453 25.6512 41.665 25.9814C41.936 26.054 42.245 26.1005 42.425 26.3014C43.562 26.6921 44.811 27.813 45.298 28.8465C45.516 29.3098 45.693 29.7609 45.811 30.2577C45.864 30.4809 45.748 30.5795 45.875 30.7023C45.891 30.9116 45.75 30.9395 45.899 31.1116C45.92 31.1377 45.882 31.5674 45.881 31.626C45.819 32.0307 45.678 32.4605 45.561 32.8512C45.405 33.3668 45.2616 33.8857 45.131 34.4074L45.097 34.506C44.973 34.9181 44.86 35.3823 44.734 35.7786C44.6696 35.9576 44.5837 36.1292 44.478 36.2902C43.931 37.1442 43.478 37.6279 42.611 38.2195C42.39 38.3702 42.201 38.5228 41.958 38.6633C41.79 38.7842 41.618 38.9107 41.444 39.0223C40.691 39.5191 39.955 40.0651 39.202 40.5665C38.977 40.7153 38.752 40.8921 38.527 41.0363L38.432 41.1014C37.998 41.4065 37.503 41.7609 37.054 42.0419L36.888 42.1647C36.632 42.3433 36.043 42.7786 35.794 42.9181C35.67 43.0062 35.545 43.093 35.419 43.1786C35.145 43.3879 34.764 43.6316 34.471 43.8298L33.117 44.7656L31.765 45.7005C31.532 45.8623 31.199 46.1079 30.959 46.2456L30.846 46.3284C30.455 46.5926 29.943 46.9842 29.561 47.2195L29.334 47.3702C28.909 47.6735 28.372 48.066 27.922 48.3153L27.853 48.3572C26.94 48.9386 26.417 49.0735 25.338 49.2391C25.148 49.267 25.045 49.2093 24.918 49.2298C24.892 49.2512 24.888 49.2595 24.858 49.2707C24.65 49.2344 24.454 49.2744 24.221 49.2474C24.089 49.2316 23.761 49.1265 23.694 49.1526L23.684 49.2084L23.644 49.2205C23.518 49.1991 22.994 49.0995 22.924 49.0251L22.965 48.9488C22.617 48.8967 22.392 48.7721 22.083 48.6233C21.983 48.5777 21.924 48.5526 21.831 48.4912L21.733 48.4363C21.3875 48.2281 21.064 47.9898 20.767 47.7247C19.885 46.934 19.105 45.6102 19.097 44.4437C19.046 44.4419 19.068 44.4493 19.03 44.4233L19.048 44.346C19.075 44.1786 19.032 44.1079 19.026 43.9479C19.022 43.8623 19.093 43.7042 19.086 43.613C19.077 43.5265 19.006 43.4614 19.029 43.3665C19.295 42.2474 19.715 41.1488 19.968 40.0288C20.066 39.6949 20.264 38.8419 20.494 38.6195C20.697 38.307 21.028 37.6958 21.167 37.3628C21.203 37.2735 21.244 37.2074 21.292 37.1247C21.434 36.9358 21.662 36.4735 21.778 36.2484C21.837 36.134 21.82 35.9563 21.896 35.8753C22.137 35.7265 22.05 35.4698 22.279 35.3228C22.294 35.2586 22.367 35.107 22.397 35.0381C22.219 34.9944 22.017 34.9488 21.845 34.8912L21.802 34.8847C21.3285 34.7623 20.8538 34.6438 20.378 34.5293L20.196 34.4828C19.786 34.3572 19.167 34.2223 18.735 34.1153L18.712 34.1144C18.533 34.0586 18.366 34.027 18.182 33.9609C16.9727 33.5293 15.9536 32.7335 15.287 31.7005C14.952 31.1842 14.334 29.7526 14.49 29.1591C14.44 29.1302 14.437 29.134 14.409 29.0874C14.4008 28.9695 14.4195 28.8512 14.464 28.7405C14.469 28.7256 14.477 28.6753 14.48 28.6614L14.423 28.5851C14.393 28.4521 15.047 26.2316 15.135 25.9665L15.151 25.8847C15.2843 25.4357 15.4137 24.9857 15.539 24.5349C15.649 24.2279 15.626 24.0344 15.889 23.7944L15.892 23.7898C16.04 23.6409 16.074 23.4419 16.202 23.28C16.873 22.4335 17.873 21.7898 18.769 21.1777L20.472 20.0056L26.749 15.6809L30.767 12.9033C31.069 12.6986 31.369 12.4915 31.667 12.2819C31.825 12.1702 32.151 11.9228 32.309 11.8419C32.749 11.5135 33.446 11.2884 33.952 11.0735C34.604 10.8893 34.736 10.893 35.402 10.8567L35.503 10.8223ZM33.887 14.0865C33.519 14.3563 33.126 14.6093 32.745 14.8679L31.22 15.9144L28.772 17.6074C28.525 17.7767 28.252 17.9795 28.009 18.1414C27.939 18.1879 27.849 18.253 27.778 18.2949C27.401 18.5749 26.898 18.9274 26.502 19.1823L26.284 19.3358C25.921 19.5656 25.495 19.8781 25.131 20.1265C24.0918 20.8348 23.0564 21.548 22.025 22.266C21.045 22.9442 20.022 23.6177 19.064 24.3265C18.791 24.5274 18.424 24.9358 18.257 25.2298C18.202 25.3507 18.09 25.7972 18.07 25.933C18.061 25.9951 18.0452 26.0562 18.023 26.1153C18.028 26.1526 18.077 26.2577 18.078 26.2102C18.07 26.7191 18.182 27.2326 18.449 27.6781C18.534 27.8195 18.665 27.9265 18.749 28.0791C18.831 28.1535 18.9153 28.2248 19.002 28.293C19.11 28.3848 19.221 28.4729 19.335 28.5572C19.397 28.5879 19.701 28.7693 19.685 28.7619C19.772 28.787 19.879 28.813 19.961 28.8484C21.423 29.2326 22.937 29.5898 24.411 29.9609L25.605 30.2623C25.849 30.3247 26.095 30.3823 26.332 30.4651C26.408 30.4921 26.419 30.5228 26.453 30.5851C26.803 30.7423 26.973 31.0093 27.096 31.3405L27.145 31.4781C27.184 31.6623 27.182 31.6828 27.15 31.8763C27.1067 32.1512 27.0179 32.4182 26.887 32.6679C26.824 32.7795 26.767 32.84 26.717 32.9591L26.66 33.0726L26.601 33.2009C26.5096 33.3647 26.4167 33.5271 26.322 33.6884C26.235 33.893 26.112 34.1563 25.994 34.3488C25.972 34.3944 25.937 34.4726 25.912 34.5144C25.75 34.84 25.563 35.1479 25.397 35.4716C25.324 35.613 25.276 35.6214 25.219 35.7879L25.185 35.8744C25.082 36.0874 24.955 36.346 24.83 36.5488C24.774 36.666 24.528 37.1628 24.459 37.2512L24.402 37.3498C24.299 37.5507 24.189 37.7433 24.084 37.9423C23.984 38.133 23.913 38.3647 23.78 38.5377C23.7411 38.5867 23.7098 38.6406 23.687 38.6977L23.644 38.786L23.609 38.8651C23.519 39.054 23.297 39.5767 23.155 39.6884C23.094 39.8047 23.063 39.893 23.018 40.0149C22.948 40.2102 22.934 40.2521 22.78 40.4056C22.718 40.626 22.633 40.9702 22.556 41.1758C22.624 41.1981 22.63 41.187 22.658 41.2316C22.626 41.4363 22.685 41.613 22.648 41.8233C22.644 42.2679 23.25 43.107 23.608 43.4158C23.692 43.4893 23.867 43.5647 23.965 43.6335C24.047 43.6893 23.951 43.7191 24.039 43.7507C24.151 43.7916 24.259 43.8074 24.373 43.8512C24.617 43.9135 24.902 43.9777 25.141 44.0465C25.394 44.1079 25.916 44.0474 26.169 43.9907L26.379 43.9219C27.074 43.6214 27.585 43.2205 28.193 42.8L29.893 41.6307L36.593 37.0065L40.212 34.5153C40.99 33.974 41.64 33.6084 42.305 32.9433C42.3863 32.8645 42.4696 32.7879 42.555 32.7135C42.562 32.68 42.635 32.5181 42.652 32.4763C42.773 32.1135 42.879 31.6893 42.982 31.3163C42.98 31.2047 43.054 31.0595 43.022 30.9805L42.955 30.9963C42.932 30.9647 42.947 30.8726 42.952 30.8288C42.967 30.7098 42.952 30.6633 42.926 30.5498C42.877 30.4288 42.839 30.3014 42.798 30.1777C42.497 29.5944 42.202 29.2763 41.62 28.9023C41.564 28.8698 41.506 28.8465 41.446 28.8214C41.326 28.7693 41.203 28.7256 41.08 28.6809C40.733 28.573 40.095 28.4391 39.712 28.3414L36.068 27.4121C35.628 27.2977 35.182 27.2149 34.753 27.0809C34.6397 27.0498 34.5388 26.9884 34.463 26.9042C34.139 26.7116 33.994 26.3498 33.926 26.0112C33.904 25.9833 33.881 25.9395 33.863 25.9088C33.894 25.734 33.955 25.3972 34.031 25.2437C34.167 24.9656 34.269 24.84 34.366 24.5377C34.413 24.4158 34.454 24.3126 34.51 24.1935C34.659 23.9888 34.941 23.4958 35.026 23.2605C35.05 23.1823 35.445 22.4084 35.483 22.36C35.647 22.1991 35.94 21.5321 36.041 21.3033C36.094 21.186 36.171 21.0679 36.227 20.9498C36.29 20.8167 36.332 20.6353 36.431 20.5312C36.4776 20.4863 36.5139 20.4331 36.538 20.3749C36.638 20.0716 36.728 20.093 36.816 19.866C36.884 19.6558 36.896 19.5014 37.084 19.3823C37.244 19.1256 37.139 19.0093 37.4 18.7498C37.515 18.6363 37.689 18.1823 37.785 18.0214C37.907 17.8289 38.01 17.6265 38.093 17.4167C38.14 17.2549 38.166 17.1321 38.285 17.0019C38.355 16.9042 38.391 16.773 38.424 16.6605C38.517 16.3628 38.4 16.3051 38.444 16.0372L38.434 15.9833C38.348 15.8902 38.415 15.7237 38.454 15.6223C38.357 15.5126 38.342 15.4447 38.294 15.3098C38.168 14.8195 37.79 14.4753 37.431 14.1256C37.016 13.72 36.502 13.6344 35.943 13.5126C35.81 13.4847 35.75 13.5665 35.622 13.5442L35.464 13.5181L35.386 13.4949C34.757 13.6028 34.443 13.7191 33.931 14.0512L33.887 14.0865Z" fill="white"/>
<path d="M23.282 39.1368C23.326 39.013 23.267 38.8056 23.294 38.6902L23.316 38.6912C23.39 38.693 23.635 38.6884 23.686 38.6986L23.643 38.787L23.608 38.8661C23.518 39.0549 23.296 39.5777 23.154 39.6893C23.166 39.5191 23.263 39.3563 23.282 39.1368Z" fill="white"/>
<path d="M23.327 38.7219C23.434 38.7367 23.547 38.746 23.643 38.787L23.608 38.866C23.545 38.9293 23.449 38.9944 23.363 38.9479C23.319 38.8819 23.329 38.8028 23.327 38.7219Z" fill="white"/>
<path d="M42.98 31.3172C43.107 31.3823 43.06 31.4428 43.03 31.5665L43.014 31.6372C42.965 31.7749 42.934 31.9321 42.903 32.0744C42.868 32.1925 42.823 32.3888 42.736 32.4744C42.692 32.4791 42.694 32.4809 42.651 32.4772C42.772 32.1144 42.877 31.6902 42.98 31.3172Z" fill="white"/>
<path d="M22.555 41.1768C22.623 41.1991 22.629 41.1879 22.657 41.2326C22.625 41.4372 22.684 41.614 22.647 41.8242C22.537 41.7051 22.604 41.6605 22.534 41.5684L22.521 41.5163C22.5098 41.4021 22.5213 41.287 22.555 41.1768Z" fill="white"/>
<path d="M35.503 10.8223C35.753 10.8502 36.002 10.9265 36.25 10.9619C36.366 10.9786 36.502 10.9191 36.62 10.9498C36.987 11.0214 37.365 11.1581 37.73 11.2251C37.906 11.2819 38.067 11.2763 38.128 11.4502C38.226 11.4744 38.272 11.4949 38.363 11.533C38.528 11.6121 38.693 11.6949 38.83 11.814C39.83 12.5581 40.574 13.3256 41.004 14.4772C41.031 14.5516 41.059 14.6167 41.076 14.694C41.187 15.0242 41.285 15.6428 41.321 15.9963C41.387 16.6474 41.151 17.32 40.971 17.9377C40.917 18.12 40.739 18.6884 40.722 18.8354L40.702 18.8809C40.474 19.5628 40.318 20.3498 40.076 21.0186C40.028 21.1609 39.986 21.3135 39.879 21.426C39.795 21.5656 39.709 21.7116 39.621 21.8502C39.391 22.2149 39.209 22.7879 38.945 23.1088L38.917 23.187C38.693 23.5916 38.453 24.0056 38.262 24.426C38.208 24.533 38.194 24.5805 38.093 24.6577C38.046 24.7721 37.976 24.9293 37.938 25.0437C39.166 25.3637 40.453 25.6512 41.665 25.9814C41.633 26.0409 41.633 26.0437 41.584 26.0967L41.5 26.093L41.495 27.307C41.975 27.3209 42.481 27.3144 42.963 27.3144C42.9562 27.4176 42.9555 27.521 42.961 27.6242C42.971 27.9926 42.968 28.3619 42.968 28.7312L42.942 28.7219L42.902 28.7535C42.504 28.7767 42.104 28.7442 41.707 28.7888C41.777 28.8316 42.774 28.8065 42.924 28.8028C42.924 28.9749 42.95 30.0493 42.901 30.1274C42.861 30.1442 42.831 30.1544 42.796 30.1777C42.495 29.5953 42.2 29.2772 41.618 28.9033C41.562 28.8707 41.504 28.8474 41.444 28.8223C41.324 28.7702 41.201 28.7265 41.078 28.6819C40.731 28.574 40.093 28.44 39.71 28.3423L36.066 27.413C35.626 27.2986 35.18 27.2158 34.751 27.0819C34.6377 27.0508 34.5369 26.9893 34.461 26.9051C34.137 26.7126 33.992 26.3507 33.924 26.0121C33.902 25.9842 33.879 25.9405 33.861 25.9098C33.892 25.7349 33.953 25.3981 34.029 25.2447C34.165 24.9665 34.267 24.8409 34.364 24.5386C34.411 24.4167 34.452 24.3135 34.508 24.1944C34.657 23.9898 34.939 23.4967 35.024 23.2614C35.048 23.1833 35.443 22.4093 35.481 22.3609C35.645 22.2 35.938 21.533 36.039 21.3042C36.092 21.187 36.169 21.0688 36.225 20.9507C36.288 20.8177 36.33 20.6363 36.429 20.5321C36.4756 20.4872 36.5119 20.4341 36.536 20.3758C36.636 20.0726 36.726 20.094 36.814 19.867C36.882 19.6567 36.894 19.5023 37.082 19.3833C37.242 19.1265 37.137 19.0102 37.398 18.7507C37.513 18.6372 37.687 18.1833 37.783 18.0223C37.905 17.8298 38.008 17.6274 38.091 17.4177C38.138 17.2558 38.164 17.133 38.283 17.0028C38.353 16.9051 38.389 16.774 38.422 16.6614C38.515 16.3637 38.398 16.306 38.442 16.0381L38.432 15.9842C38.346 15.8912 38.413 15.7247 38.452 15.6233C38.355 15.5135 38.34 15.4456 38.292 15.3107C38.166 14.8205 37.788 14.4763 37.429 14.1265C37.014 13.7209 36.5 13.6353 35.941 13.5135C35.808 13.4856 35.748 13.5674 35.62 13.5451L35.462 13.5191L35.384 13.4958C34.755 13.6037 34.441 13.72 33.929 14.0521L33.886 14.0865C33.518 14.3563 33.125 14.6093 32.744 14.8679L31.22 15.9144L28.772 17.6074C28.525 17.7767 28.252 17.9795 28.009 18.1414C27.939 18.1879 27.849 18.253 27.778 18.2949C27.401 18.5749 26.898 18.9274 26.502 19.1823L26.284 19.3358C25.921 19.5656 25.495 19.8781 25.131 20.1265C24.0918 20.8348 23.0564 21.548 22.025 22.266C21.045 22.9442 20.022 23.6177 19.064 24.3265C18.791 24.5274 18.424 24.9358 18.257 25.2298C18.202 25.3507 18.09 25.7972 18.07 25.933C18.061 25.9951 18.0452 26.0562 18.023 26.1153L18.018 26.0316C17.922 25.9293 17.506 25.986 17.315 25.9674L17.289 25.9647C17.273 25.9591 17.252 25.9619 17.233 25.9619C16.867 25.9926 16.134 25.9712 15.748 25.9693L15.702 25.9581C15.605 25.9721 15.158 25.9581 15.136 25.9656L15.152 25.8837C15.2853 25.4347 15.4147 24.9848 15.54 24.534C15.65 24.227 15.627 24.0335 15.89 23.7935L15.893 23.7888C16.041 23.64 16.075 23.4409 16.203 23.2791C16.874 22.4326 17.874 21.7888 18.77 21.1767L20.473 20.0047L26.75 15.68L30.768 12.9023C31.07 12.6977 31.37 12.4905 31.668 12.2809C31.826 12.1693 32.152 11.9219 32.31 11.8409C32.75 11.5126 33.447 11.2874 33.953 11.0726C34.605 10.8884 34.737 10.8921 35.403 10.8558L35.503 10.8223Z" fill="white"/>
<path d="M32.937 11.7749C33.228 11.7572 33.56 11.7749 33.869 11.7637V13.1572C33.3737 13.1609 32.879 13.1609 32.385 13.1572C32.385 12.9135 32.409 12.1954 32.348 12.0186C32.294 12.3154 32.314 12.8409 32.315 13.1609L30.848 13.1656C30.852 13.6251 30.8513 14.0853 30.846 14.5461C30.399 14.5423 29.732 14.5619 29.308 14.5228C29.302 14.7358 29.273 15.8447 29.341 15.9749C29.381 15.813 29.365 14.8112 29.364 14.5935C30.261 14.6205 31.398 14.6093 32.311 14.5982C32.322 14.7293 32.307 14.9916 32.331 15.0716L32.358 15.0754C32.406 15.0047 32.382 14.7219 32.386 14.5991C32.496 14.6 32.595 14.6084 32.699 14.5777L32.692 14.5609C32.586 14.533 32.488 14.5405 32.379 14.5423V13.2075C32.604 13.2391 33.588 13.2279 33.868 13.2177C33.868 13.3637 33.844 14.0065 33.888 14.0856C33.519 14.3554 33.126 14.6084 32.745 14.867L31.22 15.9144L28.772 17.6075C28.525 17.7768 28.252 17.9795 28.009 18.1414C27.939 18.1879 27.849 18.253 27.778 18.2949C27.401 18.5749 26.898 18.9275 26.502 19.1823L26.284 19.3358C25.921 19.5656 25.495 19.8782 25.131 20.1265C24.0918 20.8348 23.0564 21.548 22.025 22.2661C21.045 22.9442 20.022 23.6177 19.064 24.3265C18.791 24.5275 18.424 24.9358 18.257 25.2298C18.202 25.3507 18.09 25.7972 18.07 25.933C18.061 25.9951 18.0452 26.0562 18.023 26.1154L18.018 26.0316C17.922 25.9293 17.506 25.9861 17.315 25.9675L17.289 25.9647C17.273 25.9591 17.252 25.9619 17.233 25.9619C16.867 25.9926 16.134 25.9712 15.748 25.9693L15.702 25.9582C15.605 25.9721 15.158 25.9582 15.136 25.9656L15.152 25.8837C15.2853 25.4347 15.4147 24.9848 15.54 24.534C15.65 24.227 15.627 24.0335 15.89 23.7935L15.893 23.7888C16.041 23.64 16.075 23.4409 16.203 23.2791C16.874 22.4326 17.874 21.7888 18.77 21.1768L20.473 20.0047L26.75 15.68L30.768 12.9023C31.07 12.6977 31.37 12.4906 31.668 12.2809C31.826 12.1693 32.152 11.9219 32.31 11.8409C32.382 11.8484 32.823 11.787 32.938 11.774" fill="white"/>
<path d="M17.23 24.4837C17.23 24.2326 17.203 23.3647 17.27 23.1954C17.314 23.2893 17.294 24.3014 17.294 24.4698L17.328 24.4735C17.57 24.4903 18.446 24.4586 18.59 24.5126C18.365 24.5526 17.55 24.5405 17.29 24.5312L17.289 25.9237C17.511 25.9396 17.842 25.9396 18.069 25.934C18.06 25.9961 18.0442 26.0572 18.022 26.1163L18.017 26.0326C17.921 25.9303 17.505 25.987 17.314 25.9684L17.288 25.9656C17.272 25.96 17.251 25.9628 17.232 25.9628C16.866 25.9935 16.133 25.9721 15.747 25.9703L15.701 25.9591C15.604 25.973 15.157 25.9591 15.135 25.9665L15.151 25.8847C15.2843 25.4357 15.4137 24.9858 15.539 24.5349C15.649 24.2279 15.626 24.0344 15.889 23.7944C15.87 23.9963 15.776 24.1777 15.754 24.44C16.148 24.52 16.807 24.4679 17.23 24.4847" fill="white"/>
<path d="M15.54 24.5349C15.623 24.5414 15.634 24.5293 15.693 24.5675C15.718 25.0354 15.694 25.4419 15.701 25.9061C15.609 25.96 15.287 25.9414 15.173 25.9284L15.151 25.8847C15.2843 25.4357 15.4147 24.9858 15.54 24.5349Z" fill="white"/>
<path d="M15.75 24.5209C16.251 24.5451 16.734 24.5358 17.236 24.5303C17.234 24.9889 17.224 25.4847 17.239 25.9414C16.739 25.9383 16.239 25.9377 15.739 25.9396C15.7363 25.467 15.7397 24.9938 15.749 24.52" fill="white"/>
<path d="M27.777 18.2958C27.902 17.5433 27.753 16.7926 27.855 16.0884C27.922 16.1842 27.85 17.7098 27.885 17.9516C27.905 18.0912 27.874 18.0549 28.008 18.1423C27.938 18.1888 27.848 18.254 27.777 18.2958Z" fill="white"/>
<path d="M26.283 19.3367C26.3 18.9525 26.286 18.5432 26.293 18.1572C26.297 17.9023 26.274 17.6949 26.316 17.4381C26.354 17.5042 26.322 18.5953 26.348 18.7879C26.389 18.8362 26.376 18.8204 26.46 18.8344C26.457 18.9302 26.167 19.0204 26.478 19.173L26.501 19.1832L26.283 19.3367Z" fill="white"/>
<path d="M23.312 20.2046L23.315 19.333C23.353 19.4 23.31 20.8353 23.296 20.9767L23.297 20.9386L23.287 20.9367C23.271 20.7311 23.277 20.4604 23.277 20.2493C22.82 20.2586 22.305 20.2642 21.851 20.2493L21.85 21.6586C21.98 21.6567 22.384 21.6511 22.49 21.6763C22.36 21.7228 20.558 21.7023 20.306 21.6958C20.294 22.1795 20.328 22.7144 20.31 23.1823L20.283 23.1981C20.039 23.107 19.996 23.146 19.734 23.1479C19.41 23.1516 19.0863 23.1498 18.763 23.1423C18.739 23.5079 18.78 23.8958 18.729 24.2735L18.721 24.2465L18.731 24.2558C18.693 24.1386 18.728 23.3646 18.722 23.1842C18.7097 22.6869 18.7064 22.1895 18.712 21.6921C18.636 21.6967 18.599 21.6939 18.522 21.6884C18.783 21.6084 19.879 21.6558 20.257 21.6539L20.312 21.6567C20.81 21.6536 21.308 21.6549 21.806 21.6604C21.791 21.1991 21.8 20.7135 21.801 20.2511C21.512 20.253 20.854 20.2716 20.602 20.2363L20.61 20.2288C20.97 20.2 21.436 20.2093 21.802 20.2102C21.801 19.9963 21.792 19.653 21.825 19.4474L21.839 19.4586C21.855 19.6865 21.849 19.9749 21.849 20.2074C22.337 20.2118 22.8246 20.2108 23.312 20.2046Z" fill="white"/>
<path d="M18.759 21.693C19.171 21.7246 19.832 21.7023 20.257 21.6976L20.256 23.0772L20.231 23.1051C19.7363 23.1014 19.2413 23.1004 18.746 23.1023C18.774 22.6474 18.763 22.1507 18.759 21.693Z" fill="white"/>
<path d="M20.257 21.6539C20.251 21.5051 20.235 20.5432 20.297 20.4725C20.313 20.8474 20.288 21.306 20.312 21.6567L20.257 21.6539Z" fill="white"/>
<path d="M24.833 18.8577C24.911 18.9944 24.858 19.8344 24.85 20.0437L24.826 20.0177C24.809 19.7916 24.799 19.0698 24.833 18.8577Z" fill="white"/>
<path d="M39.955 14.587C40.351 14.6047 40.743 14.52 41.075 14.694C41.187 15.0242 41.285 15.6428 41.321 15.9963C41.387 16.6474 41.151 17.32 40.971 17.9377C40.917 18.12 40.739 18.6884 40.722 18.8353C40.567 18.8167 40.129 18.826 39.952 18.826L39.954 17.4177C40.205 17.427 40.857 17.4493 41.069 17.4009C41.037 17.3712 40.075 17.3786 39.953 17.3786C39.9564 16.9296 39.957 16.4809 39.955 16.0326C40.214 16.0419 40.975 16.0623 41.205 16.0186C41.097 15.9758 40.137 15.9944 39.953 15.9935L39.955 14.587Z" fill="white"/>
<path d="M38.477 20.2474C38.931 20.266 39.444 20.2539 39.901 20.2521C39.901 20.4846 39.901 20.7116 39.897 20.9442C39.895 21.0716 39.858 21.3321 39.879 21.426C39.795 21.5656 39.709 21.7116 39.621 21.8502C39.391 22.2149 39.209 22.7879 38.945 23.1088C38.868 23.0865 38.566 23.1042 38.468 23.1079C38.4767 22.6366 38.4794 22.1653 38.476 21.6939C38.644 21.7023 39.363 21.7144 39.508 21.6791C39.33 21.6446 38.691 21.6577 38.474 21.6577C38.478 21.1882 38.479 20.7181 38.477 20.2474Z" fill="white"/>
<path d="M36.537 20.3758C36.697 20.3665 36.697 20.2381 36.857 20.2688C36.921 20.4595 36.882 21.3814 36.905 21.6623C36.768 21.6623 36.229 21.6493 36.122 21.6828C36.386 21.6995 36.631 21.6958 36.896 21.6939C36.894 22.1367 36.877 22.6716 36.901 23.107C36.437 23.1014 35.949 23.1163 35.49 23.1014L35.501 23.1479H35.477L35.422 23.1358C35.175 23.1665 35.227 23.1981 35.025 23.2614C35.049 23.1832 35.444 22.4093 35.482 22.3609C35.646 22.2 35.939 21.533 36.04 21.3042C36.093 21.187 36.17 21.0688 36.226 20.9507C36.289 20.8177 36.331 20.6363 36.43 20.5321C36.4766 20.4872 36.513 20.434 36.537 20.3758Z" fill="white"/>
<path d="M35.025 23.2614C35.049 23.1832 35.444 22.4093 35.482 22.3609C35.568 22.5218 35.425 22.933 35.49 23.1014L35.501 23.1479H35.477L35.422 23.1358C35.175 23.1665 35.227 23.1981 35.025 23.2614Z" fill="white"/>
<path d="M38.092 17.4186L38.157 17.4595C38.244 17.4428 38.327 17.4186 38.413 17.4316C38.469 17.5191 38.422 19.8791 38.444 20.2167C37.997 20.2102 37.366 20.2363 36.944 20.2C36.951 20.0623 36.956 19.9618 36.95 19.8251C36.901 19.866 36.881 19.8623 36.815 19.867C36.883 19.6567 36.895 19.5023 37.083 19.3832C37.243 19.1265 37.138 19.0102 37.399 18.7507C37.514 18.6372 37.688 18.1832 37.784 18.0223C37.906 17.8298 38.0091 17.6283 38.092 17.4186Z" fill="white"/>
<path d="M37.083 19.3842C37.041 19.5507 37.009 19.6632 36.95 19.8251C36.901 19.866 36.881 19.8623 36.815 19.867C36.883 19.6567 36.895 19.5023 37.083 19.3832" fill="white"/>
<path d="M41.498 27.3507C41.914 27.3758 42.531 27.3293 42.903 27.374C43.003 27.5005 42.883 28.4642 42.943 28.7219L42.903 28.7535C42.505 28.7768 42.105 28.7442 41.708 28.7888C41.778 28.8316 42.775 28.8065 42.925 28.8028C42.925 28.9749 42.951 30.0493 42.902 30.1275C42.862 30.1442 42.832 30.1544 42.797 30.1777C42.496 29.5954 42.201 29.2772 41.619 28.9033C41.637 28.8809 41.641 28.8707 41.655 28.8456C41.631 28.8168 41.642 28.8251 41.615 28.8065C41.592 28.7916 41.565 28.7768 41.546 28.7582C41.446 28.6586 41.496 27.5675 41.498 27.3507Z" fill="white"/>
<path d="M38.502 11.7451C38.623 11.7814 38.702 11.8195 38.83 11.814C39.83 12.5581 40.574 13.3256 41.004 14.4772C40.977 14.4986 40.934 14.5349 40.899 14.5377C40.608 14.5665 40.245 14.5526 39.953 14.5488C39.953 14.2809 39.977 13.3805 39.903 13.1926C39.783 13.1516 38.683 13.1656 38.47 13.1656C38.482 12.787 38.447 12.0893 38.502 11.7451Z" fill="white"/>
<path d="M36.937 13.2009C37.435 13.2326 37.942 13.2158 38.44 13.2009C38.436 13.653 38.4373 14.1045 38.444 14.5553C38.373 14.5535 38.303 14.5433 38.239 14.5702C38.303 14.5981 38.371 14.5898 38.443 14.5888C38.442 14.7405 38.477 15.1581 38.379 15.2651C38.3524 15.2832 38.3239 15.2988 38.294 15.3116C38.167 14.8205 37.789 14.4763 37.43 14.1265C37.015 13.7209 36.501 13.6353 35.942 13.5135C35.809 13.4856 35.749 13.5674 35.621 13.5451L35.463 13.5191L35.453 13.2028C35.802 13.2381 36.531 13.2251 36.891 13.2028C36.891 13.3498 36.889 13.4586 36.913 13.6028C36.939 13.5191 36.936 13.2986 36.937 13.2009Z" fill="white"/>
<path d="M36.933 23.1414C37.414 23.1581 37.959 23.1479 38.44 23.1395C38.437 23.2707 38.426 23.5507 38.463 23.6763C38.48 23.4921 38.477 23.3237 38.476 23.1405C38.601 23.1405 38.813 23.1312 38.917 23.187C38.693 23.5916 38.453 24.0056 38.262 24.426C37.877 24.533 37.344 24.4902 36.932 24.4902L36.933 23.1414Z" fill="white"/>
<path d="M38.475 14.5879C38.9537 14.5966 39.432 14.5966 39.91 14.5879C39.907 14.9758 39.882 15.627 39.917 15.9981C39.431 15.9981 38.917 16.0028 38.433 15.9842C38.347 15.8911 38.414 15.7246 38.453 15.6232C38.501 15.4744 38.478 14.7879 38.475 14.5879Z" fill="white"/>
<path d="M39.958 25.9767C40.166 25.9795 40.613 26 40.789 25.9395C41.001 26 41.25 26.0344 41.471 26.0735C41.423 26.1897 41.456 27.1153 41.46 27.3144C40.965 27.3051 40.442 27.3293 39.953 27.3051L39.958 25.9767Z" fill="white"/>
<path d="M38.423 16.6614C38.516 16.3637 38.399 16.3061 38.443 16.0382C38.933 16.0444 39.423 16.0428 39.913 16.0335C39.908 16.373 39.88 17.0679 39.918 17.3861C39.63 17.3842 38.737 17.4019 38.513 17.373C38.477 17.3172 38.485 17.2344 38.487 17.1665C38.494 17.1386 38.494 16.9386 38.492 16.894C38.486 16.7637 38.513 16.7451 38.423 16.6614Z" fill="white"/>
<path d="M35.501 23.1479C35.938 23.133 36.454 23.1433 36.897 23.1423C36.8943 23.592 36.8953 24.0409 36.9 24.4893C36.456 24.4707 35.904 24.4865 35.446 24.4819C35.462 24.1479 35.431 23.4196 35.477 23.1479H35.501Z" fill="white"/>
<path d="M34.646 24.5274C34.9033 24.5225 35.161 24.5206 35.419 24.5219C35.417 24.92 35.397 25.5526 35.426 25.9386C34.89 25.9386 34.379 25.9126 33.862 25.9088C33.893 25.7349 33.954 25.3981 34.03 25.2446C34.166 24.9665 34.268 24.8409 34.365 24.5386L34.646 24.5274Z" fill="white"/>
<path d="M35.46 25.9712C35.923 25.9851 36.432 25.9805 36.897 25.9731C36.897 26.1777 36.913 27.1954 36.862 27.3126C36.789 27.3256 36.776 27.3256 36.702 27.3247C36.584 27.3089 36.429 27.3191 36.308 27.3228C36.153 27.3228 35.606 27.2056 35.457 27.1396C35.467 26.7535 35.462 26.3572 35.46 25.9712Z" fill="white"/>
<path d="M35.503 10.8223C35.753 10.8502 36.002 10.9265 36.25 10.9619C36.366 10.9786 36.502 10.9191 36.62 10.9498C36.987 11.0214 37.365 11.1581 37.73 11.2251C37.906 11.2819 38.067 11.2763 38.128 11.4502C38.226 11.4744 38.272 11.4949 38.363 11.533C38.386 11.6037 38.393 11.6214 38.4 11.6949C38.285 11.7423 37.138 11.7191 36.933 11.7181C36.935 11.6205 36.96 11.1749 36.908 11.1237C36.869 11.2167 36.893 11.6019 36.9 11.7209H35.448C35.464 11.4642 35.448 11.067 35.503 10.8223Z" fill="white"/>
<path d="M37.73 11.2251C37.906 11.2818 38.067 11.2763 38.128 11.4502C37.913 11.4177 37.748 11.4465 37.731 11.2251" fill="white"/>
<path d="M36.934 24.5209C37.244 24.5414 37.772 24.4986 38.037 24.5414C38.094 24.5842 38.076 24.5693 38.093 24.6577C38.046 24.7721 37.976 24.9293 37.938 25.0437C37.932 25.0958 37.916 25.1368 37.96 25.1749C38.048 25.2512 38.315 25.2986 38.429 25.3163C38.435 25.5209 38.4384 25.7259 38.439 25.9312L36.931 25.934C36.937 25.4627 36.938 24.9923 36.934 24.5209Z" fill="white"/>
<path d="M39.955 27.3516C40.42 27.3721 40.991 27.3628 41.457 27.3516C41.4663 27.8422 41.4623 28.3324 41.445 28.8223C41.325 28.7702 41.202 28.7265 41.079 28.6819C41.082 28.6353 41.086 28.6353 41.065 28.5935C40.873 28.4819 40.225 28.3498 39.954 28.2772L39.955 27.3516Z" fill="white"/>
<path d="M33.925 26.0121C34.06 25.9526 35.163 25.973 35.418 25.9721C35.418 26.3597 35.4153 26.7476 35.41 27.1358C35.263 27.0986 34.568 26.9181 34.462 26.9051C34.138 26.7126 33.993 26.3507 33.925 26.0121Z" fill="white"/>
<path d="M33.952 11.0735C34.604 10.8893 34.736 10.893 35.402 10.8568C35.435 11.0772 35.409 11.4577 35.429 11.7219C34.933 11.7209 34.417 11.7265 33.923 11.7172V11.3972C33.938 11.3265 33.946 11.1535 33.952 11.0735Z" fill="white"/>
<path d="M37.938 25.0437C39.166 25.3637 40.453 25.6511 41.665 25.9814C41.633 26.0409 41.633 26.0437 41.584 26.0967L41.5 26.093L41.47 26.0744C41.25 26.0344 41 26 40.788 25.9395C40.692 25.8958 40.671 25.8837 40.568 25.8632C40.3766 25.8105 40.185 25.7584 39.993 25.707L39.909 25.6856C39.905 25.7637 39.909 25.8549 39.911 25.9349C39.437 25.9339 38.948 25.9256 38.475 25.933C38.475 25.8177 38.455 25.4 38.515 25.3423C38.499 25.333 38.449 25.3218 38.428 25.3163C38.314 25.2977 38.047 25.2511 37.958 25.1749C37.915 25.1377 37.931 25.0958 37.938 25.0437Z" fill="white"/>
<path d="M37.938 25.0437C39.166 25.3637 40.453 25.6511 41.665 25.9814C41.633 26.0409 41.633 26.0437 41.584 26.0967L41.5 26.093L41.47 26.0744C41.25 26.0344 41 26 40.788 25.9395C40.692 25.8958 40.671 25.8837 40.568 25.8632C40.3766 25.8105 40.185 25.7584 39.993 25.707L39.909 25.6856C39.437 25.5758 38.985 25.4577 38.516 25.3414C38.499 25.333 38.449 25.3218 38.428 25.3163C38.314 25.2977 38.047 25.2511 37.958 25.1749C37.915 25.1377 37.931 25.0958 37.938 25.0437Z" fill="white"/>
<path d="M38.483 27.3563C38.959 27.3662 39.435 27.3653 39.911 27.3535C39.909 27.4782 39.923 28.2149 39.856 28.2549C39.411 28.1368 38.927 28.0205 38.475 27.9042C38.479 27.7213 38.4816 27.5383 38.483 27.3554" fill="white"/>
<path d="M35.025 23.2614C35.227 23.1981 35.175 23.1665 35.422 23.1358C35.418 23.591 35.42 24.0456 35.428 24.4995C35.168 24.4989 34.908 24.4955 34.648 24.4893L34.646 24.5265L34.365 24.5386C34.412 24.4167 34.453 24.3135 34.509 24.1944C34.658 23.9898 34.94 23.4967 35.025 23.2614Z" fill="white"/>
<path d="M34.51 24.1953C34.522 24.2884 34.536 24.3777 34.585 24.4595L34.649 24.4893L34.646 24.5265L34.365 24.5386C34.412 24.4167 34.453 24.3135 34.509 24.1944" fill="white"/>
<path d="M39.955 18.8651C40.203 18.8713 40.4517 18.8766 40.701 18.8809C40.474 19.5628 40.318 20.3498 40.076 21.0186C40.023 21.0056 40.04 21.013 39.997 20.9842C39.933 20.8595 39.949 20.4195 39.946 20.2521C40.023 20.2512 40.099 20.2614 40.159 20.2288C40.093 20.1991 40.026 20.2074 39.952 20.2084L39.955 18.8651Z" fill="white"/>
<path d="M34.462 26.9051C34.568 26.9181 35.263 27.0986 35.41 27.1358L35.457 27.1395C35.606 27.2056 36.153 27.3218 36.307 27.3228C36.325 27.3274 36.628 27.4186 36.6 27.4149C36.726 27.4679 36.795 27.4874 36.93 27.5163C37.371 27.6493 37.923 27.7702 38.378 27.88C38.42 27.893 38.431 27.8976 38.475 27.9042C38.927 28.0204 39.411 28.1367 39.856 28.2549L39.954 28.2772C40.224 28.3497 40.873 28.4818 41.065 28.5935C41.086 28.6353 41.082 28.6353 41.079 28.6818C40.732 28.5739 40.094 28.44 39.711 28.3423L36.067 27.413C35.627 27.2986 35.181 27.2158 34.752 27.0818C34.6387 27.0507 34.5378 26.9893 34.462 26.9051Z" fill="white"/>
<path d="M33.923 13.2C34.283 13.2372 35.037 13.2149 35.42 13.213V13.2316C35.418 13.3349 35.428 13.4028 35.385 13.4958C34.756 13.6037 34.442 13.72 33.93 14.0521C33.91 13.814 33.922 13.4475 33.923 13.2Z" fill="white"/>
<path d="M36.93 27.5163C36.939 27.4511 36.93 27.4046 36.97 27.3684C37.397 27.3414 37.984 27.3646 38.435 27.3563C38.4337 27.5256 38.4303 27.6949 38.425 27.8642C38.388 27.8809 38.405 27.8781 38.378 27.88C37.923 27.7702 37.371 27.6493 36.93 27.5163Z" fill="white"/>
<path d="M32.309 11.8419C32.749 11.5135 33.446 11.2884 33.952 11.0735C33.946 11.1535 33.938 11.3265 33.923 11.3972C33.923 11.3405 33.931 11.2716 33.901 11.227C33.863 11.2967 33.869 11.6205 33.87 11.7088C33.681 11.7088 32.997 11.6995 32.86 11.7405L32.858 11.7619L32.937 11.7749C32.822 11.7879 32.381 11.8493 32.309 11.8419Z" fill="white"/>
<path d="M38.4246 16.6613C38.5142 16.7446 38.4875 16.764 38.4937 16.8935C38.4958 16.9384 38.4956 17.1379 38.4886 17.1664L38.4683 17.1063C38.4106 17.1198 38.4101 17.4007 38.266 17.3727C38.2525 17.2423 38.3189 17.11 38.2859 17.0028C38.3556 16.9049 38.3919 16.7737 38.4246 16.6613Z" fill="white"/>
<path d="M40.57 25.8632C40.487 25.9321 40.028 25.9823 39.951 25.8586C39.958 25.7619 39.941 25.7628 39.994 25.707C40.186 25.7584 40.378 25.8105 40.57 25.8632Z" fill="white"/>
<path d="M36.3096 27.3219C36.4311 27.3181 36.5859 27.3082 36.703 27.3241C36.7914 27.3403 36.8302 27.3705 36.8673 27.3669C36.7702 27.4005 36.6771 27.3638 36.6018 27.414C36.6302 27.4172 36.3266 27.3261 36.3096 27.3219Z" fill="white"/>
<path d="M36.94 20.2549C37.432 20.2456 37.945 20.2502 38.44 20.2484C38.439 20.7042 38.428 21.2065 38.445 21.6595C37.975 21.6428 37.405 21.6577 36.928 21.6586C36.944 21.2065 36.934 20.7125 36.939 20.2539" fill="white"/>
<path d="M36.937 21.693C37.396 21.7153 37.976 21.7004 38.44 21.6976C38.4347 22.1696 38.438 22.6415 38.45 23.1135C38.014 23.0865 37.38 23.1014 36.933 23.1042L36.937 21.693Z" fill="white"/>
<path d="M36.935 11.7554C37.435 11.7641 37.9347 11.7656 38.434 11.76C38.44 12.2261 38.43 12.707 38.448 13.1703C37.969 13.1544 37.416 13.1647 36.932 13.1637L36.935 11.7554Z" fill="white"/>
<path d="M33.922 11.7554C34.381 11.7814 34.957 11.7628 35.42 11.7554C35.4153 12.2298 35.4143 12.703 35.417 13.1749C34.947 13.1563 34.401 13.1675 33.923 13.1628C33.925 12.694 33.924 12.2248 33.922 11.7554Z" fill="white"/>
<path d="M35.457 11.7516C35.85 11.7861 36.487 11.7637 36.896 11.7563C36.89 12.2214 36.896 12.6958 36.897 13.1619C36.813 13.174 36.487 13.1693 36.389 13.1684C36.079 13.1653 35.769 13.1665 35.459 13.1721C35.4617 12.6989 35.461 12.2254 35.457 11.7516Z" fill="white"/>
<path d="M35.46 24.5209C35.86 24.5507 36.484 24.5302 36.896 24.5265C36.891 24.9767 36.881 25.4912 36.903 25.9395C36.488 25.9172 35.881 25.934 35.453 25.933C35.473 25.493 35.46 24.9656 35.461 24.5209" fill="white"/>
<path d="M38.482 17.4214C38.952 17.4279 39.443 17.4195 39.915 17.4177C39.894 17.8623 39.905 18.3777 39.906 18.827C39.45 18.8149 38.934 18.8251 38.474 18.827C38.482 18.3591 38.473 17.8912 38.482 17.4214Z" fill="white"/>
<path d="M36.934 25.9684C37.338 25.9991 38.016 25.9777 38.435 25.974C38.432 26.4084 38.427 26.8809 38.442 27.3135C37.984 27.2949 37.419 27.3191 36.939 27.3107C36.931 26.8679 36.935 26.413 36.934 25.9684Z" fill="white"/>
<path d="M38.475 13.1981C38.893 13.24 39.5 13.2102 39.927 13.1944C39.927 13.639 39.897 14.0744 39.909 14.5246L39.899 14.5386C39.775 14.5739 38.691 14.5497 38.471 14.5516C38.491 14.1358 38.478 13.6186 38.475 13.1981Z" fill="white"/>
<path d="M38.48 18.8633C38.886 18.8893 39.488 18.8698 39.906 18.867L39.901 20.2112H38.476C38.4807 19.7622 38.482 19.3135 38.48 18.8633Z" fill="white"/>
<path d="M38.482 25.9721C38.917 25.9907 39.464 25.9768 39.907 25.9768C39.905 26.4109 39.9057 26.8453 39.909 27.28L39.905 27.2884C39.843 27.333 38.655 27.3107 38.477 27.3051L38.482 25.9721Z" fill="white"/>
<path d="M30.902 13.1972C31.205 13.2446 32.002 13.2214 32.322 13.2112V14.5395C31.966 14.5674 31.281 14.5488 30.906 14.5479C30.89 14.12 30.905 13.6326 30.902 13.1972Z" fill="white"/>
<path d="M26.379 43.9228C27.073 43.6224 27.584 43.2214 28.192 42.801L29.892 41.6317L36.592 37.0075L40.211 34.5163C40.989 33.9749 41.639 33.6093 42.304 32.9442C42.526 33.0605 44.116 33.0168 44.466 33.0093C44.466 33.4503 44.45 33.9824 44.467 34.4149L41.492 34.4112C41.492 34.3293 41.497 34.0921 41.475 34.027C41.4649 34.1231 41.4603 34.2197 41.461 34.3163C41.465 34.774 41.429 35.2503 41.467 35.7061L41.478 35.7107C41.525 35.4103 41.502 34.7851 41.501 34.4549C41.934 34.4865 42.481 34.4661 42.923 34.4558L42.921 35.2456C42.921 35.3944 42.933 35.6289 42.911 35.7703C42.775 35.8335 41.704 35.787 41.45 35.8037C41.436 36.2493 41.43 36.7972 41.454 37.2456C40.955 37.2426 40.456 37.242 39.957 37.2437C39.959 36.7427 39.958 36.2416 39.954 35.7405C39.952 35.5107 39.963 35.254 39.944 35.0279L39.933 35.0186C39.893 35.3284 39.917 35.5731 39.913 35.8782C39.909 36.3358 39.895 36.787 39.909 37.2456L38.479 37.2428C38.48 37.0782 38.494 36.1107 38.459 36.0131C38.419 36.2484 38.427 36.9833 38.438 37.2456L37.449 37.2419C37.285 37.2419 37.013 37.2298 36.863 37.254L36.844 37.2726L36.894 37.294C36.904 37.4242 36.888 37.5247 36.891 37.6484C36.899 37.987 36.88 38.3572 36.896 38.6921C36.428 38.6921 35.879 38.6996 35.418 38.6726C35.417 39.0949 35.399 39.6633 35.421 40.0772C34.9193 40.0733 34.4177 40.073 33.916 40.0763C33.917 39.8261 33.925 39.5665 33.906 39.3182L33.896 39.3117L33.898 39.3144C33.858 39.4075 33.873 39.9507 33.878 40.0772C33.671 40.0754 32.636 40.0568 32.522 40.0996C32.782 40.1442 33.575 40.121 33.872 40.1172C33.872 40.5805 33.864 41.0605 33.879 41.5219H32.374C32.375 41.3265 32.389 40.4084 32.356 40.2698C32.313 40.5033 32.326 41.2586 32.334 41.5228L30.895 41.52C30.893 41.4354 30.895 41.3479 30.872 41.2679C30.8433 41.8139 30.8393 42.3607 30.86 42.907C30.3513 42.9039 29.843 42.9039 29.335 42.907C29.16 42.907 28.723 42.9005 28.575 42.9256C28.638 42.9665 29.201 42.9498 29.313 42.947C29.313 43.3963 29.3 43.9098 29.318 44.3544C28.626 44.3482 27.934 44.3467 27.242 44.3498C26.952 44.3517 26.615 44.3433 26.331 44.3535C26.333 44.174 26.327 44.0968 26.379 43.9228Z" fill="white"/>
<path d="M41.665 25.9814C41.936 26.0539 42.245 26.1005 42.425 26.3014C43.562 26.6921 44.811 27.813 45.298 28.8465C45.516 29.3098 45.693 29.7609 45.811 30.2577C45.864 30.4809 45.748 30.5795 45.875 30.7023C45.891 30.9116 45.75 30.9395 45.899 31.1116C45.92 31.1377 45.882 31.5674 45.881 31.626C45.819 32.0307 45.678 32.4605 45.561 32.8512C45.405 33.3668 45.2616 33.8857 45.131 34.4074C44.921 34.4149 44.727 34.4139 44.518 34.4112V33.0065C44.653 33.0177 45.288 33.0409 45.368 32.9805C45.327 32.9563 44.628 32.9646 44.518 32.9646L44.519 31.6251C44.681 31.6456 45.527 31.6437 45.733 31.6381L45.766 31.6195V31.6344L45.802 31.627L45.779 31.6112L45.769 31.6242L45.744 31.6251L45.737 31.6046C45.416 31.5749 44.859 31.586 44.517 31.5805L44.519 30.1777C44.676 30.1944 45.522 30.2195 45.61 30.147C45.253 30.1312 44.875 30.1358 44.515 30.1339V28.7972C44.606 28.8018 44.872 28.8223 44.945 28.7814C44.531 28.7023 43.179 28.8195 42.969 28.7302C42.969 28.3618 42.972 27.9925 42.962 27.6242C42.9565 27.521 42.9571 27.4175 42.964 27.3144C42.482 27.3144 41.975 27.3209 41.496 27.307L41.501 26.093L41.584 26.0967C41.634 26.0437 41.634 26.0409 41.665 25.9814Z" fill="white"/>
<path d="M41.665 25.9814C41.936 26.0539 42.245 26.1005 42.425 26.3014C42.255 26.3014 41.778 26.1507 41.584 26.0967C41.634 26.0437 41.634 26.0409 41.665 25.9814Z" fill="white"/>
<path d="M14.53 28.8028C14.9187 28.8096 15.307 28.8109 15.695 28.8065C15.693 29.1414 15.681 29.5228 15.691 29.853C15.701 29.9386 15.694 30.1237 15.721 30.1619C15.784 30.1907 15.846 30.1879 15.917 30.1916C15.848 30.1916 15.815 30.1833 15.757 30.2102C15.725 30.4614 15.742 31.2949 15.737 31.5963L15.705 31.6214C15.845 31.667 17.011 31.6354 17.238 31.6288C17.241 31.9814 17.268 32.6223 17.243 32.9516C17.163 32.9981 17.124 32.9498 17.098 32.9981C17.138 33.0307 17.144 33.0279 17.196 33.0428C17.236 33.0949 17.249 33.1749 17.266 33.24L17.264 33.2195L17.277 33.2344L17.283 33.0233C17.763 33.0149 18.233 33.0214 18.714 33.0093C18.712 33.293 18.688 33.8512 18.712 34.1144C18.533 34.0586 18.366 34.027 18.182 33.9609C16.9727 33.5293 15.9536 32.7335 15.287 31.7005C14.952 31.1842 14.334 29.7526 14.49 29.1591C14.542 29.0363 14.538 28.9321 14.53 28.8028Z" fill="white"/>
<path d="M15.691 29.853C15.701 29.9386 15.694 30.1237 15.721 30.1619C15.784 30.1907 15.846 30.1879 15.917 30.1916C15.848 30.1916 15.815 30.1833 15.757 30.2102C15.725 30.4614 15.742 31.2949 15.737 31.5963L15.705 31.6214C15.672 31.5284 15.701 30.3786 15.689 30.1888C15.5331 30.1943 15.377 30.1956 15.221 30.1926C15.343 30.1805 15.604 30.1842 15.681 30.1479C15.691 30.053 15.69 29.9498 15.691 29.853Z" fill="white"/>
<path d="M15.221 30.1925C15.111 30.1935 14.804 30.2037 14.732 30.1581C14.795 30.1218 15.561 30.1386 15.682 30.1488C15.604 30.1842 15.342 30.1805 15.221 30.1925Z" fill="white"/>
<path d="M33.918 42.946C34.391 42.9628 34.92 42.9516 35.398 42.9498C35.396 43.0242 35.384 43.1135 35.418 43.1777C35.145 43.3879 34.764 43.6316 34.471 43.8307L33.117 44.7656L31.765 45.7005C31.532 45.8623 31.199 46.1079 30.959 46.2456C30.883 46.1433 30.896 45.9051 30.894 45.773C31.004 45.7749 31.097 45.7805 31.204 45.7591L31.191 45.7609C31.128 45.7284 30.974 45.7423 30.892 45.7423C30.8986 45.2927 30.902 44.8428 30.902 44.3926C31.26 44.4093 31.632 44.3963 31.992 44.4019C32.393 44.4065 32.804 44.4065 33.203 44.3805C33.259 44.3767 33.178 44.3674 33.249 44.3786C33.154 44.3423 32.521 44.3516 32.373 44.3516L32.377 42.947C32.842 42.9674 33.405 42.9526 33.875 42.9488C33.873 43.1656 33.861 43.7163 33.897 43.9079C33.923 43.8577 33.918 43.0707 33.918 42.946Z" fill="white"/>
<path d="M19.097 44.4437C19.224 44.3675 20.039 44.3972 20.256 44.3944C20.256 44.7907 20.236 45.3591 20.256 45.7433C20.07 45.7414 19.784 45.7312 19.606 45.7526L19.596 45.7647C19.751 45.7879 20.167 45.7814 20.339 45.7814L21.799 45.7796C21.799 46.1693 21.779 46.813 21.807 47.1861C21.653 47.1851 20.802 47.1637 20.723 47.2149C21.049 47.2409 21.476 47.2279 21.807 47.2242C21.809 47.4884 21.852 48.2363 21.733 48.4363C21.3875 48.2281 21.064 47.9898 20.767 47.7247C19.885 46.934 19.105 45.6103 19.097 44.4437Z" fill="white"/>
<path d="M21.853 41.5628C22.073 41.5693 22.313 41.5675 22.533 41.5684C22.603 41.6605 22.538 41.7051 22.648 41.8242C22.643 42.2689 23.248 43.1079 23.606 43.4168C23.691 43.4902 23.866 43.5656 23.964 43.6344C24.046 43.6902 23.95 43.72 24.038 43.7516C24.15 43.7926 24.258 43.8084 24.372 43.8521C24.616 43.9144 24.901 43.9786 25.14 44.0475C25.047 44.1237 25 44.1126 24.883 44.1377L24.838 44.1228C24.822 44.1833 24.824 44.2847 24.823 44.3498L21.849 44.3507L21.853 41.5628Z" fill="white"/>
<path d="M24.372 43.8511C24.616 43.9144 24.901 43.9786 25.14 44.0474C25.047 44.1237 25 44.1125 24.883 44.1376L24.838 44.1228C24.669 43.9721 24.434 44.1311 24.372 43.8511Z" fill="white"/>
<path d="M44.46 35.7953L44.52 35.7693C44.593 35.7739 44.66 35.7795 44.734 35.7786C44.6696 35.9575 44.5837 36.1292 44.478 36.2902C43.931 37.1442 43.478 37.6279 42.611 38.2195C42.39 38.3702 42.201 38.5228 41.958 38.6632C41.79 38.7842 41.618 38.9107 41.444 39.0223C41.433 38.9637 41.437 38.8018 41.436 38.7358L41.443 38.6874L41.448 38.667L41.502 38.68C41.474 38.2939 41.497 37.6818 41.5 37.2846C41.936 37.3014 42.387 37.2921 42.824 37.2893C42.944 37.2884 43.337 37.2893 43.437 37.2679C43.283 37.2381 43.129 37.2446 42.972 37.2456C42.955 36.7842 42.99 36.306 42.962 35.8335L42.959 35.8056C43.44 35.7832 43.97 35.8056 44.46 35.7953Z" fill="white"/>
<path d="M44.46 35.7953L44.52 35.7693C44.593 35.7739 44.66 35.7795 44.734 35.7786C44.6696 35.9575 44.5837 36.1292 44.478 36.2902C44.442 36.1553 44.458 35.9851 44.463 35.8437C43.988 35.8437 43.43 35.8539 42.963 35.8344L42.959 35.8065C43.44 35.7832 43.97 35.8056 44.46 35.7953Z" fill="white"/>
<path d="M41.502 38.6791C41.668 38.6809 41.872 38.6233 41.958 38.6633C41.79 38.7842 41.618 38.9107 41.444 39.0223C41.433 38.9637 41.437 38.8019 41.436 38.7358L41.443 38.6875L41.448 38.667L41.502 38.6791Z" fill="white"/>
<path d="M38.482 38.7293C38.836 38.7572 39.28 38.7423 39.635 38.7405L41.436 38.7358C41.436 38.8019 41.433 38.9637 41.444 39.0223C40.691 39.5191 39.955 40.0651 39.202 40.5665C38.977 40.7154 38.752 40.8921 38.527 41.0363C38.454 40.8502 38.479 40.3433 38.479 40.1154C38.774 40.1302 39.096 40.1247 39.391 40.1042C39.447 40.1005 39.379 40.0968 39.451 40.1023C39.341 40.0642 38.625 40.0744 38.478 40.0754L38.482 38.7293Z" fill="white"/>
<path d="M19.968 40.0288L20.018 40.0753C20.085 40.1535 20.15 40.1302 20.258 40.1256C20.253 40.5758 20.242 41.0716 20.256 41.5209C20.108 41.519 19.702 41.4986 19.585 41.5395L19.587 41.5563C19.736 41.5804 20.087 41.5656 20.254 41.5637C20.253 41.9963 20.242 42.479 20.26 42.906C20.08 42.906 19.279 42.8828 19.193 42.9339C19.353 42.96 20.062 42.9507 20.256 42.9497C20.254 43.3972 20.241 43.9116 20.259 44.3525C19.905 44.3525 19.388 44.3656 19.049 44.346C19.075 44.1786 19.032 44.1079 19.026 43.9479C19.022 43.8623 19.093 43.7042 19.086 43.613C19.077 43.5265 19.006 43.4614 19.029 43.3665C19.295 42.2474 19.715 41.1488 19.968 40.0288Z" fill="white"/>
<path d="M26.337 47.2224C26.773 47.2475 27.39 47.2289 27.835 47.2242C27.835 47.4084 27.806 48.2447 27.853 48.3572C26.94 48.9386 26.417 49.0735 25.338 49.2391C25.148 49.267 25.045 49.2093 24.918 49.2298C24.818 49.1163 24.865 48.7693 24.874 48.6065C25.342 48.6224 25.864 48.6112 26.336 48.6093C26.354 48.1861 26.337 47.6549 26.337 47.2224Z" fill="white"/>
<path d="M17.288 25.9656L17.314 25.9684C17.505 25.987 17.921 25.9312 18.017 26.0335L18.022 26.1163C18.027 26.1535 18.076 26.2586 18.077 26.2112C18.069 26.72 18.181 27.2335 18.448 27.6791C18.533 27.8205 18.664 27.9274 18.748 28.08C18.718 28.2409 18.718 28.5823 18.713 28.7553C18.259 28.7581 17.738 28.7712 17.289 28.7516C17.2923 28.2846 17.2926 27.8177 17.29 27.3507C17.387 27.36 18.032 27.3702 18.07 27.3293C17.867 27.2958 17.506 27.306 17.288 27.307C17.28 26.8688 17.288 26.4065 17.288 25.9656Z" fill="white"/>
<path d="M15.135 25.9665C15.157 25.959 15.605 25.973 15.701 25.959C15.681 26.3125 15.68 26.9544 15.7 27.3107C15.435 27.3107 15.038 27.2995 14.784 27.3181L14.777 27.3311C14.949 27.387 15.482 27.3609 15.695 27.3544C15.693 27.8167 15.684 28.3023 15.696 28.7618C15.299 28.7563 14.853 28.7804 14.464 28.7404C14.469 28.7256 14.477 28.6753 14.48 28.6614L14.423 28.5851C14.393 28.4521 15.047 26.2316 15.135 25.9665Z" fill="white"/>
<path d="M20.308 33.0074C20.758 33.0363 21.343 33.0167 21.799 33.0102C21.864 33.5628 21.757 34.3544 21.802 34.8847C21.3285 34.7623 20.8538 34.6438 20.378 34.5293L20.367 34.4726L20.415 34.4437L20.389 34.4326L20.386 34.4512L20.374 34.4288L20.301 34.4177C20.288 33.973 20.305 33.4567 20.308 33.0074Z" fill="white"/>
<path d="M21.8 33.0103C21.864 33.5628 21.757 34.3544 21.802 34.8847C21.3285 34.7623 20.8538 34.6438 20.378 34.5293L20.367 34.4726L20.415 34.4437L20.389 34.4326L20.386 34.4512L20.374 34.4289L20.301 34.4177C20.663 34.3665 21.397 34.4056 21.791 34.4084C21.784 34.1089 21.772 33.2744 21.799 33.0103" fill="white"/>
<path d="M21.938 36.0093C21.958 35.9479 21.968 35.8893 22.018 35.8511C22.289 35.8205 22.961 35.8437 23.273 35.84C23.273 36.2623 23.255 36.8353 23.279 37.2446C23.117 37.2446 21.908 37.2577 21.847 37.2251C21.7447 37.2553 21.6369 37.2661 21.53 37.2567C21.381 37.24 21.375 37.2177 21.292 37.1246C21.434 36.9358 21.662 36.4735 21.778 36.2484C21.837 36.1339 21.82 35.9563 21.896 35.8753C21.908 35.9206 21.922 35.9659 21.938 36.0093Z" fill="white"/>
<path d="M21.896 35.8754C21.908 35.9206 21.922 35.965 21.938 36.0084C21.838 36.4809 21.906 36.8205 21.848 37.2251C21.7454 37.2555 21.6372 37.2662 21.53 37.2568C21.381 37.24 21.375 37.2177 21.292 37.1247C21.434 36.9358 21.662 36.4735 21.778 36.2484C21.837 36.134 21.82 35.9563 21.896 35.8754Z" fill="white"/>
<path d="M24.875 30.2205C25.26 30.2781 26.131 30.5888 26.452 30.586C26.802 30.7432 26.972 31.0102 27.095 31.3414L27.144 31.4791C27.12 31.5256 27.131 31.5107 27.092 31.5488C26.942 31.6093 26.512 31.586 26.333 31.5832C26.333 31.3135 26.365 30.9693 26.324 30.7088H26.312C26.269 30.9079 26.292 31.36 26.295 31.587C25.826 31.5777 25.335 31.5842 24.864 31.5805C24.856 31.1442 24.867 30.6586 24.875 30.2205Z" fill="white"/>
<path d="M21.85 47.2242C22.324 47.2329 22.798 47.2335 23.272 47.226C23.272 47.4344 23.284 48.4493 23.255 48.5609L23.235 48.5926C23.28 48.6484 23.285 48.9228 23.248 48.9777C23.136 48.9898 23.077 48.9619 22.965 48.9488C22.617 48.8967 22.392 48.7721 22.083 48.6233C21.983 48.5777 21.924 48.5526 21.831 48.4912C21.872 48.4009 21.851 47.3898 21.85 47.2242Z" fill="white"/>
<path d="M22.0833 48.622C22.3003 48.5342 23.0024 48.5435 23.2556 48.5587L23.2367 48.5908C23.2809 48.646 23.2854 48.9208 23.2487 48.9761C23.1368 48.9875 23.0775 48.9598 22.9658 48.9466C22.6175 48.895 22.3929 48.7706 22.0833 48.622Z" fill="white"/>
<path d="M43.014 31.6372C43.502 31.6372 43.977 31.6409 44.466 31.6298C44.464 31.946 44.438 32.6781 44.473 32.9674C44.065 32.9674 43.376 32.9888 42.995 32.9628C42.979 32.9219 42.981 32.9321 42.975 32.8893C42.9529 32.9098 42.9334 32.9325 42.917 32.9572C42.762 32.9916 42.694 33.0232 42.566 32.92C42.524 32.8586 42.545 32.7898 42.554 32.7153C42.561 32.6809 42.634 32.5191 42.651 32.4772C42.694 32.4809 42.692 32.4791 42.736 32.4744C42.824 32.3888 42.868 32.1926 42.903 32.0744C42.935 31.9321 42.966 31.7749 43.014 31.6372Z" fill="white"/>
<path d="M42.9048 32.0739C42.9726 32.1289 42.9792 32.1353 42.9824 32.2327C42.989 32.4297 42.9956 32.6926 42.9775 32.8883C42.9549 32.9095 42.9356 32.9301 42.9191 32.9558C42.7641 32.9903 42.6963 33.0223 42.5678 32.9195C42.5264 32.857 42.5468 32.7891 42.5564 32.7134C42.5632 32.6801 42.6356 32.5174 42.6535 32.4763C42.6966 32.4798 42.6942 32.4781 42.7377 32.4734C42.8259 32.3881 42.8697 32.1917 42.9048 32.0739Z" fill="white"/>
<path d="M36.937 40.1163C37.403 40.1377 37.967 40.1209 38.438 40.1172C38.438 40.3284 38.408 40.9321 38.432 41.1014C37.998 41.4065 37.503 41.7609 37.054 42.0419C36.901 41.9302 36.931 41.7321 36.927 41.5619C37.044 41.5637 37.145 41.5637 37.262 41.5591L37.287 41.5339C37.325 41.5377 37.311 41.5302 37.333 41.5498C37.326 41.546 37.297 41.5507 37.287 41.5525L37.273 41.5274C37.191 41.5181 37.021 41.5228 36.93 41.5228C36.938 41.0539 36.9403 40.5851 36.937 40.1163Z" fill="white"/>
<path d="M19.968 40.0288C20.066 39.6949 20.264 38.8418 20.494 38.6195L20.509 38.6772L20.513 38.7265C20.797 38.7683 21.482 38.7404 21.799 38.7339C21.799 39.1665 21.789 39.6456 21.804 40.0753C21.44 40.0725 20.654 40.0976 20.337 40.066C20.31 40.0335 20.317 40.0483 20.308 40.026L20.302 39.9814L20.286 39.9739L20.283 39.9088L20.28 39.946C20.276 39.9953 20.271 40.0074 20.256 40.0549C20.192 40.0902 20.106 40.0669 20.017 40.0753L19.968 40.0288Z" fill="white"/>
<path d="M19.9686 40.0273C20.0667 39.6936 20.2647 38.8401 20.4946 38.6178L20.5095 38.6761L20.5132 38.7252C20.375 38.942 20.3223 39.7466 20.3091 40.0244L20.3027 39.9797L20.2866 39.9723L20.284 39.9077L20.281 39.944C20.2764 39.9942 20.272 40.0063 20.2565 40.0538C20.1929 40.0888 20.1063 40.0657 20.018 40.0734L19.9686 40.0273Z" fill="white"/>
<path d="M24.803 35.8465C24.853 35.8614 25.057 35.8465 25.183 35.8744C25.081 36.0884 24.955 36.347 24.829 36.5497C24.773 36.667 24.527 37.1637 24.458 37.2521C24.351 37.2223 23.494 37.2446 23.317 37.2446C23.3143 36.7764 23.3177 36.3079 23.327 35.8391C23.822 35.8539 24.31 35.8381 24.803 35.8465Z" fill="white"/>
<path d="M24.803 35.8465C24.853 35.8614 25.057 35.8465 25.183 35.8744C25.081 36.0884 24.955 36.347 24.829 36.5498C24.798 36.4521 24.808 35.9944 24.803 35.8465Z" fill="white"/>
<path d="M39.958 37.2837C40.411 37.3116 40.993 37.293 41.454 37.2865C41.4633 37.7473 41.4613 38.2074 41.448 38.6669L41.443 38.6874C40.983 38.7042 40.427 38.693 39.959 38.6939L39.958 37.2837Z" fill="white"/>
<path d="M15.917 30.1916C16.367 30.1991 16.791 30.1888 17.24 30.1823C17.238 30.5023 17.213 31.3032 17.246 31.586C16.787 31.5851 16.188 31.5674 15.737 31.5972C15.742 31.2949 15.725 30.4623 15.757 30.2111C15.815 30.1832 15.848 30.1925 15.917 30.1925" fill="white"/>
<path d="M24.54 30.1693C24.632 30.1814 24.745 30.187 24.824 30.2251C24.794 30.3712 24.816 31.3656 24.818 31.5861C24.337 31.574 23.804 31.5842 23.318 31.5814C23.3153 31.1182 23.32 30.6546 23.332 30.1907C23.544 30.1926 24.377 30.2149 24.54 30.1693Z" fill="white"/>
<path d="M42.962 30.1953C43.4633 30.1985 43.9647 30.1938 44.466 30.1814C44.464 30.5051 44.439 31.307 44.474 31.586C44.254 31.5842 43.157 31.6047 43.029 31.5665C43.059 31.4428 43.107 31.3814 42.98 31.3172C42.98 31.2056 43.053 31.0605 43.02 30.9814L42.954 30.9972C42.931 30.9656 42.946 30.8735 42.951 30.8298C42.966 30.7107 42.951 30.6642 42.925 30.5507C43.021 30.4558 42.968 30.3228 42.962 30.1953Z" fill="white"/>
<path d="M27.89 45.7767C28.327 45.7991 28.868 45.7832 29.311 45.7795C29.312 46.1795 29.287 46.7749 29.314 47.1591L29.26 47.1898C29.16 47.1786 28.89 47.1832 28.78 47.1832C28.4777 47.1815 28.1753 47.1815 27.873 47.1832C27.886 46.72 27.866 46.2372 27.89 45.7767Z" fill="white"/>
<path d="M33.92 41.5628C34.418 41.569 34.916 41.569 35.414 41.5628C35.413 41.9879 35.392 42.5023 35.403 42.9172C35.24 42.8893 34.153 42.9061 33.916 42.9079C33.918 42.4707 33.93 41.9954 33.92 41.5628Z" fill="white"/>
<path d="M15.747 25.9702C16.133 25.9721 16.866 25.9935 17.232 25.9628C17.246 26.0623 17.235 26.2456 17.237 26.3507C17.242 26.6632 17.225 26.999 17.246 27.3079C16.755 27.3088 16.233 27.3172 15.745 27.3032L15.747 25.9702Z" fill="white"/>
<path d="M42.979 34.4558C43.444 34.4837 43.992 34.4679 44.464 34.4605C44.462 34.8958 44.451 35.3628 44.461 35.7953C43.971 35.8046 43.44 35.7833 42.959 35.8056C43.002 35.3963 42.958 34.8772 42.979 34.4558Z" fill="white"/>
<path d="M19.334 28.5582C19.396 28.5889 19.7 28.7703 19.684 28.7628C19.771 28.7879 19.878 28.814 19.96 28.8493C19.973 29.0605 20.106 28.9805 20.252 29.0661C20.2491 29.4227 20.2507 29.7793 20.257 30.1358H18.758C18.758 29.6912 18.76 29.2472 18.764 28.8037C18.966 28.8084 19.133 28.8121 19.334 28.7944L19.329 28.7442C19.334 28.6986 19.333 28.6075 19.334 28.5582Z" fill="white"/>
<path d="M19.334 28.5582C19.396 28.5889 19.7 28.7703 19.684 28.7628C19.5684 28.7817 19.4513 28.7922 19.334 28.7944L19.329 28.7442C19.334 28.6986 19.333 28.6075 19.334 28.5582Z" fill="white"/>
<path d="M18.765 33.0074C19.275 33.0233 19.748 33.0186 20.257 33.0093C20.263 33.3256 20.309 34.2335 20.196 34.4828C19.786 34.3572 19.167 34.2223 18.735 34.1154C18.776 34.0205 18.765 33.1805 18.765 33.0074Z" fill="white"/>
<path d="M24.871 33.0065C25.282 33.0363 25.869 33.0177 26.291 33.014C26.289 33.1479 26.29 33.2605 26.297 33.3935C26.29 33.493 26.267 33.6065 26.321 33.6893C26.234 33.894 26.111 34.1572 25.993 34.3498L25.956 34.3563C25.68 34.4493 25.186 34.4158 24.866 34.4121C24.8623 33.9439 24.864 33.4747 24.871 33.0065Z" fill="white"/>
<path d="M21.853 38.7302C22.263 38.7637 22.848 38.7432 23.271 38.7395C23.271 38.8809 23.271 38.9963 23.281 39.1367C23.263 39.3563 23.166 39.5181 23.154 39.6893C23.093 39.8056 23.062 39.8939 23.017 40.0158C22.685 40.1116 22.207 40.0772 21.851 40.0735L21.853 38.7302Z" fill="white"/>
<path d="M35.464 41.5609C35.9 41.5842 36.453 41.5684 36.895 41.5628C36.897 41.7302 36.868 42.0214 36.888 42.1646C36.632 42.3432 36.043 42.7786 35.794 42.9181C35.67 43.0062 35.545 43.093 35.419 43.1786C35.384 43.1135 35.396 43.0242 35.398 42.9498L35.403 42.9172L35.447 42.9256L35.477 42.8856C35.445 42.7535 35.463 41.7507 35.464 41.5609Z" fill="white"/>
<path d="M35.403 42.9172L35.447 42.9256L35.477 42.8856C35.59 42.8856 35.693 42.8762 35.794 42.9172C35.67 43.0065 35.545 43.0933 35.419 43.1776C35.384 43.1135 35.396 43.0242 35.398 42.9497L35.403 42.9172Z" fill="white"/>
<path d="M29.356 45.773C29.776 45.8046 30.418 45.7823 30.855 45.7749L30.845 46.3284C30.455 46.5925 29.943 46.9842 29.561 47.2195C29.5017 47.1973 29.4417 47.1768 29.381 47.1581C29.339 46.9572 29.356 46.0232 29.356 45.773Z" fill="white"/>
<path d="M21.852 34.4558C22.284 34.4912 22.83 34.467 23.272 34.4567C23.272 34.8893 23.263 35.3721 23.279 35.8C22.919 35.7991 22.519 35.8056 22.161 35.7888C22.193 35.6474 22.231 35.4549 22.279 35.3228C22.294 35.2586 22.367 35.107 22.397 35.0381C22.219 34.9944 22.017 34.9488 21.845 34.8912C21.865 34.7563 21.842 34.6028 21.852 34.4558Z" fill="white"/>
<path d="M21.167 37.3628C21.427 37.2884 21.527 37.2865 21.803 37.2856C21.8 37.6419 21.776 38.3702 21.809 38.6921C21.499 38.6921 20.789 38.7107 20.509 38.6772L20.494 38.6195C20.697 38.307 21.028 37.6958 21.167 37.3628Z" fill="white"/>
<path d="M20.31 29.0726C20.618 29.1377 21.524 29.3405 21.797 29.4502C21.797 29.5805 21.79 29.7637 21.797 29.8902C21.794 29.9693 21.797 30.0558 21.797 30.1358L20.305 30.133C20.3037 29.7795 20.3047 29.4261 20.31 29.0726Z" fill="white"/>
<path d="M21.852 40.1163C22.169 40.1256 22.516 40.1135 22.822 40.1256C22.832 40.1888 22.784 40.3172 22.779 40.4074C22.717 40.627 22.632 40.9712 22.555 41.1767C22.516 41.3032 22.516 41.3842 22.521 41.5163C22.318 41.5256 22.058 41.52 21.851 41.52L21.852 40.1163Z" fill="white"/>
<path d="M23.321 37.2837C23.657 37.3023 24.104 37.2372 24.401 37.3507C24.298 37.5516 24.188 37.7442 24.083 37.9432C23.983 38.1339 23.912 38.3656 23.779 38.5386C23.7401 38.5876 23.7088 38.6415 23.686 38.6986C23.635 38.6893 23.39 38.693 23.316 38.6912C23.347 38.3805 23.314 37.6419 23.321 37.2837Z" fill="white"/>
<path d="M24.87 34.4521C25.189 34.4809 25.63 34.4279 25.91 34.5153C25.749 34.8409 25.562 35.1488 25.396 35.4726C25.323 35.6139 25.275 35.6223 25.218 35.7888L24.868 35.8009C24.842 35.4614 24.866 34.8102 24.87 34.4521Z" fill="white"/>
<path d="M27.885 47.2233C28.311 47.2409 28.84 47.2279 29.273 47.2307L29.334 47.3702C28.909 47.6735 28.372 48.0661 27.922 48.3154C27.847 48.1312 27.881 47.4595 27.885 47.2233Z" fill="white"/>
<path d="M26.338 31.6242C26.641 31.6521 27.139 31.4977 27.149 31.8772C27.1057 32.1521 27.017 32.4191 26.886 32.6688C26.823 32.7804 26.766 32.8409 26.716 32.96C26.615 32.9553 26.443 32.9665 26.336 32.9702C26.33 32.5284 26.334 32.066 26.338 31.6242Z" fill="white"/>
<path d="M23.325 48.6111C23.8223 48.6161 24.3197 48.6149 24.817 48.6074C24.813 48.8009 24.783 49.1023 24.858 49.2707C24.65 49.2344 24.454 49.2744 24.221 49.2474C24.089 49.2316 23.761 49.1265 23.694 49.1525C23.329 48.9209 23.284 49.2111 23.325 48.6111Z" fill="white"/>
<path d="M19.96 28.8493C21.422 29.2335 22.936 29.5907 24.41 29.9619L25.604 30.2633C25.848 30.3256 26.094 30.3833 26.331 30.466C26.407 30.493 26.418 30.5237 26.452 30.586C26.132 30.5888 25.26 30.2781 24.875 30.2205L24.825 30.2251C24.745 30.187 24.632 30.1814 24.54 30.1693C24.484 30.1488 24.39 30.1042 24.333 30.0781C24.229 30.0809 23.503 29.8707 23.351 29.8307L23.283 29.8279C23.057 29.7237 22.126 29.5154 21.853 29.4642L21.797 29.4502C21.524 29.3405 20.618 29.1367 20.311 29.0726L20.252 29.066C20.106 28.9805 19.972 29.0605 19.96 28.8493Z" fill="white"/>
<path d="M21.797 29.4503L21.853 29.4642C22.126 29.5154 23.057 29.7237 23.283 29.827C23.271 29.9479 23.271 30.0196 23.273 30.1405C23.09 30.1396 21.923 30.1544 21.843 30.107L21.827 30.1042C21.823 30.0093 21.823 29.9805 21.797 29.8903C21.79 29.7637 21.797 29.5805 21.797 29.4503Z" fill="white"/>
<path d="M21.797 29.4503L21.853 29.4642C21.857 29.6782 21.8537 29.8924 21.843 30.107L21.827 30.1042C21.823 30.0093 21.823 29.9805 21.797 29.8903C21.79 29.7637 21.797 29.5805 21.797 29.4503Z" fill="white"/>
<path d="M44.52 34.4558C44.654 34.466 45.02 34.4465 45.097 34.506C44.973 34.9181 44.86 35.3823 44.734 35.7786C44.66 35.7795 44.593 35.7739 44.52 35.7693C44.537 35.3758 44.516 34.867 44.52 34.4558Z" fill="white"/>
<path d="M25.14 44.0475C25.393 44.1088 25.915 44.0484 26.168 43.9916C26.303 44.1405 26.298 44.1544 26.305 44.3526L25.368 44.3507C25.249 44.3507 24.988 44.36 24.883 44.3414C24.843 44.2688 24.86 44.2214 24.883 44.1377C25 44.1135 25.047 44.1237 25.14 44.0475Z" fill="white"/>
<path d="M18.747 28.7516C18.747 28.6428 18.723 28.4279 18.803 28.3498C18.859 28.2949 18.92 28.3032 19.001 28.2939C19.109 28.3857 19.22 28.4738 19.334 28.5581C19.333 28.6074 19.334 28.6986 19.329 28.7442C19.106 28.7563 18.974 28.7628 18.747 28.7516Z" fill="white"/>
<path d="M23.351 29.8307C23.503 29.8707 24.229 30.0809 24.333 30.0781C24.213 30.1619 23.511 30.1358 23.329 30.1339C23.327 30.0446 23.316 29.9079 23.351 29.8307Z" fill="white"/>
<path d="M26.337 33.2884C26.362 33.2986 26.367 33.2977 26.395 33.3014C26.483 33.24 26.497 33.2214 26.6 33.2018C26.5087 33.3656 26.4157 33.528 26.321 33.6893C26.267 33.6056 26.291 33.493 26.297 33.3935C26.327 33.3535 26.313 33.3684 26.307 33.3004L26.337 33.2884Z" fill="white"/>
<path d="M26.337 33.2884C26.34 33.173 26.322 33.0791 26.439 33.0205C26.531 33.0186 26.573 33.0419 26.659 33.0735L26.6 33.2019C26.497 33.2214 26.483 33.2391 26.395 33.3014C26.367 33.2968 26.362 33.2986 26.337 33.2884Z" fill="white"/>
<path d="M29.314 47.1591L29.38 47.1581C29.4407 47.1767 29.5007 47.1972 29.56 47.2195L29.334 47.3702L29.274 47.2307L29.26 47.1898L29.314 47.1591Z" fill="white"/>
<path d="M20.302 30.1777C20.82 30.2316 21.292 30.1814 21.798 30.1842C21.798 30.56 21.775 31.2344 21.804 31.586L20.809 31.5823C20.686 31.5823 20.397 31.5758 20.291 31.5916L20.253 31.6019C20.285 31.6316 20.42 31.6326 20.48 31.6381C20.9 31.6456 21.377 31.6474 21.8 31.6288C21.8 32.0633 21.79 32.5386 21.807 32.9684L20.311 32.9647L20.26 32.973C19.82 32.9498 19.207 32.9665 18.755 32.9674C18.755 32.5209 18.7583 32.075 18.765 31.6298C19.069 31.6558 19.536 31.6419 19.845 31.6381C19.945 31.627 20.165 31.6344 20.228 31.6L20.259 31.534L20.285 31.5247C20.33 31.2456 20.27 30.5247 20.302 30.1777Z" fill="white"/>
<path d="M20.302 30.1777C20.82 30.2316 21.292 30.1814 21.798 30.1842C21.798 30.56 21.775 31.2344 21.804 31.586L20.809 31.5823C20.686 31.5823 20.397 31.5758 20.291 31.5916C20.33 31.4521 20.319 30.3619 20.301 30.1777" fill="white"/>
<path d="M20.48 31.6381C20.9 31.6456 21.377 31.6474 21.8 31.6288C21.8 32.0633 21.79 32.5386 21.807 32.9684L20.311 32.9647C20.302 32.6019 20.291 32.0186 20.319 31.6623C20.36 31.6288 20.412 31.6409 20.48 31.6381Z" fill="white"/>
<path d="M20.26 31.534L20.285 31.5247C20.33 31.2456 20.27 30.5247 20.302 30.1777C20.319 30.3619 20.33 31.4521 20.291 31.5916L20.253 31.6019C20.285 31.6316 20.42 31.6326 20.48 31.6381C20.41 31.6409 20.36 31.6288 20.319 31.6614C20.291 32.0186 20.302 32.6028 20.311 32.9647L20.26 32.973C20.247 32.8558 20.26 32.5953 20.261 32.467C20.2593 32.1901 20.2553 31.9131 20.249 31.6363C20.114 31.6401 19.979 31.6407 19.844 31.6381C19.945 31.627 20.164 31.6344 20.228 31.6L20.26 31.534Z" fill="white"/>
<path d="M24.81 44.4028L24.877 44.4L26.293 44.3963C26.296 44.8316 26.288 45.3005 26.299 45.7321C25.905 45.7321 25.455 45.7209 25.065 45.7358C24.617 45.7581 23.97 45.7442 23.515 45.7358C23.452 45.7339 23.38 45.7349 23.317 45.7339C23.32 45.3153 23.304 44.8009 23.332 44.3944C23.82 44.4121 24.32 44.3879 24.811 44.4037" fill="white"/>
<path d="M24.877 44.4L26.293 44.3963C26.296 44.8317 26.288 45.3005 26.299 45.7321C25.905 45.7321 25.455 45.721 25.065 45.7358C24.993 45.7312 24.944 45.733 24.877 45.7061C24.839 45.4977 24.872 44.6521 24.877 44.4Z" fill="white"/>
<path d="M24.81 44.4028L24.877 44.4C24.872 44.6521 24.839 45.4977 24.877 45.7061C24.944 45.733 24.993 45.7312 25.065 45.7358C24.617 45.7582 23.97 45.7442 23.515 45.7358C23.929 45.7163 24.395 45.7303 24.815 45.7284C24.814 45.2772 24.817 44.8605 24.81 44.4028Z" fill="white"/>
<path d="M24.826 47.2112L24.874 47.2242C25.3473 47.2329 25.8207 47.2335 26.294 47.2261L26.29 48.5693C26.017 48.5358 25.213 48.56 24.872 48.5526L24.818 48.5637C24.494 48.533 23.706 48.5619 23.322 48.5544C23.3114 48.1111 23.3134 47.6675 23.328 47.2242C23.58 47.2344 24.621 47.2456 24.826 47.2112Z" fill="white"/>
<path d="M24.874 47.2242C25.3473 47.2329 25.8207 47.2335 26.294 47.226L26.29 48.5693C26.017 48.5358 25.213 48.56 24.872 48.5526C24.856 48.1219 24.867 47.6549 24.874 47.2242Z" fill="white"/>
<path d="M24.826 47.2112L24.874 47.2242C24.867 47.6549 24.856 48.1219 24.872 48.5526L24.818 48.5637C24.805 48.374 24.823 48.0865 24.82 47.8865C24.817 47.7005 24.804 47.3814 24.826 47.2112Z" fill="white"/>
<path d="M26.337 45.7749C26.75 45.8056 27.408 45.7833 27.834 45.7786C27.834 46.1916 27.817 46.787 27.847 47.1833L26.332 47.1814C26.349 46.7405 26.336 46.2223 26.337 45.7749Z" fill="white"/>
<path d="M29.357 42.9479C29.835 42.9665 30.372 42.9535 30.853 42.9498C30.853 43.3665 30.835 43.9498 30.865 44.3544C30.405 44.3358 29.818 44.3507 29.352 44.3516C29.365 43.8977 29.355 43.4065 29.357 42.9479Z" fill="white"/>
<path d="M33.92 40.1154C34.374 40.1386 34.954 40.1219 35.414 40.1181C35.414 40.5693 35.403 41.0763 35.424 41.5228C34.961 41.5061 34.387 41.5209 33.915 41.5209C33.9203 41.0521 33.922 40.5836 33.92 40.1154Z" fill="white"/>
<path d="M36.937 37.2856C37.383 37.3116 37.981 37.2921 38.434 37.2865C38.4333 37.7554 38.435 38.2242 38.439 38.693C37.961 38.6781 37.419 38.6884 36.937 38.6884V37.2856Z" fill="white"/>
<path d="M23.328 45.7758C23.743 45.8047 24.391 45.7833 24.817 45.7796C24.815 46.1489 24.792 46.84 24.828 47.1842C24.377 47.1656 23.783 47.1814 23.317 47.1796C23.323 46.7209 23.308 46.2307 23.328 45.7758Z" fill="white"/>
<path d="M20.31 42.946C20.794 42.9619 21.316 42.9535 21.804 42.9516C21.801 43.3749 21.781 43.9377 21.811 44.3479C21.716 44.3572 21.421 44.3516 21.316 44.3516L20.308 44.3507C20.296 43.8986 20.308 43.4019 20.309 42.946" fill="white"/>
<path d="M15.748 27.3544C16.18 27.3823 16.8 27.3609 17.243 27.3544C17.232 27.8235 17.2334 28.2928 17.247 28.7619C16.7465 28.7467 16.2455 28.7467 15.745 28.7619L15.748 27.3544Z" fill="white"/>
<path d="M23.328 33.0056C23.796 33.039 24.342 33.0186 24.816 33.0102C24.814 33.4502 24.802 33.9823 24.824 34.4149L23.318 34.4121C23.3147 33.9432 23.318 33.4744 23.328 33.0056Z" fill="white"/>
<path d="M20.314 40.1163C20.754 40.1405 21.352 40.1228 21.8 40.1191C21.797 40.5777 21.788 41.066 21.801 41.5228C21.33 41.5079 20.784 41.52 20.307 41.5191C20.299 41.0614 20.311 40.5758 20.314 40.1163Z" fill="white"/>
<path d="M18.765 30.1749C19.111 30.2204 19.879 30.1907 20.255 30.1823C20.254 30.6214 20.244 31.0986 20.259 31.5339L20.229 31.5991C20.121 31.5711 18.973 31.5823 18.757 31.5814L18.765 30.1749Z" fill="white"/>
<path d="M26.352 44.3916C26.777 44.4214 27.4 44.4009 27.835 44.3963C27.835 44.826 27.825 45.3079 27.842 45.7339C27.338 45.7358 26.834 45.7342 26.33 45.7293C26.33 45.3944 26.311 44.6911 26.352 44.3916Z" fill="white"/>
<path d="M35.464 40.1154C35.914 40.1358 36.44 40.1228 36.894 40.1181C36.89 40.5876 36.892 41.0568 36.9 41.5256C36.427 41.5144 35.928 41.5209 35.453 41.5209C35.475 41.0772 35.463 40.5628 35.464 40.1154Z" fill="white"/>
<path d="M30.902 42.9451C31.31 42.9721 31.912 42.9526 32.33 42.9507C32.326 43.4189 32.328 43.8868 32.336 44.3544C31.911 44.3349 31.326 44.3507 30.892 44.3526C30.908 43.9014 30.898 43.4009 30.902 42.9451Z" fill="white"/>
<path d="M32.376 41.5609C32.839 41.5832 33.404 41.5684 33.872 41.5637C33.8694 42.0121 33.8714 42.4601 33.878 42.9079C33.426 42.8893 32.836 42.9042 32.374 42.906L32.376 41.5609Z" fill="white"/>
<path d="M42.973 28.7963C43.262 28.8307 44.164 28.8093 44.479 28.8C44.479 29.2459 44.4754 29.6911 44.468 30.1358C44.028 30.1553 43.421 30.1367 42.968 30.1358L42.973 28.7963Z" fill="white"/>
<path d="M38.483 37.2837C38.913 37.3088 39.469 37.293 39.906 37.2865L39.908 38.6846C39.718 38.7274 38.723 38.6902 38.478 38.6883C38.486 38.226 38.481 37.7479 38.483 37.2837Z" fill="white"/>
<path d="M29.359 44.3916C29.801 44.4167 30.402 44.399 30.853 44.3953C30.849 44.8232 30.843 45.319 30.863 45.7442C30.393 45.7321 29.823 45.7218 29.355 45.7358L29.359 44.3916Z" fill="white"/>
<path d="M20.309 44.3926C20.762 44.4158 21.342 44.3991 21.801 44.3954C21.799 44.7154 21.776 45.4465 21.813 45.7349C21.345 45.721 20.785 45.7349 20.308 45.733C20.285 45.3647 20.307 44.7768 20.308 44.3926" fill="white"/>
<path d="M36.939 38.7284C37.436 38.7628 37.936 38.7442 38.435 38.733L38.438 40.0726C37.948 40.0819 37.429 40.0744 36.936 40.0744L36.939 38.7284Z" fill="white"/>
<path d="M24.87 45.7758C25.274 45.8037 25.878 45.7833 26.293 45.7795C26.295 46.2372 26.279 46.7321 26.299 47.1842C25.872 47.1656 25.307 47.1814 24.869 47.1814C24.852 46.7488 24.869 46.2158 24.87 45.7758Z" fill="white"/>
<path d="M41.5 35.8353C41.904 35.8632 42.51 35.8418 42.924 35.839C42.942 36.2511 42.926 36.7944 42.926 37.2195L42.921 37.2288C42.857 37.2614 41.64 37.2437 41.501 37.2381C41.507 36.7705 41.506 36.3029 41.5 35.8353Z" fill="white"/>
<path d="M20.31 41.5609C20.762 41.5851 21.34 41.5684 21.798 41.5646C21.7967 42.0093 21.7993 42.4542 21.806 42.8995C21.734 42.9107 21.4 42.9079 21.317 42.907L20.308 42.9042L20.31 41.5609Z" fill="white"/>
<path d="M23.325 34.4521C23.763 34.4949 24.368 34.4679 24.817 34.4567C24.819 34.9042 24.813 35.3535 24.818 35.8009C24.326 35.7907 23.81 35.7972 23.316 35.7972L23.325 34.4521Z" fill="white"/>
<path d="M21.853 33.0056C22.279 33.04 22.837 33.0186 23.273 33.0093L23.275 34.413C22.866 34.4316 22.271 34.413 21.849 34.4093L21.853 33.0056Z" fill="white"/>
<path d="M21.853 45.7758C22.249 45.8037 22.863 45.7833 23.272 45.7795C23.27 46.2167 23.256 46.7563 23.282 47.1842C22.865 47.1656 22.278 47.1814 21.851 47.1823L21.853 45.7758Z" fill="white"/>
<path d="M15.747 28.8037C16.203 28.826 16.777 28.8093 17.24 28.8056L17.241 30.1302C17.031 30.1739 16.033 30.1349 15.747 30.133V28.8037Z" fill="white"/>
<path d="M23.327 31.6288C23.689 31.6726 24.432 31.6409 24.817 31.6298C24.815 31.9231 24.815 32.2158 24.817 32.5079C24.818 32.6168 24.827 32.8688 24.81 32.9684C24.318 32.9609 23.81 32.9665 23.318 32.9665C23.318 32.5293 23.312 32.0642 23.328 31.6288" fill="white"/>
<path d="M21.855 37.2837C22.268 37.3116 22.852 37.2921 23.275 37.2856L23.271 38.6921C22.812 38.6809 22.314 38.6902 21.851 38.6883L21.855 37.2837Z" fill="white"/>
<path d="M21.855 30.1805C22.195 30.2177 22.907 30.1898 23.272 30.1833C23.2693 30.6484 23.27 31.1141 23.274 31.5805C23.055 31.6028 22.107 31.5805 21.85 31.5796C21.8487 31.1126 21.8503 30.6462 21.855 30.1805Z" fill="white"/>
<path d="M17.29 30.1777C17.632 30.2195 18.342 30.1898 18.711 30.1814C18.7083 30.6484 18.709 31.115 18.713 31.5814C18.47 31.6056 17.562 31.5833 17.289 31.5805L17.29 30.1777Z" fill="white"/>
<path d="M30.9 41.5619C31.278 41.5917 31.937 41.5684 32.33 41.5637C32.3267 42.0115 32.3287 42.4589 32.336 42.9061C31.866 42.8968 31.366 42.9051 30.895 42.9061C30.908 42.4735 30.899 41.9982 30.9 41.5619Z" fill="white"/>
<path d="M35.46 38.7321C35.944 38.7572 36.407 38.7433 36.89 38.733C36.886 39.1808 36.8887 39.6289 36.898 40.0772C36.461 40.0586 35.902 40.0735 35.456 40.0744C35.473 39.6586 35.461 39.1535 35.46 38.7321Z" fill="white"/>
<path d="M27.883 44.3926C28.32 44.4149 28.867 44.3991 29.311 44.3954L29.313 45.7349C28.843 45.7191 28.355 45.7489 27.877 45.7256C27.888 45.2912 27.877 44.8316 27.883 44.3926Z" fill="white"/>
<path d="M21.853 44.3916C22.275 44.4158 22.84 44.399 23.27 44.3963C23.27 44.8149 23.258 45.3256 23.281 45.7358C22.816 45.7246 22.317 45.733 21.85 45.733L21.853 44.3916Z" fill="white"/>
<path d="M26.182 31.6316C26.238 31.6279 26.235 31.626 26.285 31.6484C26.314 31.8772 26.291 32.6967 26.29 32.9665L25.032 32.9674C24.961 32.9693 24.944 32.973 24.875 32.9525C24.849 32.7777 24.87 31.8549 24.871 31.6316C25.284 31.6549 25.766 31.6409 26.182 31.6316Z" fill="white"/>
<path d="M21.853 31.6279C22.16 31.6651 22.948 31.6391 23.273 31.6279C23.273 32.0707 23.266 32.5293 23.279 32.9693C22.819 32.9572 22.313 32.9665 21.849 32.9665L21.853 31.6279Z" fill="white"/>
<path d="M17.29 28.8C17.621 28.8335 18.357 28.8093 18.71 28.8056C18.709 29.2456 18.702 29.6995 18.716 30.1386C18.257 30.1265 17.751 30.1349 17.288 30.133L17.29 28.8Z" fill="white"/>
<path d="M17.293 31.626C17.571 31.6642 18.391 31.6363 18.711 31.6288C18.711 32.0474 18.699 32.5563 18.721 32.9684L17.285 32.9665L17.293 31.626Z" fill="white"/>
</g>
</svg>
