<svg width="161" height="40" viewBox="0 0 161 40" fill="none" xmlns="http://www.w3.org/2000/svg">
<path d="M44.08 30V11.76H48.64V17.784H48.736C49.072 17.336 49.56 16.976 50.2 16.704C50.84 16.432 51.552 16.296 52.336 16.296C54.144 16.296 55.64 16.92 56.824 18.168C58.008 19.4 58.6 21.12 58.6 23.328C58.6 25.52 57.992 27.24 56.776 28.488C55.576 29.72 54.096 30.336 52.336 30.336C51.536 30.336 50.808 30.176 50.152 29.856C49.496 29.536 49 29.08 48.664 28.488H48.568V30H44.08ZM51.28 26.136C52 26.136 52.6 25.896 53.08 25.416C53.56 24.92 53.8 24.288 53.8 23.52C53.8 22.768 53.56 22.16 53.08 21.696C52.6 21.216 52 20.976 51.28 20.976C50.544 20.976 49.936 21.2 49.456 21.648C48.992 22.096 48.76 22.728 48.76 23.544C48.76 24.376 48.992 25.016 49.456 25.464C49.936 25.912 50.544 26.136 51.28 26.136ZM59.5581 30V26.52L64.8141 20.952H59.8221V16.632H70.3581V20.712L65.1021 26.04H70.5981V30H59.5581ZM81.3278 30H75.9278L71.1278 16.632H76.4318L78.7838 25.632L80.9678 16.632H86.0318L81.3278 30ZM86.5141 29.472L86.8261 25.872C87.9781 26.368 89.4261 26.616 91.1701 26.616C92.2901 26.616 92.8501 26.448 92.8501 26.112C92.8501 25.952 92.7221 25.832 92.4661 25.752C92.2101 25.672 91.5461 25.52 90.4741 25.296C89.0981 25.008 88.0741 24.552 87.4021 23.928C86.7301 23.304 86.3941 22.336 86.3941 21.024C86.3941 19.648 86.9061 18.52 87.9301 17.64C88.9701 16.744 90.4581 16.296 92.3941 16.296C93.9301 16.296 95.2501 16.544 96.3541 17.04L96.0421 21.6C94.7621 21.184 93.5061 20.976 92.2741 20.976C91.7461 20.976 91.3781 21.016 91.1701 21.096C90.9781 21.16 90.8821 21.28 90.8821 21.456C90.8821 21.632 90.9941 21.76 91.2181 21.84C91.4421 21.904 92.0821 22.024 93.1381 22.2C95.8261 22.632 97.1701 23.856 97.1701 25.872C97.1701 28.848 95.2101 30.336 91.2901 30.336C89.4021 30.336 87.8101 30.048 86.5141 29.472ZM99.3453 24.552V20.952H97.4013V16.632H99.7053L100.185 13.392H103.905V16.632H107.193V20.952H103.905V24.264C103.905 24.936 104.033 25.416 104.289 25.704C104.545 25.992 104.945 26.136 105.489 26.136C106.049 26.136 106.617 26.064 107.193 25.92L107.505 30C106.737 30.224 105.777 30.336 104.625 30.336C102.673 30.336 101.305 29.832 100.521 28.824C99.7373 27.816 99.3453 26.392 99.3453 24.552ZM121.678 16.632V30H117.19V28.608H117.094C116.198 29.76 115.022 30.336 113.566 30.336C112.03 30.336 110.83 29.856 109.966 28.896C109.118 27.92 108.694 26.616 108.694 24.984V16.632H113.254V23.616C113.254 25.296 113.902 26.136 115.198 26.136C116.478 26.136 117.118 25.304 117.118 23.64V16.632H121.678ZM137.782 11.76V30H133.294V28.848H133.198C132.862 29.296 132.358 29.656 131.686 29.928C131.03 30.2 130.302 30.336 129.502 30.336C127.694 30.336 126.198 29.72 125.014 28.488C123.83 27.24 123.238 25.512 123.238 23.304C123.238 21.112 123.838 19.4 125.038 18.168C126.254 16.92 127.742 16.296 129.502 16.296C131.214 16.296 132.422 16.912 133.126 18.144H133.222V11.76H137.782ZM130.558 20.976C129.838 20.976 129.238 21.216 128.758 21.696C128.278 22.176 128.038 22.808 128.038 23.592C128.038 24.392 128.27 25.016 128.734 25.464C129.214 25.912 129.822 26.136 130.558 26.136C131.294 26.136 131.902 25.912 132.382 25.464C132.862 25.016 133.102 24.384 133.102 23.568C133.102 22.736 132.862 22.096 132.382 21.648C131.902 21.2 131.294 20.976 130.558 20.976ZM142.219 15.864C141.435 15.864 140.787 15.624 140.275 15.144C139.763 14.664 139.507 14.032 139.507 13.248C139.507 12.464 139.755 11.832 140.251 11.352C140.763 10.872 141.419 10.632 142.219 10.632C143.003 10.632 143.643 10.872 144.139 11.352C144.651 11.832 144.907 12.464 144.907 13.248C144.907 14.032 144.651 14.664 144.139 15.144C143.627 15.624 142.987 15.864 142.219 15.864ZM139.939 30V16.632H144.499V30H139.939ZM148.058 28.368C146.73 27.04 146.066 25.36 146.066 23.328C146.066 21.296 146.73 19.616 148.058 18.288C149.402 16.96 151.122 16.296 153.218 16.296C155.314 16.296 157.026 16.96 158.354 18.288C159.682 19.616 160.346 21.296 160.346 23.328C160.346 25.36 159.682 27.04 158.354 28.368C157.026 29.68 155.314 30.336 153.218 30.336C151.122 30.336 149.402 29.68 148.058 28.368ZM153.218 26.136C153.874 26.136 154.426 25.904 154.874 25.44C155.322 24.976 155.546 24.36 155.546 23.592C155.546 22.84 155.322 22.216 154.874 21.72C154.442 21.224 153.89 20.976 153.218 20.976C152.53 20.976 151.962 21.224 151.514 21.72C151.082 22.216 150.866 22.84 150.866 23.592C150.866 24.36 151.09 24.976 151.538 25.44C151.986 25.904 152.546 26.136 153.218 26.136Z" fill="#020408"/>
<path d="M25.503 0.822327C25.753 0.850234 26.002 0.926513 26.25 0.961862C26.366 0.978606 26.502 0.919071 26.62 0.949769C26.987 1.0214 27.365 1.15814 27.73 1.22512C27.906 1.28186 28.067 1.27628 28.128 1.45023C28.226 1.47442 28.272 1.49488 28.363 1.53302C28.528 1.61209 28.693 1.69488 28.83 1.81395C29.83 2.55814 30.574 3.32558 31.004 4.47721C31.031 4.55163 31.059 4.61675 31.076 4.69395C31.187 5.02419 31.285 5.64279 31.321 5.99628C31.387 6.64744 31.151 7.32 30.971 7.93768C30.917 8.12 30.739 8.68837 30.722 8.83535L30.702 8.88093C30.474 9.56279 30.318 10.3498 30.076 11.0186C30.028 11.1609 29.986 11.3135 29.879 11.426C29.795 11.5656 29.709 11.7116 29.621 11.8502C29.391 12.2149 29.209 12.7879 28.945 13.1088L28.917 13.187C28.693 13.5916 28.453 14.0056 28.262 14.426C28.208 14.533 28.194 14.5805 28.093 14.6577C28.046 14.7721 27.976 14.9293 27.938 15.0437C29.166 15.3637 30.453 15.6512 31.665 15.9814C31.936 16.054 32.245 16.1005 32.425 16.3014C33.562 16.6921 34.811 17.813 35.298 18.8465C35.516 19.3098 35.693 19.7609 35.811 20.2577C35.864 20.4809 35.748 20.5795 35.875 20.7023C35.891 20.9116 35.75 20.9395 35.899 21.1116C35.92 21.1377 35.882 21.5674 35.881 21.626C35.819 22.0307 35.678 22.4605 35.561 22.8512C35.405 23.3668 35.2616 23.8857 35.131 24.4074L35.097 24.506C34.973 24.9181 34.86 25.3823 34.734 25.7786C34.6696 25.9576 34.5837 26.1292 34.478 26.2902C33.931 27.1442 33.478 27.6279 32.611 28.2195C32.39 28.3702 32.201 28.5228 31.958 28.6633C31.79 28.7842 31.618 28.9107 31.444 29.0223C30.691 29.5191 29.955 30.0651 29.202 30.5665C28.977 30.7153 28.752 30.8921 28.527 31.0363L28.432 31.1014C27.998 31.4065 27.503 31.7609 27.054 32.0419L26.888 32.1647C26.632 32.3433 26.043 32.7786 25.794 32.9181C25.67 33.0062 25.545 33.093 25.419 33.1786C25.145 33.3879 24.764 33.6316 24.471 33.8298L23.117 34.7656L21.765 35.7005C21.532 35.8623 21.199 36.1079 20.959 36.2456L20.846 36.3284C20.455 36.5926 19.943 36.9842 19.561 37.2195L19.334 37.3702C18.909 37.6735 18.372 38.066 17.922 38.3153L17.853 38.3572C16.94 38.9386 16.417 39.0735 15.338 39.2391C15.148 39.267 15.045 39.2093 14.918 39.2298C14.892 39.2512 14.888 39.2595 14.858 39.2707C14.65 39.2344 14.454 39.2744 14.221 39.2474C14.089 39.2316 13.761 39.1265 13.694 39.1526L13.684 39.2084L13.644 39.2205C13.518 39.1991 12.994 39.0995 12.924 39.0251L12.965 38.9488C12.617 38.8967 12.392 38.7721 12.083 38.6233C11.983 38.5777 11.924 38.5526 11.831 38.4912L11.733 38.4363C11.3875 38.2281 11.064 37.9898 10.767 37.7247C9.88498 36.934 9.10498 35.6102 9.09698 34.4437C9.04598 34.4419 9.06798 34.4493 9.02998 34.4233L9.04798 34.346C9.07498 34.1786 9.03198 34.1079 9.02598 33.9479C9.02198 33.8623 9.09298 33.7042 9.08598 33.613C9.07698 33.5265 9.00598 33.4614 9.02898 33.3665C9.29498 32.2474 9.71498 31.1488 9.96798 30.0288C10.066 29.6949 10.264 28.8419 10.494 28.6195C10.697 28.307 11.028 27.6958 11.167 27.3628C11.203 27.2735 11.244 27.2074 11.292 27.1247C11.434 26.9358 11.662 26.4735 11.778 26.2484C11.837 26.134 11.82 25.9563 11.896 25.8753C12.137 25.7265 12.05 25.4698 12.279 25.3228C12.294 25.2586 12.367 25.107 12.397 25.0381C12.219 24.9944 12.017 24.9488 11.845 24.8912L11.802 24.8846C11.3285 24.7623 10.8538 24.6438 10.378 24.5293L10.196 24.4828C9.78598 24.3572 9.16698 24.2223 8.73498 24.1153L8.71198 24.1144C8.53298 24.0586 8.36598 24.027 8.18198 23.9609C6.97272 23.5293 5.95358 22.7335 5.28698 21.7005C4.95198 21.1842 4.33398 19.7526 4.48998 19.1591C4.43998 19.1302 4.43698 19.134 4.40898 19.0874C4.40078 18.9695 4.41952 18.8512 4.46398 18.7405C4.46898 18.7256 4.47698 18.6754 4.47998 18.6614L4.42298 18.5851C4.39298 18.4521 5.04698 16.2316 5.13498 15.9665L5.15098 15.8847C5.28432 15.4357 5.41365 14.9857 5.53898 14.5349C5.64898 14.2279 5.62598 14.0344 5.88898 13.7944L5.89198 13.7898C6.03998 13.6409 6.07398 13.4419 6.20198 13.28C6.87298 12.4335 7.87298 11.7898 8.76898 11.1777L10.472 10.0056L16.749 5.68093L20.767 2.90326C21.069 2.69861 21.369 2.49147 21.667 2.28186C21.825 2.17023 22.151 1.92279 22.309 1.84186C22.749 1.51349 23.446 1.28837 23.952 1.07349C24.604 0.889303 24.736 0.893024 25.402 0.856745L25.503 0.822327ZM23.887 4.08651C23.519 4.35628 23.126 4.6093 22.745 4.86791L21.22 5.91442L18.772 7.60744C18.525 7.77675 18.252 7.97954 18.009 8.1414C17.939 8.18791 17.849 8.25302 17.778 8.29488C17.401 8.57488 16.898 8.92744 16.502 9.18233L16.284 9.33582C15.921 9.56558 15.495 9.87814 15.131 10.1265C14.0918 10.8348 13.0564 11.548 12.025 12.266C11.045 12.9442 10.022 13.6177 9.06398 14.3265C8.79098 14.5274 8.42398 14.9358 8.25698 15.2298C8.20198 15.3507 8.08998 15.7972 8.06998 15.933C8.06096 15.9951 8.04521 16.0562 8.02298 16.1153C8.02798 16.1526 8.07698 16.2577 8.07798 16.2102C8.06998 16.7191 8.18198 17.2326 8.44898 17.6781C8.53398 17.8195 8.66498 17.9265 8.74898 18.0791C8.83098 18.1535 8.91532 18.2248 9.00198 18.293C9.10998 18.3848 9.22098 18.4729 9.33498 18.5572C9.39698 18.5879 9.70098 18.7693 9.68498 18.7619C9.77198 18.787 9.87898 18.813 9.96098 18.8484C11.423 19.2326 12.937 19.5898 14.411 19.9609L15.605 20.2623C15.849 20.3246 16.095 20.3823 16.332 20.4651C16.408 20.4921 16.419 20.5228 16.453 20.5851C16.803 20.7423 16.973 21.0093 17.096 21.3405L17.145 21.4781C17.184 21.6623 17.182 21.6828 17.15 21.8763C17.1067 22.1512 17.0179 22.4182 16.887 22.6679C16.824 22.7795 16.767 22.84 16.717 22.9591L16.66 23.0726L16.601 23.2009C16.5097 23.3647 16.4167 23.5271 16.322 23.6884C16.235 23.893 16.112 24.1563 15.994 24.3488C15.972 24.3944 15.937 24.4726 15.912 24.5144C15.75 24.84 15.563 25.1479 15.397 25.4716C15.324 25.613 15.276 25.6214 15.219 25.7879L15.185 25.8744C15.082 26.0874 14.955 26.346 14.83 26.5488C14.774 26.666 14.528 27.1628 14.459 27.2512L14.402 27.3498C14.299 27.5507 14.189 27.7433 14.084 27.9423C13.984 28.133 13.913 28.3647 13.78 28.5377C13.7411 28.5867 13.7098 28.6406 13.687 28.6977L13.644 28.786L13.609 28.8651C13.519 29.054 13.297 29.5767 13.155 29.6884C13.094 29.8047 13.063 29.893 13.018 30.0149C12.948 30.2102 12.934 30.2521 12.78 30.4056C12.718 30.626 12.633 30.9702 12.556 31.1758C12.624 31.1981 12.63 31.187 12.658 31.2316C12.626 31.4363 12.685 31.613 12.648 31.8233C12.644 32.2679 13.25 33.107 13.608 33.4158C13.692 33.4893 13.867 33.5647 13.965 33.6335C14.047 33.6893 13.951 33.7191 14.039 33.7507C14.151 33.7916 14.259 33.8074 14.373 33.8512C14.617 33.9135 14.902 33.9777 15.141 34.0465C15.394 34.1079 15.916 34.0474 16.169 33.9907L16.379 33.9219C17.074 33.6214 17.585 33.2205 18.193 32.8L19.893 31.6307L26.593 27.0065L30.212 24.5153C30.99 23.974 31.64 23.6084 32.305 22.9433C32.3863 22.8645 32.4697 22.7879 32.555 22.7135C32.562 22.68 32.635 22.5181 32.652 22.4763C32.773 22.1135 32.879 21.6893 32.982 21.3163C32.98 21.2047 33.054 21.0595 33.022 20.9805L32.955 20.9963C32.932 20.9646 32.947 20.8726 32.952 20.8288C32.967 20.7098 32.952 20.6633 32.926 20.5498C32.877 20.4288 32.839 20.3014 32.798 20.1777C32.497 19.5944 32.202 19.2763 31.62 18.9023C31.564 18.8698 31.506 18.8465 31.446 18.8214C31.326 18.7693 31.203 18.7256 31.08 18.6809C30.733 18.573 30.095 18.4391 29.712 18.3414L26.068 17.4121C25.628 17.2977 25.182 17.2149 24.753 17.0809C24.6397 17.0498 24.5388 16.9884 24.463 16.9042C24.139 16.7116 23.994 16.3498 23.926 16.0112C23.904 15.9833 23.881 15.9395 23.863 15.9088C23.894 15.734 23.955 15.3972 24.031 15.2437C24.167 14.9656 24.269 14.84 24.366 14.5377C24.413 14.4158 24.454 14.3126 24.51 14.1935C24.659 13.9888 24.941 13.4958 25.026 13.2605C25.05 13.1823 25.445 12.4084 25.483 12.36C25.647 12.1991 25.94 11.5321 26.041 11.3033C26.094 11.186 26.171 11.0679 26.227 10.9498C26.29 10.8167 26.332 10.6354 26.431 10.5312C26.4776 10.4863 26.5139 10.4331 26.538 10.3749C26.638 10.0716 26.728 10.093 26.816 9.86605C26.884 9.65582 26.896 9.5014 27.084 9.38233C27.244 9.12558 27.139 9.0093 27.4 8.74977C27.515 8.63628 27.689 8.18233 27.785 8.0214C27.907 7.82886 28.01 7.62649 28.093 7.41675C28.14 7.25488 28.166 7.13209 28.285 7.00186C28.355 6.90419 28.391 6.77302 28.424 6.66047C28.517 6.36279 28.4 6.30512 28.444 6.03721L28.434 5.98326C28.348 5.89023 28.415 5.72372 28.454 5.62233C28.357 5.51256 28.342 5.44465 28.294 5.30977C28.168 4.81954 27.79 4.47535 27.431 4.12558C27.016 3.72 26.502 3.63442 25.943 3.51256C25.81 3.48465 25.75 3.56651 25.622 3.54419L25.464 3.51814L25.386 3.49488C24.757 3.60279 24.443 3.71907 23.931 4.05116L23.887 4.08651Z" fill="#020408"/>
<path d="M13.282 29.1368C13.326 29.013 13.267 28.8056 13.294 28.6902L13.316 28.6912C13.39 28.693 13.635 28.6884 13.686 28.6986L13.643 28.787L13.608 28.8661C13.518 29.0549 13.296 29.5777 13.154 29.6893C13.166 29.5191 13.263 29.3563 13.282 29.1368Z" fill="#020408"/>
<path d="M13.327 28.7219C13.434 28.7367 13.547 28.746 13.643 28.787L13.608 28.866C13.545 28.9293 13.449 28.9944 13.363 28.9479C13.319 28.8819 13.329 28.8028 13.327 28.7219Z" fill="#020408"/>
<path d="M32.98 21.3172C33.107 21.3823 33.06 21.4428 33.03 21.5665L33.014 21.6372C32.965 21.7749 32.934 21.9321 32.903 22.0744C32.868 22.1925 32.823 22.3888 32.736 22.4744C32.692 22.4791 32.694 22.4809 32.651 22.4772C32.772 22.1144 32.877 21.6902 32.98 21.3172Z" fill="#020408"/>
<path d="M12.555 31.1768C12.623 31.1991 12.629 31.1879 12.657 31.2326C12.625 31.4372 12.684 31.614 12.647 31.8242C12.537 31.7051 12.604 31.6605 12.534 31.5684L12.521 31.5163C12.5098 31.4021 12.5213 31.287 12.555 31.1768Z" fill="#020408"/>
<path d="M25.503 0.822327C25.753 0.850234 26.002 0.926513 26.25 0.961862C26.366 0.978606 26.502 0.919071 26.62 0.949769C26.987 1.0214 27.365 1.15814 27.73 1.22512C27.906 1.28186 28.067 1.27628 28.128 1.45023C28.226 1.47442 28.272 1.49488 28.363 1.53302C28.528 1.61209 28.693 1.69488 28.83 1.81395C29.83 2.55814 30.574 3.32558 31.004 4.47721C31.031 4.55163 31.059 4.61675 31.076 4.69395C31.187 5.02419 31.285 5.64279 31.321 5.99628C31.387 6.64744 31.151 7.32 30.971 7.93768C30.917 8.12 30.739 8.68837 30.722 8.83535L30.702 8.88093C30.474 9.56279 30.318 10.3498 30.076 11.0186C30.028 11.1609 29.986 11.3135 29.879 11.426C29.795 11.5656 29.709 11.7116 29.621 11.8502C29.391 12.2149 29.209 12.7879 28.945 13.1088L28.917 13.187C28.693 13.5916 28.453 14.0056 28.262 14.426C28.208 14.533 28.194 14.5805 28.093 14.6577C28.046 14.7721 27.976 14.9293 27.938 15.0437C29.166 15.3637 30.453 15.6512 31.665 15.9814C31.633 16.0409 31.633 16.0437 31.584 16.0967L31.5 16.093L31.495 17.307C31.975 17.3209 32.481 17.3144 32.963 17.3144C32.9562 17.4176 32.9555 17.521 32.961 17.6242C32.971 17.9926 32.968 18.3619 32.968 18.7312L32.942 18.7219L32.902 18.7535C32.504 18.7767 32.104 18.7442 31.707 18.7888C31.777 18.8316 32.774 18.8065 32.924 18.8028C32.924 18.9749 32.95 20.0493 32.901 20.1274C32.861 20.1442 32.831 20.1544 32.796 20.1777C32.495 19.5954 32.2 19.2772 31.618 18.9033C31.562 18.8707 31.504 18.8474 31.444 18.8223C31.324 18.7702 31.201 18.7265 31.078 18.6819C30.731 18.574 30.093 18.44 29.71 18.3423L26.066 17.413C25.626 17.2986 25.18 17.2158 24.751 17.0819C24.6377 17.0508 24.5369 16.9893 24.461 16.9051C24.137 16.7126 23.992 16.3507 23.924 16.0121C23.902 15.9842 23.879 15.9405 23.861 15.9098C23.892 15.7349 23.953 15.3981 24.029 15.2447C24.165 14.9665 24.267 14.8409 24.364 14.5386C24.411 14.4167 24.452 14.3135 24.508 14.1944C24.657 13.9898 24.939 13.4967 25.024 13.2614C25.048 13.1833 25.443 12.4093 25.481 12.3609C25.645 12.2 25.938 11.533 26.039 11.3042C26.092 11.187 26.169 11.0688 26.225 10.9507C26.288 10.8177 26.33 10.6363 26.429 10.5321C26.4756 10.4872 26.5119 10.4341 26.536 10.3758C26.636 10.0726 26.726 10.094 26.814 9.86698C26.882 9.65675 26.894 9.50233 27.082 9.38326C27.242 9.12651 27.137 9.01023 27.398 8.7507C27.513 8.63721 27.687 8.18326 27.783 8.02233C27.905 7.82979 28.008 7.62742 28.091 7.41768C28.138 7.25582 28.164 7.13302 28.283 7.00279C28.353 6.90512 28.389 6.77395 28.422 6.6614C28.515 6.36372 28.398 6.30605 28.442 6.03814L28.432 5.98419C28.346 5.89116 28.413 5.72465 28.452 5.62326C28.355 5.51349 28.34 5.44558 28.292 5.3107C28.166 4.82047 27.788 4.47628 27.429 4.12651C27.014 3.72093 26.5 3.63535 25.941 3.51349C25.808 3.48558 25.748 3.56744 25.62 3.54512L25.462 3.51907L25.384 3.49582C24.755 3.60372 24.441 3.72 23.929 4.05209L23.886 4.08651C23.518 4.35628 23.125 4.6093 22.744 4.86791L21.22 5.91442L18.772 7.60744C18.525 7.77675 18.252 7.97954 18.009 8.1414C17.939 8.18791 17.849 8.25302 17.778 8.29489C17.401 8.57488 16.898 8.92744 16.502 9.18233L16.284 9.33582C15.921 9.56558 15.495 9.87814 15.131 10.1265C14.0918 10.8348 13.0564 11.548 12.025 12.266C11.045 12.9442 10.022 13.6177 9.06399 14.3265C8.79099 14.5274 8.42399 14.9358 8.25699 15.2298C8.20199 15.3507 8.08999 15.7972 8.06999 15.933C8.06096 15.9951 8.04521 16.0562 8.02299 16.1153L8.01799 16.0316C7.92199 15.9293 7.50599 15.986 7.31499 15.9674L7.28899 15.9647C7.27299 15.9591 7.25199 15.9619 7.23299 15.9619C6.86699 15.9926 6.13399 15.9712 5.74799 15.9693L5.70199 15.9581C5.60499 15.9721 5.15799 15.9581 5.13599 15.9656L5.15199 15.8837C5.28532 15.4347 5.41465 14.9848 5.53999 14.534C5.64999 14.227 5.62699 14.0335 5.88999 13.7935L5.89299 13.7888C6.04099 13.64 6.07499 13.4409 6.20299 13.2791C6.87399 12.4326 7.87399 11.7888 8.76999 11.1767L10.473 10.0047L16.75 5.68L20.768 2.90233C21.07 2.69768 21.37 2.49054 21.668 2.28093C21.826 2.1693 22.152 1.92186 22.31 1.84093C22.75 1.51256 23.447 1.28744 23.953 1.07256C24.605 0.888373 24.737 0.892094 25.403 0.855815L25.503 0.822327Z" fill="#020408"/>
<path d="M22.937 1.7749C23.228 1.75722 23.56 1.7749 23.869 1.76373V3.15722C23.3737 3.16094 22.879 3.16094 22.385 3.15722C22.385 2.9135 22.409 2.19536 22.348 2.01862C22.294 2.31536 22.314 2.84094 22.315 3.16094L20.848 3.16559C20.852 3.62513 20.8513 4.08528 20.846 4.54606C20.399 4.54234 19.732 4.56187 19.308 4.5228C19.302 4.73583 19.273 5.84466 19.341 5.9749C19.381 5.81304 19.365 4.81117 19.364 4.5935C20.261 4.62048 21.398 4.60931 22.311 4.59815C22.322 4.72931 22.307 4.99164 22.331 5.07164L22.358 5.07536C22.406 5.00466 22.382 4.72187 22.386 4.59908C22.496 4.60001 22.595 4.60838 22.699 4.57769L22.692 4.56094C22.586 4.53304 22.488 4.54048 22.379 4.54234V3.20745C22.604 3.23908 23.588 3.22792 23.868 3.21769C23.868 3.36373 23.844 4.00652 23.888 4.08559C23.519 4.35536 23.126 4.60838 22.745 4.86699L21.22 5.91443L18.772 7.60745C18.525 7.77676 18.252 7.97955 18.009 8.14141C17.939 8.18792 17.849 8.25304 17.778 8.2949C17.401 8.5749 16.898 8.92745 16.502 9.18234L16.284 9.33583C15.921 9.56559 15.495 9.87815 15.131 10.1265C14.0918 10.8348 13.0564 11.548 12.025 12.2661C11.045 12.9442 10.022 13.6177 9.06399 14.3265C8.79099 14.5275 8.42399 14.9358 8.25699 15.2298C8.20199 15.3507 8.08999 15.7972 8.06999 15.933C8.06096 15.9951 8.04521 16.0562 8.02299 16.1154L8.01799 16.0316C7.92199 15.9293 7.50599 15.9861 7.31499 15.9675L7.28899 15.9647C7.27299 15.9591 7.25199 15.9619 7.23299 15.9619C6.86699 15.9926 6.13399 15.9712 5.74799 15.9693L5.70199 15.9582C5.60499 15.9721 5.15799 15.9582 5.13599 15.9656L5.15199 15.8837C5.28532 15.4347 5.41465 14.9848 5.53999 14.534C5.64999 14.227 5.62699 14.0335 5.88999 13.7935L5.89299 13.7888C6.04099 13.64 6.07499 13.4409 6.20299 13.2791C6.87399 12.4326 7.87399 11.7888 8.76999 11.1768L10.473 10.0047L16.75 5.68001L20.768 2.90234C21.07 2.69769 21.37 2.49055 21.668 2.28094C21.826 2.16931 22.152 1.92187 22.31 1.84094C22.382 1.84838 22.823 1.78699 22.938 1.77397" fill="#020408"/>
<path d="M7.23001 14.4837C7.23001 14.2326 7.20301 13.3647 7.27001 13.1954C7.31401 13.2893 7.29401 14.3014 7.29401 14.4698L7.32801 14.4735C7.57001 14.4903 8.44601 14.4586 8.59001 14.5126C8.36501 14.5526 7.55001 14.5405 7.29001 14.5312L7.28901 15.9237C7.51101 15.9396 7.84201 15.9396 8.06901 15.934C8.05998 15.9961 8.04424 16.0572 8.02201 16.1163L8.01701 16.0326C7.92101 15.9303 7.50501 15.987 7.31401 15.9684L7.28801 15.9656C7.27201 15.96 7.25101 15.9628 7.23201 15.9628C6.86601 15.9935 6.13301 15.9721 5.74701 15.9703L5.70101 15.9591C5.60401 15.973 5.15701 15.9591 5.13501 15.9665L5.15101 15.8847C5.28434 15.4357 5.41368 14.9858 5.53901 14.5349C5.64901 14.2279 5.62601 14.0344 5.88901 13.7944C5.87001 13.9963 5.77601 14.1777 5.75401 14.44C6.14801 14.52 6.80701 14.4679 7.23001 14.4847" fill="#020408"/>
<path d="M5.54 14.5349C5.623 14.5414 5.634 14.5293 5.693 14.5675C5.718 15.0354 5.694 15.4419 5.701 15.9061C5.609 15.96 5.287 15.9414 5.173 15.9284L5.151 15.8847C5.28433 15.4357 5.41467 14.9858 5.54 14.5349Z" fill="#020408"/>
<path d="M5.74999 14.5209C6.25099 14.5451 6.73399 14.5358 7.23599 14.5303C7.23399 14.9889 7.22399 15.4847 7.23899 15.9414C6.73899 15.9383 6.23899 15.9377 5.73899 15.9396C5.73632 15.467 5.73965 14.9938 5.74899 14.52" fill="#020408"/>
<path d="M17.777 8.29582C17.902 7.54326 17.753 6.79256 17.855 6.08838C17.922 6.18419 17.85 7.70977 17.885 7.95164C17.905 8.09117 17.874 8.05489 18.008 8.14233C17.938 8.18884 17.848 8.25396 17.777 8.29582Z" fill="#020408"/>
<path d="M16.283 9.33671C16.3 8.95253 16.286 8.54323 16.293 8.15718C16.297 7.9023 16.274 7.69485 16.316 7.43811C16.354 7.50416 16.322 8.59532 16.348 8.78788C16.389 8.83625 16.376 8.82044 16.46 8.83439C16.457 8.9302 16.167 9.02044 16.478 9.17299L16.501 9.18323L16.283 9.33671Z" fill="#020408"/>
<path d="M13.312 10.2046L13.315 9.33301C13.353 9.39998 13.31 10.8353 13.296 10.9767L13.297 10.9386L13.287 10.9367C13.271 10.7311 13.277 10.4604 13.277 10.2493C12.82 10.2586 12.305 10.2642 11.851 10.2493L11.85 11.6586C11.98 11.6567 12.384 11.6511 12.49 11.6763C12.36 11.7228 10.558 11.7023 10.306 11.6958C10.294 12.1795 10.328 12.7144 10.31 13.1823L10.283 13.1981C10.039 13.107 9.99597 13.146 9.73397 13.1479C9.40997 13.1516 9.08631 13.1498 8.76297 13.1423C8.73897 13.5079 8.77997 13.8958 8.72897 14.2735L8.72097 14.2465L8.73097 14.2558C8.69297 14.1386 8.72797 13.3646 8.72197 13.1842C8.70971 12.6869 8.70637 12.1895 8.71197 11.6921C8.63597 11.6967 8.59897 11.6939 8.52197 11.6884C8.78297 11.6084 9.87897 11.6558 10.257 11.6539L10.312 11.6567C10.81 11.6536 11.308 11.6549 11.806 11.6604C11.791 11.1991 11.8 10.7135 11.801 10.2511C11.512 10.253 10.854 10.2716 10.602 10.2363L10.61 10.2288C10.97 10.2 11.436 10.2093 11.802 10.2102C11.801 9.99626 11.792 9.65301 11.825 9.44743L11.839 9.45859C11.855 9.6865 11.849 9.97487 11.849 10.2074C12.337 10.2118 12.8246 10.2108 13.312 10.2046Z" fill="#020408"/>
<path d="M8.75897 11.693C9.17097 11.7246 9.83197 11.7023 10.257 11.6976L10.256 13.0772L10.231 13.1051C9.7363 13.1014 9.24131 13.1004 8.74597 13.1023C8.77397 12.6474 8.76297 12.1507 8.75897 11.693Z" fill="#020408"/>
<path d="M10.257 11.6539C10.251 11.5051 10.235 10.5432 10.297 10.4725C10.313 10.8474 10.288 11.306 10.312 11.6567L10.257 11.6539Z" fill="#020408"/>
<path d="M14.833 8.85767C14.911 8.99441 14.858 9.83441 14.85 10.0437L14.826 10.0177C14.809 9.79162 14.799 9.06976 14.833 8.85767Z" fill="#020408"/>
<path d="M29.955 4.58698C30.351 4.60465 30.743 4.52 31.075 4.69395C31.187 5.02419 31.285 5.64279 31.321 5.99628C31.387 6.64744 31.151 7.32 30.971 7.93767C30.917 8.12 30.739 8.68837 30.722 8.83535C30.567 8.81674 30.129 8.82605 29.952 8.82605L29.954 7.41767C30.205 7.42698 30.857 7.4493 31.069 7.40093C31.037 7.37116 30.075 7.3786 29.953 7.3786C29.9564 6.92961 29.957 6.48093 29.955 6.03256C30.214 6.04186 30.975 6.06233 31.205 6.0186C31.097 5.97581 30.137 5.99442 29.953 5.99349L29.955 4.58698Z" fill="#020408"/>
<path d="M28.477 10.2474C28.931 10.266 29.444 10.2539 29.901 10.2521C29.901 10.4846 29.901 10.7116 29.897 10.9442C29.895 11.0716 29.858 11.3321 29.879 11.426C29.795 11.5656 29.709 11.7116 29.621 11.8502C29.391 12.2149 29.209 12.7879 28.945 13.1088C28.868 13.0865 28.566 13.1042 28.468 13.1079C28.4767 12.6366 28.4794 12.1653 28.476 11.6939C28.644 11.7023 29.363 11.7144 29.508 11.6791C29.33 11.6446 28.691 11.6577 28.474 11.6577C28.478 11.1882 28.479 10.7181 28.477 10.2474Z" fill="#020408"/>
<path d="M26.537 10.3758C26.697 10.3665 26.697 10.2381 26.857 10.2688C26.921 10.4595 26.882 11.3814 26.905 11.6623C26.768 11.6623 26.229 11.6493 26.122 11.6828C26.386 11.6995 26.631 11.6958 26.896 11.6939C26.894 12.1367 26.877 12.6716 26.901 13.107C26.437 13.1014 25.949 13.1163 25.49 13.1014L25.501 13.1479H25.477L25.422 13.1358C25.175 13.1665 25.227 13.1981 25.025 13.2614C25.049 13.1832 25.444 12.4093 25.482 12.3609C25.646 12.2 25.939 11.533 26.04 11.3042C26.093 11.187 26.17 11.0688 26.226 10.9507C26.289 10.8177 26.331 10.6363 26.43 10.5321C26.4766 10.4872 26.513 10.434 26.537 10.3758Z" fill="#020408"/>
<path d="M25.025 13.2614C25.049 13.1832 25.444 12.4093 25.482 12.3609C25.568 12.5218 25.425 12.933 25.49 13.1014L25.501 13.1479H25.477L25.422 13.1358C25.175 13.1665 25.227 13.1981 25.025 13.2614Z" fill="#020408"/>
<path d="M28.092 7.41859L28.157 7.45952C28.244 7.44278 28.327 7.41859 28.413 7.43162C28.469 7.51906 28.422 9.87906 28.444 10.2167C27.997 10.2102 27.366 10.2363 26.944 10.2C26.951 10.0623 26.956 9.96185 26.95 9.82511C26.901 9.86604 26.881 9.86232 26.815 9.86697C26.883 9.65673 26.895 9.50231 27.083 9.38324C27.243 9.1265 27.138 9.01022 27.399 8.75069C27.514 8.6372 27.688 8.18324 27.784 8.02231C27.906 7.82978 28.0091 7.62834 28.092 7.41859Z" fill="#020408"/>
<path d="M27.083 9.38417C27.041 9.55068 27.009 9.66324 26.95 9.8251C26.901 9.86603 26.881 9.86231 26.815 9.86696C26.883 9.65673 26.895 9.50231 27.083 9.38324" fill="#020408"/>
<path d="M31.498 17.3507C31.914 17.3758 32.531 17.3293 32.903 17.374C33.003 17.5005 32.883 18.4642 32.943 18.7219L32.903 18.7535C32.505 18.7768 32.105 18.7442 31.708 18.7888C31.778 18.8316 32.775 18.8065 32.925 18.8028C32.925 18.9749 32.951 20.0493 32.902 20.1275C32.862 20.1442 32.832 20.1544 32.797 20.1777C32.496 19.5954 32.201 19.2772 31.619 18.9033C31.637 18.8809 31.641 18.8707 31.655 18.8456C31.631 18.8168 31.642 18.8251 31.615 18.8065C31.592 18.7916 31.565 18.7768 31.546 18.7582C31.446 18.6586 31.496 17.5675 31.498 17.3507Z" fill="#020408"/>
<path d="M28.502 1.74512C28.623 1.7814 28.702 1.81954 28.83 1.81395C29.83 2.55814 30.574 3.32558 31.004 4.47721C30.977 4.49861 30.934 4.53488 30.899 4.53768C30.608 4.56651 30.245 4.55256 29.953 4.54884C29.953 4.28093 29.977 3.38047 29.903 3.19256C29.783 3.15163 28.683 3.16558 28.47 3.16558C28.482 2.78698 28.447 2.0893 28.502 1.74512Z" fill="#020408"/>
<path d="M26.937 3.20093C27.435 3.23256 27.942 3.21581 28.44 3.20093C28.436 3.65302 28.4373 4.10449 28.444 4.55535C28.373 4.55349 28.303 4.54325 28.239 4.57023C28.303 4.59814 28.371 4.58977 28.443 4.58883C28.442 4.74046 28.477 5.15814 28.379 5.26511C28.3524 5.28319 28.3239 5.29876 28.294 5.31163C28.167 4.82046 27.789 4.47628 27.43 4.12651C27.015 3.72093 26.501 3.63535 25.942 3.51349C25.809 3.48558 25.749 3.56744 25.621 3.54511L25.463 3.51907L25.453 3.20279C25.802 3.23814 26.531 3.22511 26.891 3.20279C26.891 3.34977 26.889 3.4586 26.913 3.60279C26.939 3.51907 26.936 3.2986 26.937 3.20093Z" fill="#020408"/>
<path d="M26.933 13.1414C27.414 13.1581 27.959 13.1479 28.44 13.1395C28.437 13.2707 28.426 13.5507 28.463 13.6763C28.48 13.4921 28.477 13.3237 28.476 13.1405C28.601 13.1405 28.813 13.1312 28.917 13.187C28.693 13.5916 28.453 14.0056 28.262 14.426C27.877 14.533 27.344 14.4902 26.932 14.4902L26.933 13.1414Z" fill="#020408"/>
<path d="M28.475 4.58789C28.9537 4.59657 29.432 4.59657 29.91 4.58789C29.907 4.9758 29.882 5.62696 29.917 5.99812C29.431 5.99812 28.917 6.00277 28.433 5.98417C28.347 5.89115 28.414 5.72463 28.453 5.62324C28.501 5.4744 28.478 4.78789 28.475 4.58789Z" fill="#020408"/>
<path d="M29.958 15.9767C30.166 15.9795 30.613 16 30.789 15.9395C31.001 16 31.25 16.0344 31.471 16.0735C31.423 16.1897 31.456 17.1153 31.46 17.3144C30.965 17.3051 30.442 17.3293 29.953 17.3051L29.958 15.9767Z" fill="#020408"/>
<path d="M28.423 6.66142C28.516 6.36374 28.399 6.30607 28.443 6.03816C28.933 6.04436 29.423 6.04281 29.913 6.03351C29.908 6.37304 29.88 7.06793 29.918 7.38607C29.63 7.38421 28.737 7.40188 28.513 7.37304C28.477 7.31723 28.485 7.23444 28.487 7.16653C28.494 7.13862 28.494 6.93862 28.492 6.89397C28.486 6.76374 28.513 6.74514 28.423 6.66142Z" fill="#020408"/>
<path d="M25.501 13.1479C25.938 13.133 26.454 13.1433 26.897 13.1423C26.8943 13.592 26.8953 14.0409 26.9 14.4893C26.456 14.4707 25.904 14.4865 25.446 14.4819C25.462 14.1479 25.431 13.4196 25.477 13.1479H25.501Z" fill="#020408"/>
<path d="M24.646 14.5274C24.9033 14.5225 25.161 14.5206 25.419 14.5219C25.417 14.92 25.397 15.5526 25.426 15.9386C24.89 15.9386 24.379 15.9126 23.862 15.9088C23.893 15.7349 23.954 15.3981 24.03 15.2446C24.166 14.9665 24.268 14.8409 24.365 14.5386L24.646 14.5274Z" fill="#020408"/>
<path d="M25.46 15.9712C25.923 15.9851 26.432 15.9805 26.897 15.9731C26.897 16.1777 26.913 17.1954 26.862 17.3126C26.789 17.3256 26.776 17.3256 26.702 17.3247C26.584 17.3089 26.429 17.3191 26.308 17.3228C26.153 17.3228 25.606 17.2056 25.457 17.1396C25.467 16.7535 25.462 16.3572 25.46 15.9712Z" fill="#020408"/>
<path d="M25.503 0.822327C25.753 0.850234 26.002 0.926513 26.25 0.961862C26.366 0.978606 26.502 0.919071 26.62 0.949769C26.987 1.0214 27.365 1.15814 27.73 1.22512C27.906 1.28186 28.067 1.27628 28.128 1.45023C28.226 1.47442 28.272 1.49488 28.363 1.53302C28.386 1.60372 28.393 1.6214 28.4 1.69488C28.285 1.74233 27.138 1.71907 26.933 1.71814C26.935 1.62047 26.96 1.17488 26.908 1.12372C26.869 1.21675 26.893 1.60186 26.9 1.72093H25.448C25.464 1.46419 25.448 1.06698 25.503 0.822327Z" fill="#020408"/>
<path d="M27.73 1.2251C27.906 1.28184 28.067 1.27626 28.128 1.45021C27.913 1.41766 27.748 1.44649 27.731 1.2251" fill="#020408"/>
<path d="M26.934 14.5209C27.244 14.5414 27.772 14.4986 28.037 14.5414C28.094 14.5842 28.076 14.5693 28.093 14.6577C28.046 14.7721 27.976 14.9293 27.938 15.0437C27.932 15.0958 27.916 15.1368 27.96 15.1749C28.048 15.2512 28.315 15.2986 28.429 15.3163C28.435 15.5209 28.4384 15.7259 28.439 15.9312L26.931 15.934C26.937 15.4627 26.938 14.9923 26.934 14.5209Z" fill="#020408"/>
<path d="M29.955 17.3516C30.42 17.3721 30.991 17.3628 31.457 17.3516C31.4663 17.8422 31.4623 18.3324 31.445 18.8223C31.325 18.7702 31.202 18.7265 31.079 18.6819C31.082 18.6353 31.086 18.6353 31.065 18.5935C30.873 18.4819 30.225 18.3498 29.954 18.2772L29.955 17.3516Z" fill="#020408"/>
<path d="M23.925 16.0121C24.06 15.9526 25.163 15.973 25.418 15.9721C25.418 16.3597 25.4153 16.7476 25.41 17.1358C25.263 17.0986 24.568 16.9181 24.462 16.9051C24.138 16.7126 23.993 16.3507 23.925 16.0121Z" fill="#020408"/>
<path d="M23.952 1.07349C24.604 0.889309 24.736 0.89303 25.402 0.85675C25.435 1.07722 25.409 1.45768 25.429 1.72187C24.933 1.72094 24.417 1.72652 23.923 1.71722V1.39722C23.938 1.32652 23.946 1.15349 23.952 1.07349Z" fill="#020408"/>
<path d="M27.938 15.0437C29.166 15.3637 30.453 15.6511 31.665 15.9814C31.633 16.0409 31.633 16.0437 31.584 16.0967L31.5 16.093L31.47 16.0744C31.25 16.0344 31 16 30.788 15.9395C30.692 15.8958 30.671 15.8837 30.568 15.8632C30.3766 15.8105 30.185 15.7584 29.993 15.707L29.909 15.6856C29.905 15.7637 29.909 15.8549 29.911 15.9349C29.437 15.9339 28.948 15.9256 28.475 15.933C28.475 15.8177 28.455 15.4 28.515 15.3423C28.499 15.333 28.449 15.3218 28.428 15.3163C28.314 15.2977 28.047 15.2511 27.958 15.1749C27.915 15.1377 27.931 15.0958 27.938 15.0437Z" fill="#020408"/>
<path d="M27.938 15.0437C29.166 15.3637 30.453 15.6511 31.665 15.9814C31.633 16.0409 31.633 16.0437 31.584 16.0967L31.5 16.093L31.47 16.0744C31.25 16.0344 31 16 30.788 15.9395C30.692 15.8958 30.671 15.8837 30.568 15.8632C30.3766 15.8105 30.185 15.7584 29.993 15.707L29.909 15.6856C29.437 15.5758 28.985 15.4577 28.516 15.3414C28.499 15.333 28.449 15.3218 28.428 15.3163C28.314 15.2977 28.047 15.2511 27.958 15.1749C27.915 15.1377 27.931 15.0958 27.938 15.0437Z" fill="#020408"/>
<path d="M28.483 17.3563C28.959 17.3662 29.435 17.3653 29.911 17.3535C29.909 17.4782 29.923 18.2149 29.856 18.2549C29.411 18.1368 28.927 18.0205 28.475 17.9042C28.479 17.7213 28.4816 17.5383 28.483 17.3554" fill="#020408"/>
<path d="M25.025 13.2614C25.227 13.1981 25.175 13.1665 25.422 13.1358C25.418 13.591 25.42 14.0456 25.428 14.4995C25.168 14.4989 24.908 14.4955 24.648 14.4893L24.646 14.5265L24.365 14.5386C24.412 14.4167 24.453 14.3135 24.509 14.1944C24.658 13.9898 24.94 13.4967 25.025 13.2614Z" fill="#020408"/>
<path d="M24.51 14.1953C24.522 14.2884 24.536 14.3777 24.585 14.4595L24.649 14.4893L24.646 14.5265L24.365 14.5386C24.412 14.4167 24.453 14.3135 24.509 14.1944" fill="#020408"/>
<path d="M29.955 8.86511C30.203 8.87131 30.4517 8.87659 30.701 8.88093C30.474 9.56279 30.318 10.3498 30.076 11.0186C30.023 11.0056 30.04 11.013 29.997 10.9842C29.933 10.8595 29.949 10.4195 29.946 10.2521C30.023 10.2512 30.099 10.2614 30.159 10.2288C30.093 10.1991 30.026 10.2074 29.952 10.2084L29.955 8.86511Z" fill="#020408"/>
<path d="M24.462 16.9051C24.568 16.9181 25.263 17.0986 25.41 17.1358L25.457 17.1395C25.606 17.2056 26.153 17.3218 26.307 17.3228C26.325 17.3274 26.628 17.4186 26.6 17.4149C26.726 17.4679 26.795 17.4874 26.93 17.5163C27.371 17.6493 27.923 17.7702 28.378 17.88C28.42 17.893 28.431 17.8976 28.475 17.9042C28.927 18.0204 29.411 18.1367 29.856 18.2549L29.954 18.2772C30.224 18.3497 30.873 18.4818 31.065 18.5935C31.086 18.6353 31.082 18.6353 31.079 18.6818C30.732 18.5739 30.094 18.44 29.711 18.3423L26.067 17.413C25.627 17.2986 25.181 17.2158 24.752 17.0818C24.6387 17.0507 24.5378 16.9893 24.462 16.9051Z" fill="#020408"/>
<path d="M23.923 3.20001C24.283 3.23722 25.037 3.2149 25.42 3.21304V3.23164C25.418 3.3349 25.428 3.4028 25.385 3.49583C24.756 3.60373 24.442 3.72001 23.93 4.05211C23.91 3.81397 23.922 3.44745 23.923 3.20001Z" fill="#020408"/>
<path d="M26.93 17.5163C26.939 17.4511 26.93 17.4046 26.97 17.3684C27.397 17.3414 27.984 17.3646 28.435 17.3563C28.4337 17.5256 28.4303 17.6949 28.425 17.8642C28.388 17.8809 28.405 17.8781 28.378 17.88C27.923 17.7702 27.371 17.6493 26.93 17.5163Z" fill="#020408"/>
<path d="M22.309 1.84186C22.749 1.51349 23.446 1.28837 23.952 1.07349C23.946 1.15349 23.938 1.32651 23.923 1.39721C23.923 1.34046 23.931 1.27163 23.901 1.22697C23.863 1.29674 23.869 1.62046 23.87 1.70884C23.681 1.70884 22.997 1.69953 22.86 1.74046L22.858 1.76186L22.937 1.77488C22.822 1.7879 22.381 1.8493 22.309 1.84186Z" fill="#020408"/>
<path d="M28.4246 6.66125C28.5142 6.74461 28.4875 6.76401 28.4937 6.89355C28.4958 6.93841 28.4956 7.13787 28.4886 7.16643L28.4683 7.1063C28.4106 7.11978 28.4101 7.40069 28.266 7.37267C28.2525 7.24234 28.3189 7.11005 28.2859 7.00282C28.3556 6.90493 28.3919 6.77375 28.4246 6.66125Z" fill="#020408"/>
<path d="M30.57 15.8632C30.487 15.9321 30.028 15.9823 29.951 15.8586C29.958 15.7619 29.941 15.7628 29.994 15.707C30.186 15.7584 30.378 15.8105 30.57 15.8632Z" fill="#020408"/>
<path d="M26.3096 17.3219C26.4311 17.3181 26.5859 17.3082 26.703 17.3241C26.7914 17.3403 26.8302 17.3705 26.8673 17.3669C26.7702 17.4005 26.6771 17.3638 26.6018 17.414C26.6302 17.4172 26.3266 17.3261 26.3096 17.3219Z" fill="#020408"/>
<path d="M26.94 10.2549C27.432 10.2456 27.945 10.2502 28.44 10.2484C28.439 10.7042 28.428 11.2065 28.445 11.6595C27.975 11.6428 27.405 11.6577 26.928 11.6586C26.944 11.2065 26.934 10.7125 26.939 10.2539" fill="#020408"/>
<path d="M26.937 11.693C27.396 11.7153 27.976 11.7004 28.44 11.6976C28.4347 12.1696 28.438 12.6415 28.45 13.1135C28.014 13.0865 27.38 13.1014 26.933 13.1042L26.937 11.693Z" fill="#020408"/>
<path d="M26.935 1.75537C27.435 1.76405 27.9347 1.7656 28.434 1.76002C28.44 2.22607 28.43 2.707 28.448 3.17025C27.969 3.15444 27.416 3.16467 26.932 3.16374L26.935 1.75537Z" fill="#020408"/>
<path d="M23.922 1.75537C24.381 1.78142 24.957 1.76281 25.42 1.75537C25.4153 2.22979 25.4143 2.70297 25.417 3.17491C24.947 3.1563 24.401 3.16746 23.923 3.16281C23.925 2.69398 23.924 2.22483 23.922 1.75537Z" fill="#020408"/>
<path d="M25.457 1.75165C25.85 1.78607 26.487 1.76374 26.896 1.7563C26.89 2.22142 26.896 2.69583 26.897 3.16188C26.813 3.17397 26.487 3.16932 26.389 3.16839C26.079 3.16529 25.769 3.16653 25.459 3.17211C25.4617 2.69893 25.461 2.22545 25.457 1.75165Z" fill="#020408"/>
<path d="M25.46 14.5209C25.86 14.5507 26.484 14.5302 26.896 14.5265C26.891 14.9767 26.881 15.4912 26.903 15.9395C26.488 15.9172 25.881 15.934 25.453 15.933C25.473 15.493 25.46 14.9656 25.461 14.5209" fill="#020408"/>
<path d="M28.482 7.42138C28.952 7.4279 29.443 7.41952 29.915 7.41766C29.894 7.86231 29.905 8.37766 29.906 8.82697C29.45 8.81487 28.934 8.82511 28.474 8.82697C28.482 8.35906 28.473 7.89115 28.482 7.42138Z" fill="#020408"/>
<path d="M26.934 15.9684C27.338 15.9991 28.016 15.9777 28.435 15.974C28.432 16.4084 28.427 16.8809 28.442 17.3135C27.984 17.2949 27.419 17.3191 26.939 17.3107C26.931 16.8679 26.935 16.413 26.934 15.9684Z" fill="#020408"/>
<path d="M28.475 3.19812C28.893 3.23998 29.5 3.21021 29.927 3.1944C29.927 3.63905 29.897 4.0744 29.909 4.52463L29.899 4.53858C29.775 4.57393 28.691 4.54975 28.471 4.55161C28.491 4.13579 28.478 3.61858 28.475 3.19812Z" fill="#020408"/>
<path d="M28.48 8.86323C28.886 8.88928 29.488 8.86975 29.906 8.86696L29.901 10.2111H28.476C28.4807 9.76215 28.482 9.31347 28.48 8.86323Z" fill="#020408"/>
<path d="M28.482 15.9721C28.917 15.9907 29.464 15.9768 29.907 15.9768C29.905 16.4109 29.9057 16.8453 29.909 17.28L29.905 17.2884C29.843 17.333 28.655 17.3107 28.477 17.3051L28.482 15.9721Z" fill="#020408"/>
<path d="M20.902 3.1972C21.205 3.24465 22.002 3.22139 22.322 3.21116V4.53953C21.966 4.56744 21.281 4.54883 20.906 4.5479C20.89 4.12 20.905 3.63255 20.902 3.1972Z" fill="#020408"/>
<path d="M16.379 33.9228C17.073 33.6224 17.584 33.2214 18.192 32.801L19.892 31.6317L26.592 27.0075L30.211 24.5163C30.989 23.9749 31.639 23.6093 32.304 22.9442C32.526 23.0605 34.116 23.0168 34.466 23.0093C34.466 23.4503 34.45 23.9824 34.467 24.4149L31.492 24.4112C31.492 24.3293 31.497 24.0921 31.475 24.027C31.4649 24.1231 31.4603 24.2197 31.461 24.3163C31.465 24.774 31.429 25.2503 31.467 25.7061L31.478 25.7107C31.525 25.4103 31.502 24.7851 31.501 24.4549C31.934 24.4865 32.481 24.4661 32.923 24.4558L32.921 25.2456C32.921 25.3944 32.933 25.6289 32.911 25.7703C32.775 25.8335 31.704 25.787 31.45 25.8037C31.436 26.2493 31.43 26.7972 31.454 27.2456C30.955 27.2426 30.456 27.242 29.957 27.2437C29.959 26.7427 29.958 26.2416 29.954 25.7405C29.952 25.5107 29.963 25.254 29.944 25.0279L29.933 25.0186C29.893 25.3284 29.917 25.5731 29.913 25.8782C29.909 26.3358 29.895 26.787 29.909 27.2456L28.479 27.2428C28.48 27.0782 28.494 26.1107 28.459 26.0131C28.419 26.2484 28.427 26.9833 28.438 27.2456L27.449 27.2419C27.285 27.2419 27.013 27.2298 26.863 27.254L26.844 27.2726L26.894 27.294C26.904 27.4242 26.888 27.5247 26.891 27.6484C26.899 27.987 26.88 28.3572 26.896 28.6921C26.428 28.6921 25.879 28.6996 25.418 28.6726C25.417 29.0949 25.399 29.6633 25.421 30.0772C24.9193 30.0733 24.4177 30.073 23.916 30.0763C23.917 29.8261 23.925 29.5665 23.906 29.3182L23.896 29.3117L23.898 29.3144C23.858 29.4075 23.873 29.9507 23.878 30.0772C23.671 30.0754 22.636 30.0568 22.522 30.0996C22.782 30.1442 23.575 30.121 23.872 30.1172C23.872 30.5805 23.864 31.0605 23.879 31.5219H22.374C22.375 31.3265 22.389 30.4084 22.356 30.2698C22.313 30.5033 22.326 31.2586 22.334 31.5228L20.895 31.52C20.893 31.4354 20.895 31.3479 20.872 31.2679C20.8433 31.8139 20.8393 32.3607 20.86 32.907C20.3513 32.9039 19.843 32.9039 19.335 32.907C19.16 32.907 18.723 32.9005 18.575 32.9256C18.638 32.9665 19.201 32.9498 19.313 32.947C19.313 33.3963 19.3 33.9098 19.318 34.3544C18.626 34.3482 17.934 34.3467 17.242 34.3498C16.952 34.3517 16.615 34.3433 16.331 34.3535C16.333 34.174 16.327 34.0968 16.379 33.9228Z" fill="#020408"/>
<path d="M31.665 15.9814C31.936 16.0539 32.245 16.1005 32.425 16.3014C33.562 16.6921 34.811 17.813 35.298 18.8465C35.516 19.3098 35.693 19.7609 35.811 20.2577C35.864 20.4809 35.748 20.5795 35.875 20.7023C35.891 20.9116 35.75 20.9395 35.899 21.1116C35.92 21.1377 35.882 21.5674 35.881 21.626C35.819 22.0307 35.678 22.4605 35.561 22.8512C35.405 23.3668 35.2616 23.8857 35.131 24.4074C34.921 24.4149 34.727 24.4139 34.518 24.4112V23.0065C34.653 23.0177 35.288 23.0409 35.368 22.9805C35.327 22.9563 34.628 22.9646 34.518 22.9646L34.519 21.6251C34.681 21.6456 35.527 21.6437 35.733 21.6381L35.766 21.6195V21.6344L35.802 21.627L35.779 21.6112L35.769 21.6242L35.744 21.6251L35.737 21.6046C35.416 21.5749 34.859 21.586 34.517 21.5805L34.519 20.1777C34.676 20.1944 35.522 20.2195 35.61 20.147C35.253 20.1312 34.875 20.1358 34.515 20.1339V18.7972C34.606 18.8018 34.872 18.8223 34.945 18.7814C34.531 18.7023 33.179 18.8195 32.969 18.7302C32.969 18.3618 32.972 17.9925 32.962 17.6242C32.9565 17.521 32.9571 17.4175 32.964 17.3144C32.482 17.3144 31.975 17.3209 31.496 17.307L31.501 16.093L31.584 16.0967C31.634 16.0437 31.634 16.0409 31.665 15.9814Z" fill="#020408"/>
<path d="M31.665 15.9814C31.936 16.0539 32.245 16.1005 32.425 16.3014C32.255 16.3014 31.778 16.1507 31.584 16.0967C31.634 16.0437 31.634 16.0409 31.665 15.9814Z" fill="#020408"/>
<path d="M4.53 18.8028C4.91867 18.8096 5.307 18.8109 5.695 18.8065C5.693 19.1414 5.681 19.5228 5.691 19.853C5.701 19.9386 5.694 20.1237 5.721 20.1619C5.784 20.1907 5.846 20.1879 5.917 20.1916C5.848 20.1916 5.815 20.1833 5.757 20.2102C5.725 20.4614 5.742 21.2949 5.737 21.5963L5.705 21.6214C5.845 21.667 7.011 21.6354 7.238 21.6288C7.241 21.9814 7.268 22.6223 7.243 22.9516C7.163 22.9981 7.124 22.9498 7.098 22.9981C7.138 23.0307 7.144 23.0279 7.196 23.0428C7.236 23.0949 7.249 23.1749 7.266 23.24L7.264 23.2195L7.277 23.2344L7.283 23.0233C7.763 23.0149 8.233 23.0214 8.714 23.0093C8.712 23.293 8.688 23.8512 8.712 24.1144C8.533 24.0586 8.366 24.027 8.182 23.9609C6.97274 23.5293 5.9536 22.7335 5.287 21.7005C4.952 21.1842 4.334 19.7526 4.49 19.1591C4.542 19.0363 4.538 18.9321 4.53 18.8028Z" fill="#020408"/>
<path d="M5.69101 19.853C5.70101 19.9386 5.69401 20.1237 5.72101 20.1619C5.78401 20.1907 5.84601 20.1879 5.91701 20.1916C5.84801 20.1916 5.81501 20.1833 5.75701 20.2102C5.72501 20.4614 5.74201 21.2949 5.73701 21.5963L5.70501 21.6214C5.67201 21.5284 5.70101 20.3786 5.68901 20.1888C5.53308 20.1943 5.37701 20.1956 5.22101 20.1926C5.34301 20.1805 5.60401 20.1842 5.68101 20.1479C5.69101 20.053 5.69001 19.9498 5.69101 19.853Z" fill="#020408"/>
<path d="M5.22099 20.1925C5.11099 20.1935 4.80399 20.2037 4.73199 20.1581C4.79499 20.1218 5.56099 20.1386 5.68199 20.1488C5.60399 20.1842 5.34199 20.1805 5.22099 20.1925Z" fill="#020408"/>
<path d="M23.918 32.946C24.391 32.9628 24.92 32.9516 25.398 32.9498C25.396 33.0242 25.384 33.1135 25.418 33.1777C25.145 33.3879 24.764 33.6316 24.471 33.8307L23.117 34.7656L21.765 35.7005C21.532 35.8623 21.199 36.1079 20.959 36.2456C20.883 36.1433 20.896 35.9051 20.894 35.773C21.004 35.7749 21.097 35.7805 21.204 35.7591L21.191 35.7609C21.128 35.7284 20.974 35.7423 20.892 35.7423C20.8987 35.2927 20.902 34.8428 20.902 34.3926C21.26 34.4093 21.632 34.3963 21.992 34.4019C22.393 34.4065 22.804 34.4065 23.203 34.3805C23.259 34.3767 23.178 34.3674 23.249 34.3786C23.154 34.3423 22.521 34.3516 22.373 34.3516L22.377 32.947C22.842 32.9674 23.405 32.9526 23.875 32.9488C23.873 33.1656 23.861 33.7163 23.897 33.9079C23.923 33.8577 23.918 33.0707 23.918 32.946Z" fill="#020408"/>
<path d="M9.09698 34.4437C9.22398 34.3675 10.039 34.3972 10.256 34.3944C10.256 34.7907 10.236 35.3591 10.256 35.7433C10.07 35.7414 9.78398 35.7312 9.60598 35.7526L9.59598 35.7647C9.75098 35.7879 10.167 35.7814 10.339 35.7814L11.799 35.7796C11.799 36.1693 11.779 36.813 11.807 37.1861C11.653 37.1851 10.802 37.1637 10.723 37.2149C11.049 37.2409 11.476 37.2279 11.807 37.2242C11.809 37.4884 11.852 38.2363 11.733 38.4363C11.3875 38.2281 11.064 37.9898 10.767 37.7247C9.88498 36.934 9.10498 35.6103 9.09698 34.4437Z" fill="#020408"/>
<path d="M11.853 31.5628C12.073 31.5693 12.313 31.5675 12.533 31.5684C12.603 31.6605 12.538 31.7051 12.648 31.8242C12.643 32.2689 13.248 33.1079 13.606 33.4168C13.691 33.4902 13.866 33.5656 13.964 33.6344C14.046 33.6902 13.95 33.72 14.038 33.7516C14.15 33.7926 14.258 33.8084 14.372 33.8521C14.616 33.9144 14.901 33.9786 15.14 34.0475C15.047 34.1237 15 34.1126 14.883 34.1377L14.838 34.1228C14.822 34.1833 14.824 34.2847 14.823 34.3498L11.849 34.3507L11.853 31.5628Z" fill="#020408"/>
<path d="M14.372 33.8511C14.616 33.9144 14.901 33.9786 15.14 34.0474C15.047 34.1237 15 34.1125 14.883 34.1376L14.838 34.1228C14.669 33.9721 14.434 34.1311 14.372 33.8511Z" fill="#020408"/>
<path d="M34.46 25.7953L34.52 25.7693C34.593 25.7739 34.66 25.7795 34.734 25.7786C34.6696 25.9575 34.5837 26.1292 34.478 26.2902C33.931 27.1442 33.478 27.6279 32.611 28.2195C32.39 28.3702 32.201 28.5228 31.958 28.6632C31.79 28.7842 31.618 28.9107 31.444 29.0223C31.433 28.9637 31.437 28.8018 31.436 28.7358L31.443 28.6874L31.448 28.667L31.502 28.68C31.474 28.2939 31.497 27.6818 31.5 27.2846C31.936 27.3014 32.387 27.2921 32.824 27.2893C32.944 27.2884 33.337 27.2893 33.437 27.2679C33.283 27.2381 33.129 27.2446 32.972 27.2456C32.955 26.7842 32.99 26.306 32.962 25.8335L32.959 25.8056C33.44 25.7832 33.97 25.8056 34.46 25.7953Z" fill="#020408"/>
<path d="M34.46 25.7953L34.52 25.7693C34.593 25.7739 34.66 25.7795 34.734 25.7786C34.6696 25.9575 34.5837 26.1292 34.478 26.2902C34.442 26.1553 34.458 25.9851 34.463 25.8437C33.988 25.8437 33.43 25.8539 32.963 25.8344L32.959 25.8065C33.44 25.7832 33.97 25.8056 34.46 25.7953Z" fill="#020408"/>
<path d="M31.502 28.6791C31.668 28.6809 31.872 28.6233 31.958 28.6633C31.79 28.7842 31.618 28.9107 31.444 29.0223C31.433 28.9637 31.437 28.8019 31.436 28.7358L31.443 28.6875L31.448 28.667L31.502 28.6791Z" fill="#020408"/>
<path d="M28.482 28.7293C28.836 28.7572 29.28 28.7423 29.635 28.7405L31.436 28.7358C31.436 28.8019 31.433 28.9637 31.444 29.0223C30.691 29.5191 29.955 30.0651 29.202 30.5665C28.977 30.7154 28.752 30.8921 28.527 31.0363C28.454 30.8502 28.479 30.3433 28.479 30.1154C28.774 30.1302 29.096 30.1247 29.391 30.1042C29.447 30.1005 29.379 30.0968 29.451 30.1023C29.341 30.0642 28.625 30.0744 28.478 30.0754L28.482 28.7293Z" fill="#020408"/>
<path d="M9.96798 30.0288L10.018 30.0753C10.085 30.1535 10.15 30.1302 10.258 30.1256C10.253 30.5758 10.242 31.0716 10.256 31.5209C10.108 31.519 9.70198 31.4986 9.58498 31.5395L9.58698 31.5563C9.73598 31.5804 10.087 31.5656 10.254 31.5637C10.253 31.9963 10.242 32.479 10.26 32.906C10.08 32.906 9.27898 32.8828 9.19298 32.9339C9.35298 32.96 10.062 32.9507 10.256 32.9497C10.254 33.3972 10.241 33.9116 10.259 34.3525C9.90498 34.3525 9.38798 34.3656 9.04898 34.346C9.07498 34.1786 9.03198 34.1079 9.02598 33.9479C9.02198 33.8623 9.09298 33.7042 9.08598 33.613C9.07698 33.5265 9.00598 33.4614 9.02898 33.3665C9.29498 32.2474 9.71498 31.1488 9.96798 30.0288Z" fill="#020408"/>
<path d="M16.337 37.2224C16.773 37.2475 17.39 37.2289 17.835 37.2242C17.835 37.4084 17.806 38.2447 17.853 38.3572C16.94 38.9386 16.417 39.0735 15.338 39.2391C15.148 39.267 15.045 39.2093 14.918 39.2298C14.818 39.1163 14.865 38.7693 14.874 38.6065C15.342 38.6224 15.864 38.6112 16.336 38.6093C16.354 38.1861 16.337 37.6549 16.337 37.2224Z" fill="#020408"/>
<path d="M7.28798 15.9656L7.31398 15.9684C7.50498 15.987 7.92098 15.9312 8.01698 16.0335L8.02198 16.1163C8.02698 16.1535 8.07598 16.2586 8.07698 16.2112C8.06898 16.72 8.18098 17.2335 8.44798 17.6791C8.53298 17.8205 8.66398 17.9274 8.74798 18.08C8.71798 18.2409 8.71798 18.5823 8.71298 18.7553C8.25898 18.7581 7.73798 18.7712 7.28898 18.7516C7.29231 18.2846 7.29265 17.8177 7.28998 17.3507C7.38698 17.36 8.03198 17.3702 8.06998 17.3293C7.86698 17.2958 7.50598 17.306 7.28798 17.307C7.27998 16.8688 7.28798 16.4065 7.28798 15.9656Z" fill="#020408"/>
<path d="M5.135 15.9665C5.157 15.959 5.605 15.973 5.701 15.959C5.681 16.3125 5.68 16.9544 5.7 17.3107C5.435 17.3107 5.038 17.2995 4.784 17.3181L4.777 17.3311C4.949 17.387 5.482 17.3609 5.695 17.3544C5.693 17.8167 5.684 18.3023 5.696 18.7618C5.299 18.7563 4.853 18.7804 4.464 18.7404C4.469 18.7256 4.477 18.6753 4.48 18.6614L4.423 18.5851C4.393 18.4521 5.047 16.2316 5.135 15.9665Z" fill="#020408"/>
<path d="M10.308 23.0074C10.758 23.0363 11.343 23.0167 11.799 23.0102C11.864 23.5628 11.757 24.3544 11.802 24.8847C11.3285 24.7623 10.8538 24.6438 10.378 24.5293L10.367 24.4726L10.415 24.4437L10.389 24.4326L10.386 24.4512L10.374 24.4288L10.301 24.4177C10.288 23.973 10.305 23.4567 10.308 23.0074Z" fill="#020408"/>
<path d="M11.8 23.0103C11.864 23.5628 11.757 24.3544 11.802 24.8847C11.3285 24.7623 10.8538 24.6438 10.378 24.5293L10.367 24.4726L10.415 24.4437L10.389 24.4326L10.386 24.4512L10.374 24.4289L10.301 24.4177C10.663 24.3665 11.397 24.4056 11.791 24.4084C11.784 24.1089 11.772 23.2744 11.799 23.0103" fill="#020408"/>
<path d="M11.938 26.0093C11.958 25.9479 11.968 25.8893 12.018 25.8511C12.289 25.8205 12.961 25.8437 13.273 25.84C13.273 26.2623 13.255 26.8353 13.279 27.2446C13.117 27.2446 11.908 27.2577 11.847 27.2251C11.7447 27.2553 11.6369 27.2661 11.53 27.2567C11.381 27.24 11.375 27.2177 11.292 27.1246C11.434 26.9358 11.662 26.4735 11.778 26.2484C11.837 26.1339 11.82 25.9563 11.896 25.8753C11.908 25.9206 11.922 25.9659 11.938 26.0093Z" fill="#020408"/>
<path d="M11.896 25.8754C11.908 25.9206 11.922 25.965 11.938 26.0084C11.838 26.4809 11.906 26.8205 11.848 27.2251C11.7454 27.2555 11.6372 27.2662 11.53 27.2568C11.381 27.24 11.375 27.2177 11.292 27.1247C11.434 26.9358 11.662 26.4735 11.778 26.2484C11.837 26.134 11.82 25.9563 11.896 25.8754Z" fill="#020408"/>
<path d="M14.875 20.2205C15.26 20.2781 16.131 20.5888 16.452 20.586C16.802 20.7432 16.972 21.0102 17.095 21.3414L17.144 21.4791C17.12 21.5256 17.131 21.5107 17.092 21.5488C16.942 21.6093 16.512 21.586 16.333 21.5832C16.333 21.3135 16.365 20.9693 16.324 20.7088H16.312C16.269 20.9079 16.292 21.36 16.295 21.587C15.826 21.5777 15.335 21.5842 14.864 21.5805C14.856 21.1442 14.867 20.6586 14.875 20.2205Z" fill="#020408"/>
<path d="M11.85 37.2242C12.324 37.2329 12.798 37.2335 13.272 37.226C13.272 37.4344 13.284 38.4493 13.255 38.5609L13.235 38.5926C13.28 38.6484 13.285 38.9228 13.248 38.9777C13.136 38.9898 13.077 38.9619 12.965 38.9488C12.617 38.8967 12.392 38.7721 12.083 38.6233C11.983 38.5777 11.924 38.5526 11.831 38.4912C11.872 38.4009 11.851 37.3898 11.85 37.2242Z" fill="#020408"/>
<path d="M12.0833 38.622C12.3003 38.5342 13.0024 38.5435 13.2556 38.5587L13.2367 38.5908C13.2809 38.646 13.2854 38.9208 13.2487 38.9761C13.1368 38.9875 13.0775 38.9598 12.9658 38.9466C12.6175 38.895 12.3929 38.7706 12.0833 38.622Z" fill="#020408"/>
<path d="M33.014 21.6372C33.502 21.6372 33.977 21.6409 34.466 21.6298C34.464 21.946 34.438 22.6781 34.473 22.9674C34.065 22.9674 33.376 22.9888 32.995 22.9628C32.979 22.9219 32.981 22.9321 32.975 22.8893C32.9529 22.9098 32.9334 22.9325 32.917 22.9572C32.762 22.9916 32.694 23.0232 32.566 22.92C32.524 22.8586 32.545 22.7898 32.554 22.7153C32.561 22.6809 32.634 22.5191 32.651 22.4772C32.694 22.4809 32.692 22.4791 32.736 22.4744C32.824 22.3888 32.868 22.1926 32.903 22.0744C32.935 21.9321 32.966 21.7749 33.014 21.6372Z" fill="#020408"/>
<path d="M32.9048 22.0739C32.9726 22.1289 32.9792 22.1353 32.9824 22.2327C32.989 22.4297 32.9956 22.6926 32.9775 22.8883C32.9549 22.9095 32.9356 22.9301 32.9191 22.9558C32.7641 22.9903 32.6963 23.0223 32.5678 22.9195C32.5264 22.857 32.5468 22.7891 32.5564 22.7134C32.5632 22.6801 32.6356 22.5174 32.6535 22.4763C32.6966 22.4798 32.6942 22.4781 32.7377 22.4734C32.8259 22.3881 32.8697 22.1917 32.9048 22.0739Z" fill="#020408"/>
<path d="M26.937 30.1163C27.403 30.1377 27.967 30.1209 28.438 30.1172C28.438 30.3284 28.408 30.9321 28.432 31.1014C27.998 31.4065 27.503 31.7609 27.054 32.0419C26.901 31.9302 26.931 31.7321 26.927 31.5619C27.044 31.5637 27.145 31.5637 27.262 31.5591L27.287 31.5339C27.325 31.5377 27.311 31.5302 27.333 31.5498C27.326 31.546 27.297 31.5507 27.287 31.5525L27.273 31.5274C27.191 31.5181 27.021 31.5228 26.93 31.5228C26.938 31.0539 26.9403 30.5851 26.937 30.1163Z" fill="#020408"/>
<path d="M9.96802 30.0288C10.066 29.6949 10.264 28.8418 10.494 28.6195L10.509 28.6772L10.513 28.7265C10.797 28.7683 11.482 28.7404 11.799 28.7339C11.799 29.1665 11.789 29.6456 11.804 30.0753C11.44 30.0725 10.654 30.0976 10.337 30.066C10.31 30.0335 10.317 30.0483 10.308 30.026L10.302 29.9814L10.286 29.9739L10.283 29.9088L10.28 29.946C10.276 29.9953 10.271 30.0074 10.256 30.0549C10.192 30.0902 10.106 30.0669 10.017 30.0753L9.96802 30.0288Z" fill="#020408"/>
<path d="M9.96857 30.0273C10.0667 29.6936 10.2647 28.8401 10.4946 28.6178L10.5095 28.6761L10.5132 28.7252C10.375 28.942 10.3223 29.7466 10.3091 30.0244L10.3027 29.9797L10.2866 29.9723L10.284 29.9077L10.281 29.944C10.2764 29.9942 10.272 30.0063 10.2565 30.0538C10.1929 30.0888 10.1063 30.0657 10.018 30.0734L9.96857 30.0273Z" fill="#020408"/>
<path d="M14.803 25.8465C14.853 25.8614 15.057 25.8465 15.183 25.8744C15.081 26.0884 14.955 26.347 14.829 26.5497C14.773 26.667 14.527 27.1637 14.458 27.2521C14.351 27.2223 13.494 27.2446 13.317 27.2446C13.3143 26.7764 13.3177 26.3079 13.327 25.8391C13.822 25.8539 14.31 25.8381 14.803 25.8465Z" fill="#020408"/>
<path d="M14.803 25.8465C14.853 25.8614 15.057 25.8465 15.183 25.8744C15.081 26.0884 14.955 26.347 14.829 26.5498C14.798 26.4521 14.808 25.9944 14.803 25.8465Z" fill="#020408"/>
<path d="M29.958 27.2837C30.411 27.3116 30.993 27.293 31.454 27.2865C31.4633 27.7473 31.4613 28.2074 31.448 28.6669L31.443 28.6874C30.983 28.7042 30.427 28.693 29.959 28.6939L29.958 27.2837Z" fill="#020408"/>
<path d="M5.91697 20.1916C6.36697 20.1991 6.79097 20.1888 7.23997 20.1823C7.23797 20.5023 7.21297 21.3032 7.24597 21.586C6.78697 21.5851 6.18797 21.5674 5.73697 21.5972C5.74197 21.2949 5.72497 20.4623 5.75697 20.2111C5.81497 20.1832 5.84797 20.1925 5.91697 20.1925" fill="#020408"/>
<path d="M14.54 20.1693C14.632 20.1814 14.745 20.187 14.824 20.2251C14.794 20.3712 14.816 21.3656 14.818 21.5861C14.337 21.574 13.804 21.5842 13.318 21.5814C13.3153 21.1182 13.32 20.6546 13.332 20.1907C13.544 20.1926 14.377 20.2149 14.54 20.1693Z" fill="#020408"/>
<path d="M32.962 20.1953C33.4633 20.1985 33.9647 20.1938 34.466 20.1814C34.464 20.5051 34.439 21.307 34.474 21.586C34.254 21.5842 33.157 21.6047 33.029 21.5665C33.059 21.4428 33.107 21.3814 32.98 21.3172C32.98 21.2056 33.053 21.0605 33.02 20.9814L32.954 20.9972C32.931 20.9656 32.946 20.8735 32.951 20.8298C32.966 20.7107 32.951 20.6642 32.925 20.5507C33.021 20.4558 32.968 20.3228 32.962 20.1953Z" fill="#020408"/>
<path d="M17.89 35.7767C18.327 35.7991 18.868 35.7832 19.311 35.7795C19.312 36.1795 19.287 36.7749 19.314 37.1591L19.26 37.1898C19.16 37.1786 18.89 37.1832 18.78 37.1832C18.4777 37.1815 18.1753 37.1815 17.873 37.1832C17.886 36.72 17.866 36.2372 17.89 35.7767Z" fill="#020408"/>
<path d="M23.92 31.5628C24.418 31.569 24.916 31.569 25.414 31.5628C25.413 31.9879 25.392 32.5023 25.403 32.9172C25.24 32.8893 24.153 32.9061 23.916 32.9079C23.918 32.4707 23.93 31.9954 23.92 31.5628Z" fill="#020408"/>
<path d="M5.747 15.9702C6.133 15.9721 6.866 15.9935 7.232 15.9628C7.246 16.0623 7.235 16.2456 7.237 16.3507C7.242 16.6632 7.225 16.999 7.246 17.3079C6.755 17.3088 6.233 17.3172 5.745 17.3032L5.747 15.9702Z" fill="#020408"/>
<path d="M32.979 24.4558C33.444 24.4837 33.992 24.4679 34.464 24.4605C34.462 24.8958 34.451 25.3628 34.461 25.7953C33.971 25.8046 33.44 25.7833 32.959 25.8056C33.002 25.3963 32.958 24.8772 32.979 24.4558Z" fill="#020408"/>
<path d="M9.33399 18.5582C9.39599 18.5889 9.7 18.7703 9.684 18.7628C9.771 18.7879 9.878 18.814 9.96 18.8493C9.973 19.0605 10.106 18.9805 10.252 19.0661C10.2491 19.4227 10.2507 19.7793 10.257 20.1358H8.758C8.758 19.6912 8.76 19.2472 8.764 18.8037C8.966 18.8084 9.13299 18.8121 9.33399 18.7944L9.329 18.7442C9.334 18.6986 9.33299 18.6075 9.33399 18.5582Z" fill="#020408"/>
<path d="M9.33398 18.5582C9.39598 18.5889 9.69998 18.7703 9.68398 18.7628C9.56835 18.7817 9.45134 18.7922 9.33398 18.7944L9.32898 18.7442C9.33398 18.6986 9.33298 18.6075 9.33398 18.5582Z" fill="#020408"/>
<path d="M8.76499 23.0074C9.27499 23.0233 9.74799 23.0186 10.257 23.0093C10.263 23.3256 10.309 24.2335 10.196 24.4828C9.78599 24.3572 9.16699 24.2223 8.73499 24.1154C8.77599 24.0205 8.76499 23.1805 8.76499 23.0074Z" fill="#020408"/>
<path d="M14.871 23.0065C15.282 23.0363 15.869 23.0177 16.291 23.014C16.289 23.1479 16.29 23.2605 16.297 23.3935C16.29 23.493 16.267 23.6065 16.321 23.6893C16.234 23.894 16.111 24.1572 15.993 24.3498L15.956 24.3563C15.68 24.4493 15.186 24.4158 14.866 24.4121C14.8623 23.9439 14.864 23.4747 14.871 23.0065Z" fill="#020408"/>
<path d="M11.853 28.7302C12.263 28.7637 12.848 28.7432 13.271 28.7395C13.271 28.8809 13.271 28.9963 13.281 29.1367C13.263 29.3563 13.166 29.5181 13.154 29.6893C13.093 29.8056 13.062 29.8939 13.017 30.0158C12.685 30.1116 12.207 30.0772 11.851 30.0735L11.853 28.7302Z" fill="#020408"/>
<path d="M25.464 31.5609C25.9 31.5842 26.453 31.5684 26.895 31.5628C26.897 31.7302 26.868 32.0214 26.888 32.1646C26.632 32.3432 26.043 32.7786 25.794 32.9181C25.67 33.0062 25.545 33.093 25.419 33.1786C25.384 33.1135 25.396 33.0242 25.398 32.9498L25.403 32.9172L25.447 32.9256L25.477 32.8856C25.445 32.7535 25.463 31.7507 25.464 31.5609Z" fill="#020408"/>
<path d="M25.403 32.9172L25.447 32.9256L25.477 32.8856C25.59 32.8856 25.693 32.8762 25.794 32.9172C25.67 33.0065 25.545 33.0933 25.419 33.1776C25.384 33.1135 25.396 33.0242 25.398 32.9497L25.403 32.9172Z" fill="#020408"/>
<path d="M19.356 35.773C19.776 35.8046 20.418 35.7823 20.855 35.7749L20.845 36.3284C20.455 36.5925 19.943 36.9842 19.561 37.2195C19.5017 37.1973 19.4417 37.1768 19.381 37.1581C19.339 36.9572 19.356 36.0232 19.356 35.773Z" fill="#020408"/>
<path d="M11.852 24.4558C12.284 24.4912 12.83 24.467 13.272 24.4567C13.272 24.8893 13.263 25.3721 13.279 25.8C12.919 25.7991 12.519 25.8056 12.161 25.7888C12.193 25.6474 12.231 25.4549 12.279 25.3228C12.294 25.2586 12.367 25.107 12.397 25.0381C12.219 24.9944 12.017 24.9488 11.845 24.8912C11.865 24.7563 11.842 24.6028 11.852 24.4558Z" fill="#020408"/>
<path d="M11.167 27.3628C11.427 27.2884 11.527 27.2865 11.803 27.2856C11.8 27.6419 11.776 28.3702 11.809 28.6921C11.499 28.6921 10.789 28.7107 10.509 28.6772L10.494 28.6195C10.697 28.307 11.028 27.6958 11.167 27.3628Z" fill="#020408"/>
<path d="M10.31 19.0726C10.618 19.1377 11.524 19.3405 11.797 19.4502C11.797 19.5805 11.79 19.7637 11.797 19.8902C11.794 19.9693 11.797 20.0558 11.797 20.1358L10.305 20.133C10.3037 19.7795 10.3047 19.4261 10.31 19.0726Z" fill="#020408"/>
<path d="M11.852 30.1163C12.169 30.1256 12.516 30.1135 12.822 30.1256C12.832 30.1888 12.784 30.3172 12.779 30.4074C12.717 30.627 12.632 30.9712 12.555 31.1767C12.516 31.3032 12.516 31.3842 12.521 31.5163C12.318 31.5256 12.058 31.52 11.851 31.52L11.852 30.1163Z" fill="#020408"/>
<path d="M13.321 27.2837C13.657 27.3023 14.104 27.2372 14.401 27.3507C14.298 27.5516 14.188 27.7442 14.083 27.9432C13.983 28.1339 13.912 28.3656 13.779 28.5386C13.7401 28.5876 13.7088 28.6415 13.686 28.6986C13.635 28.6893 13.39 28.693 13.316 28.6912C13.347 28.3805 13.314 27.6419 13.321 27.2837Z" fill="#020408"/>
<path d="M14.87 24.4521C15.189 24.4809 15.63 24.4279 15.91 24.5153C15.749 24.8409 15.562 25.1488 15.396 25.4726C15.323 25.6139 15.275 25.6223 15.218 25.7888L14.868 25.8009C14.842 25.4614 14.866 24.8102 14.87 24.4521Z" fill="#020408"/>
<path d="M17.885 37.2233C18.311 37.2409 18.84 37.2279 19.273 37.2307L19.334 37.3702C18.909 37.6735 18.372 38.0661 17.922 38.3154C17.847 38.1312 17.881 37.4595 17.885 37.2233Z" fill="#020408"/>
<path d="M16.338 21.6242C16.641 21.6521 17.139 21.4977 17.149 21.8772C17.1057 22.1521 17.017 22.4191 16.886 22.6688C16.823 22.7804 16.766 22.8409 16.716 22.96C16.615 22.9553 16.443 22.9665 16.336 22.9702C16.33 22.5284 16.334 22.066 16.338 21.6242Z" fill="#020408"/>
<path d="M13.325 38.6111C13.8223 38.6161 14.3197 38.6149 14.817 38.6074C14.813 38.8009 14.783 39.1023 14.858 39.2707C14.65 39.2344 14.454 39.2744 14.221 39.2474C14.089 39.2316 13.761 39.1265 13.694 39.1525C13.329 38.9209 13.284 39.2111 13.325 38.6111Z" fill="#020408"/>
<path d="M9.96002 18.8493C11.422 19.2335 12.936 19.5907 14.41 19.9619L15.604 20.2633C15.848 20.3256 16.094 20.3833 16.331 20.466C16.407 20.493 16.418 20.5237 16.452 20.586C16.132 20.5888 15.26 20.2781 14.875 20.2205L14.825 20.2251C14.745 20.187 14.632 20.1814 14.54 20.1693C14.484 20.1488 14.39 20.1042 14.333 20.0781C14.229 20.0809 13.503 19.8707 13.351 19.8307L13.283 19.8279C13.057 19.7237 12.126 19.5154 11.853 19.4642L11.797 19.4502C11.524 19.3405 10.618 19.1367 10.311 19.0726L10.252 19.066C10.106 18.9805 9.97202 19.0605 9.96002 18.8493Z" fill="#020408"/>
<path d="M11.797 19.4503L11.853 19.4642C12.126 19.5154 13.057 19.7237 13.283 19.827C13.271 19.9479 13.271 20.0196 13.273 20.1405C13.09 20.1396 11.923 20.1544 11.843 20.107L11.827 20.1042C11.823 20.0093 11.823 19.9805 11.797 19.8903C11.79 19.7637 11.797 19.5805 11.797 19.4503Z" fill="#020408"/>
<path d="M11.797 19.4503L11.853 19.4642C11.857 19.6782 11.8537 19.8924 11.843 20.107L11.827 20.1042C11.823 20.0093 11.823 19.9805 11.797 19.8903C11.79 19.7637 11.797 19.5805 11.797 19.4503Z" fill="#020408"/>
<path d="M34.52 24.4558C34.654 24.466 35.02 24.4465 35.097 24.506C34.973 24.9181 34.86 25.3823 34.734 25.7786C34.66 25.7795 34.593 25.7739 34.52 25.7693C34.537 25.3758 34.516 24.867 34.52 24.4558Z" fill="#020408"/>
<path d="M15.14 34.0475C15.393 34.1088 15.915 34.0484 16.168 33.9916C16.303 34.1405 16.298 34.1544 16.305 34.3526L15.368 34.3507C15.249 34.3507 14.988 34.36 14.883 34.3414C14.843 34.2688 14.86 34.2214 14.883 34.1377C15 34.1135 15.047 34.1237 15.14 34.0475Z" fill="#020408"/>
<path d="M8.74703 18.7516C8.74703 18.6428 8.72303 18.4279 8.80303 18.3498C8.85903 18.2949 8.92003 18.3032 9.00103 18.2939C9.10903 18.3857 9.22003 18.4738 9.33403 18.5581C9.33303 18.6074 9.33403 18.6986 9.32903 18.7442C9.10603 18.7563 8.97403 18.7628 8.74703 18.7516Z" fill="#020408"/>
<path d="M13.351 19.8307C13.503 19.8707 14.229 20.0809 14.333 20.0781C14.213 20.1619 13.511 20.1358 13.329 20.1339C13.327 20.0446 13.316 19.9079 13.351 19.8307Z" fill="#020408"/>
<path d="M16.337 23.2884C16.362 23.2986 16.367 23.2977 16.395 23.3014C16.483 23.24 16.497 23.2214 16.6 23.2018C16.5087 23.3656 16.4157 23.528 16.321 23.6893C16.267 23.6056 16.291 23.493 16.297 23.3935C16.327 23.3535 16.313 23.3684 16.307 23.3004L16.337 23.2884Z" fill="#020408"/>
<path d="M16.337 23.2884C16.34 23.173 16.322 23.0791 16.439 23.0205C16.531 23.0186 16.573 23.0419 16.659 23.0735L16.6 23.2019C16.497 23.2214 16.483 23.2391 16.395 23.3014C16.367 23.2968 16.362 23.2986 16.337 23.2884Z" fill="#020408"/>
<path d="M19.314 37.1591L19.38 37.1581C19.4407 37.1767 19.5007 37.1972 19.56 37.2195L19.334 37.3702L19.274 37.2307L19.26 37.1898L19.314 37.1591Z" fill="#020408"/>
<path d="M10.302 20.1777C10.82 20.2316 11.292 20.1814 11.798 20.1842C11.798 20.56 11.775 21.2344 11.804 21.586L10.809 21.5823C10.686 21.5823 10.397 21.5758 10.291 21.5916L10.253 21.6019C10.285 21.6316 10.42 21.6326 10.48 21.6381C10.9 21.6456 11.377 21.6474 11.8 21.6288C11.8 22.0633 11.79 22.5386 11.807 22.9684L10.311 22.9647L10.26 22.973C9.82 22.9498 9.207 22.9665 8.755 22.9674C8.755 22.5209 8.75834 22.075 8.76501 21.6298C9.06901 21.6558 9.53601 21.6419 9.84501 21.6381C9.94501 21.627 10.165 21.6344 10.228 21.6L10.259 21.534L10.285 21.5247C10.33 21.2456 10.27 20.5247 10.302 20.1777Z" fill="#020408"/>
<path d="M10.302 20.1777C10.82 20.2316 11.292 20.1814 11.798 20.1842C11.798 20.56 11.775 21.2344 11.804 21.586L10.809 21.5823C10.686 21.5823 10.397 21.5758 10.291 21.5916C10.33 21.4521 10.319 20.3619 10.301 20.1777" fill="#020408"/>
<path d="M10.48 21.6381C10.9 21.6456 11.377 21.6474 11.8 21.6288C11.8 22.0633 11.79 22.5386 11.807 22.9684L10.311 22.9647C10.302 22.6019 10.291 22.0186 10.319 21.6623C10.36 21.6288 10.412 21.6409 10.48 21.6381Z" fill="#020408"/>
<path d="M10.26 21.534L10.285 21.5247C10.33 21.2456 10.27 20.5247 10.302 20.1777C10.319 20.3619 10.33 21.4521 10.291 21.5916L10.253 21.6019C10.285 21.6316 10.42 21.6326 10.48 21.6381C10.41 21.6409 10.36 21.6288 10.319 21.6614C10.291 22.0186 10.302 22.6028 10.311 22.9647L10.26 22.973C10.247 22.8558 10.26 22.5953 10.261 22.467C10.2593 22.1901 10.2553 21.9131 10.249 21.6363C10.114 21.6401 9.97899 21.6407 9.84399 21.6381C9.94499 21.627 10.164 21.6344 10.228 21.6L10.26 21.534Z" fill="#020408"/>
<path d="M14.81 34.4028L14.877 34.4L16.293 34.3963C16.296 34.8316 16.288 35.3005 16.299 35.7321C15.905 35.7321 15.455 35.7209 15.065 35.7358C14.617 35.7581 13.97 35.7442 13.515 35.7358C13.452 35.7339 13.38 35.7349 13.317 35.7339C13.32 35.3153 13.304 34.8009 13.332 34.3944C13.82 34.4121 14.32 34.3879 14.811 34.4037" fill="#020408"/>
<path d="M14.877 34.4L16.293 34.3963C16.296 34.8317 16.288 35.3005 16.299 35.7321C15.905 35.7321 15.455 35.721 15.065 35.7358C14.993 35.7312 14.944 35.733 14.877 35.7061C14.839 35.4977 14.872 34.6521 14.877 34.4Z" fill="#020408"/>
<path d="M14.81 34.4028L14.877 34.4C14.872 34.6521 14.839 35.4977 14.877 35.7061C14.944 35.733 14.993 35.7312 15.065 35.7358C14.617 35.7582 13.97 35.7442 13.515 35.7358C13.929 35.7163 14.395 35.7303 14.815 35.7284C14.814 35.2772 14.817 34.8605 14.81 34.4028Z" fill="#020408"/>
<path d="M14.826 37.2112L14.874 37.2242C15.3473 37.2329 15.8207 37.2335 16.294 37.2261L16.29 38.5693C16.017 38.5358 15.213 38.56 14.872 38.5526L14.818 38.5637C14.494 38.533 13.706 38.5619 13.322 38.5544C13.3114 38.1111 13.3134 37.6675 13.328 37.2242C13.58 37.2344 14.621 37.2456 14.826 37.2112Z" fill="#020408"/>
<path d="M14.874 37.2242C15.3473 37.2329 15.8207 37.2335 16.294 37.226L16.29 38.5693C16.017 38.5358 15.213 38.56 14.872 38.5526C14.856 38.1219 14.867 37.6549 14.874 37.2242Z" fill="#020408"/>
<path d="M14.826 37.2112L14.874 37.2242C14.867 37.6549 14.856 38.1219 14.872 38.5526L14.818 38.5637C14.805 38.374 14.823 38.0865 14.82 37.8865C14.817 37.7005 14.804 37.3814 14.826 37.2112Z" fill="#020408"/>
<path d="M16.337 35.7749C16.75 35.8056 17.408 35.7833 17.834 35.7786C17.834 36.1916 17.817 36.787 17.847 37.1833L16.332 37.1814C16.349 36.7405 16.336 36.2223 16.337 35.7749Z" fill="#020408"/>
<path d="M19.357 32.9479C19.835 32.9665 20.372 32.9535 20.853 32.9498C20.853 33.3665 20.835 33.9498 20.865 34.3544C20.405 34.3358 19.818 34.3507 19.352 34.3516C19.365 33.8977 19.355 33.4065 19.357 32.9479Z" fill="#020408"/>
<path d="M23.92 30.1154C24.374 30.1386 24.954 30.1219 25.414 30.1181C25.414 30.5693 25.403 31.0763 25.424 31.5228C24.961 31.5061 24.387 31.5209 23.915 31.5209C23.9203 31.0521 23.922 30.5836 23.92 30.1154Z" fill="#020408"/>
<path d="M26.937 27.2856C27.383 27.3116 27.981 27.2921 28.434 27.2865C28.4333 27.7554 28.435 28.2242 28.439 28.693C27.961 28.6781 27.419 28.6884 26.937 28.6884V27.2856Z" fill="#020408"/>
<path d="M13.328 35.7758C13.743 35.8047 14.391 35.7833 14.817 35.7796C14.815 36.1489 14.792 36.84 14.828 37.1842C14.377 37.1656 13.783 37.1814 13.317 37.1796C13.323 36.7209 13.308 36.2307 13.328 35.7758Z" fill="#020408"/>
<path d="M10.31 32.946C10.794 32.9619 11.316 32.9535 11.804 32.9516C11.801 33.3749 11.781 33.9377 11.811 34.3479C11.716 34.3572 11.421 34.3516 11.316 34.3516L10.308 34.3507C10.296 33.8986 10.308 33.4019 10.309 32.946" fill="#020408"/>
<path d="M5.748 17.3544C6.18 17.3823 6.8 17.3609 7.243 17.3544C7.23202 17.8235 7.23335 18.2928 7.247 18.7619C6.74646 18.7467 6.24553 18.7467 5.745 18.7619L5.748 17.3544Z" fill="#020408"/>
<path d="M13.328 23.0056C13.796 23.039 14.342 23.0186 14.816 23.0102C14.814 23.4502 14.802 23.9823 14.824 24.4149L13.318 24.4121C13.3147 23.9432 13.318 23.4744 13.328 23.0056Z" fill="#020408"/>
<path d="M10.314 30.1163C10.754 30.1405 11.352 30.1228 11.8 30.1191C11.797 30.5777 11.788 31.066 11.801 31.5228C11.33 31.5079 10.784 31.52 10.307 31.5191C10.299 31.0614 10.311 30.5758 10.314 30.1163Z" fill="#020408"/>
<path d="M8.76502 20.1749C9.11102 20.2204 9.87902 20.1907 10.255 20.1823C10.254 20.6214 10.244 21.0986 10.259 21.5339L10.229 21.5991C10.121 21.5711 8.97302 21.5823 8.75702 21.5814L8.76502 20.1749Z" fill="#020408"/>
<path d="M16.352 34.3916C16.777 34.4214 17.4 34.4009 17.835 34.3963C17.835 34.826 17.825 35.3079 17.842 35.7339C17.338 35.7358 16.834 35.7342 16.33 35.7293C16.33 35.3944 16.311 34.6911 16.352 34.3916Z" fill="#020408"/>
<path d="M25.464 30.1154C25.914 30.1358 26.44 30.1228 26.894 30.1181C26.89 30.5876 26.892 31.0568 26.9 31.5256C26.427 31.5144 25.928 31.5209 25.453 31.5209C25.475 31.0772 25.463 30.5628 25.464 30.1154Z" fill="#020408"/>
<path d="M20.902 32.9451C21.31 32.9721 21.912 32.9526 22.33 32.9507C22.326 33.4189 22.328 33.8868 22.336 34.3544C21.911 34.3349 21.326 34.3507 20.892 34.3526C20.908 33.9014 20.898 33.4009 20.902 32.9451Z" fill="#020408"/>
<path d="M22.376 31.5609C22.839 31.5832 23.404 31.5684 23.872 31.5637C23.8694 32.0121 23.8714 32.4601 23.878 32.9079C23.426 32.8893 22.836 32.9042 22.374 32.906L22.376 31.5609Z" fill="#020408"/>
<path d="M32.973 18.7963C33.262 18.8307 34.164 18.8093 34.479 18.8C34.479 19.2459 34.4754 19.6911 34.468 20.1358C34.028 20.1553 33.421 20.1367 32.968 20.1358L32.973 18.7963Z" fill="#020408"/>
<path d="M28.483 27.2837C28.913 27.3088 29.469 27.293 29.906 27.2865L29.908 28.6846C29.718 28.7274 28.723 28.6902 28.478 28.6883C28.486 28.226 28.481 27.7479 28.483 27.2837Z" fill="#020408"/>
<path d="M19.359 34.3916C19.801 34.4167 20.402 34.399 20.853 34.3953C20.849 34.8232 20.843 35.319 20.863 35.7442C20.393 35.7321 19.823 35.7218 19.355 35.7358L19.359 34.3916Z" fill="#020408"/>
<path d="M10.309 34.3926C10.762 34.4158 11.342 34.3991 11.801 34.3954C11.799 34.7154 11.776 35.4465 11.813 35.7349C11.345 35.721 10.785 35.7349 10.308 35.733C10.285 35.3647 10.307 34.7768 10.308 34.3926" fill="#020408"/>
<path d="M26.939 28.7284C27.436 28.7628 27.936 28.7442 28.435 28.733L28.438 30.0726C27.948 30.0819 27.429 30.0744 26.936 30.0744L26.939 28.7284Z" fill="#020408"/>
<path d="M14.87 35.7758C15.274 35.8037 15.878 35.7833 16.293 35.7795C16.295 36.2372 16.279 36.7321 16.299 37.1842C15.872 37.1656 15.307 37.1814 14.869 37.1814C14.852 36.7488 14.869 36.2158 14.87 35.7758Z" fill="#020408"/>
<path d="M31.5 25.8353C31.904 25.8632 32.51 25.8418 32.924 25.839C32.942 26.2511 32.926 26.7944 32.926 27.2195L32.921 27.2288C32.857 27.2614 31.64 27.2437 31.501 27.2381C31.507 26.7705 31.506 26.3029 31.5 25.8353Z" fill="#020408"/>
<path d="M10.31 31.5609C10.762 31.5851 11.34 31.5684 11.798 31.5646C11.7967 32.0093 11.7993 32.4542 11.806 32.8995C11.734 32.9107 11.4 32.9079 11.317 32.907L10.308 32.9042L10.31 31.5609Z" fill="#020408"/>
<path d="M13.325 24.4521C13.763 24.4949 14.368 24.4679 14.817 24.4567C14.819 24.9042 14.813 25.3535 14.818 25.8009C14.326 25.7907 13.81 25.7972 13.316 25.7972L13.325 24.4521Z" fill="#020408"/>
<path d="M11.853 23.0056C12.279 23.04 12.837 23.0186 13.273 23.0093L13.275 24.413C12.866 24.4316 12.271 24.413 11.849 24.4093L11.853 23.0056Z" fill="#020408"/>
<path d="M11.853 35.7758C12.249 35.8037 12.863 35.7833 13.272 35.7795C13.27 36.2167 13.256 36.7563 13.282 37.1842C12.865 37.1656 12.278 37.1814 11.851 37.1823L11.853 35.7758Z" fill="#020408"/>
<path d="M5.74701 18.8037C6.20301 18.826 6.77701 18.8093 7.24001 18.8056L7.24101 20.1302C7.03101 20.1739 6.03301 20.1349 5.74701 20.133V18.8037Z" fill="#020408"/>
<path d="M13.327 21.6288C13.689 21.6726 14.432 21.6409 14.817 21.6298C14.815 21.9231 14.815 22.2158 14.817 22.5079C14.818 22.6168 14.827 22.8688 14.81 22.9684C14.318 22.9609 13.81 22.9665 13.318 22.9665C13.318 22.5293 13.312 22.0642 13.328 21.6288" fill="#020408"/>
<path d="M11.855 27.2837C12.268 27.3116 12.852 27.2921 13.275 27.2856L13.271 28.6921C12.812 28.6809 12.314 28.6902 11.851 28.6883L11.855 27.2837Z" fill="#020408"/>
<path d="M11.855 20.1805C12.195 20.2177 12.907 20.1898 13.272 20.1833C13.2693 20.6484 13.27 21.1141 13.274 21.5805C13.055 21.6028 12.107 21.5805 11.85 21.5796C11.8487 21.1126 11.8503 20.6462 11.855 20.1805Z" fill="#020408"/>
<path d="M7.29 20.1777C7.632 20.2195 8.342 20.1898 8.711 20.1814C8.70834 20.6484 8.709 21.115 8.713 21.5814C8.47 21.6056 7.562 21.5833 7.289 21.5805L7.29 20.1777Z" fill="#020408"/>
<path d="M20.9 31.5619C21.278 31.5917 21.937 31.5684 22.33 31.5637C22.3267 32.0115 22.3287 32.4589 22.336 32.9061C21.866 32.8968 21.366 32.9051 20.895 32.9061C20.908 32.4735 20.899 31.9982 20.9 31.5619Z" fill="#020408"/>
<path d="M25.46 28.7321C25.944 28.7572 26.407 28.7433 26.89 28.733C26.886 29.1808 26.8887 29.6289 26.898 30.0772C26.461 30.0586 25.902 30.0735 25.456 30.0744C25.473 29.6586 25.461 29.1535 25.46 28.7321Z" fill="#020408"/>
<path d="M17.883 34.3926C18.32 34.4149 18.867 34.3991 19.311 34.3954L19.313 35.7349C18.843 35.7191 18.355 35.7489 17.877 35.7256C17.888 35.2912 17.877 34.8316 17.883 34.3926Z" fill="#020408"/>
<path d="M11.853 34.3916C12.275 34.4158 12.84 34.399 13.27 34.3963C13.27 34.8149 13.258 35.3256 13.281 35.7358C12.816 35.7246 12.317 35.733 11.85 35.733L11.853 34.3916Z" fill="#020408"/>
<path d="M16.182 21.6316C16.238 21.6279 16.235 21.626 16.285 21.6484C16.314 21.8772 16.291 22.6967 16.29 22.9665L15.032 22.9674C14.961 22.9693 14.944 22.973 14.875 22.9525C14.849 22.7777 14.87 21.8549 14.871 21.6316C15.284 21.6549 15.766 21.6409 16.182 21.6316Z" fill="#020408"/>
<path d="M11.853 21.6279C12.16 21.6651 12.948 21.6391 13.273 21.6279C13.273 22.0707 13.266 22.5293 13.279 22.9693C12.819 22.9572 12.313 22.9665 11.849 22.9665L11.853 21.6279Z" fill="#020408"/>
<path d="M7.29002 18.8C7.62102 18.8335 8.35702 18.8093 8.71002 18.8056C8.70902 19.2456 8.70202 19.6995 8.71602 20.1386C8.25702 20.1265 7.75102 20.1349 7.28802 20.133L7.29002 18.8Z" fill="#020408"/>
<path d="M7.29297 21.626C7.57097 21.6642 8.39097 21.6363 8.71097 21.6288C8.71097 22.0474 8.69897 22.5563 8.72097 22.9684L7.28497 22.9665L7.29297 21.626Z" fill="#020408"/>
</svg>
